OpenSans-CondensedExtraBold.ufo
<glyph name="exclam" format="2">
  <advance width="555"/>
  <unicode hex="0021"/>
  <outline>
    <contour>
      <point x="422" y="516" type="line"/>
      <point x="469" y="1462" type="line"/>
      <point x="86" y="1462" type="line"/>
      <point x="135" y="516" type="line"/>
    </contour>
    <contour>
      <point x="88" y="166" type="curve" smooth="yes"/>
      <point x="88" y="45"/>
      <point x="162" y="-25"/>
      <point x="279" y="-25" type="curve" smooth="yes"/>
      <point x="393" y="-25"/>
      <point x="463" y="45"/>
      <point x="463" y="166" type="curve" smooth="yes"/>
      <point x="463" y="289"/>
      <point x="397" y="358"/>
      <point x="279" y="358" type="curve" smooth="yes"/>
      <point x="154" y="358"/>
      <point x="88" y="289"/>
    </contour>
  </outline>
</glyph>
<glyph name="dollar" format="2">
  <advance width="1014"/>
  <unicode hex="0024"/>
  <outline>
    <contour>
      <point x="444" y="-119" type="line"/>
      <point x="590" y="-119" type="line"/>
      <point x="590" y="76" type="line"/>
      <point x="803" y="119"/>
      <point x="924" y="274"/>
      <point x="924" y="477" type="curve" smooth="yes"/>
      <point x="924" y="678"/>
      <point x="821" y="777"/>
      <point x="590" y="865" type="curve"/>
      <point x="590" y="1156" type="line"/>
      <point x="663" y="1146"/>
      <point x="752" y="1119"/>
      <point x="827" y="1073" type="curve"/>
      <point x="897" y="1321" type="line"/>
      <point x="797" y="1376"/>
      <point x="688" y="1409"/>
      <point x="590" y="1417" type="curve"/>
      <point x="590" y="1554" type="line"/>
      <point x="444" y="1554" type="line"/>
      <point x="444" y="1415" type="line"/>
      <point x="238" y="1386"/>
      <point x="92" y="1268"/>
      <point x="92" y="1044" type="curve" smooth="yes"/>
      <point x="92" y="843"/>
      <point x="213" y="728"/>
      <point x="444" y="634" type="curve"/>
      <point x="444" y="318" type="line"/>
      <point x="336" y="321"/>
      <point x="204" y="383"/>
      <point x="104" y="451" type="curve"/>
      <point x="104" y="156" type="line"/>
      <point x="209" y="106"/>
      <point x="336" y="76"/>
      <point x="444" y="68" type="curve"/>
    </contour>
    <contour>
      <point x="590" y="337" type="curve"/>
      <point x="590" y="570" type="line"/>
      <point x="638" y="541"/>
      <point x="666" y="507"/>
      <point x="666" y="457" type="curve" smooth="yes"/>
      <point x="666" y="402"/>
      <point x="646" y="360"/>
    </contour>
    <contour>
      <point x="444" y="926" type="line"/>
      <point x="384" y="959"/>
      <point x="358" y="993"/>
      <point x="358" y="1038" type="curve" smooth="yes"/>
      <point x="358" y="1096"/>
      <point x="376" y="1137"/>
      <point x="444" y="1154" type="curve"/>
    </contour>
  </outline>
</glyph>
<glyph name="percent" format="2">
  <advance width="1720"/>
  <unicode hex="0025"/>
  <outline>
    <contour>
      <point x="371" y="1483" type="curve" smooth="yes"/>
      <point x="168" y="1483"/>
      <point x="49" y="1319"/>
      <point x="49" y="1026" type="curve" smooth="yes"/>
      <point x="49" y="745"/>
      <point x="172" y="565"/>
      <point x="371" y="565" type="curve" smooth="yes"/>
      <point x="580" y="565"/>
      <point x="698" y="733"/>
      <point x="698" y="1026" type="curve" smooth="yes"/>
      <point x="698" y="1305"/>
      <point x="569" y="1483"/>
    </contour>
    <contour>
      <point x="375" y="1253" type="curve" smooth="yes"/>
      <point x="422" y="1253"/>
      <point x="444" y="1182"/>
      <point x="444" y="1022" type="curve" smooth="yes"/>
      <point x="444" y="860"/>
      <point x="422" y="791"/>
      <point x="375" y="791" type="curve" smooth="yes"/>
      <point x="328" y="791"/>
      <point x="303" y="862"/>
      <point x="303" y="1022" type="curve" smooth="yes"/>
      <point x="303" y="1178"/>
      <point x="328" y="1253"/>
    </contour>
    <contour>
      <point x="1280" y="1462" type="line"/>
      <point x="1034" y="1462" type="line"/>
      <point x="434" y="0" type="line"/>
      <point x="680" y="0" type="line"/>
    </contour>
    <contour>
      <point x="1343" y="901" type="curve" smooth="yes"/>
      <point x="1139" y="901"/>
      <point x="1022" y="737"/>
      <point x="1022" y="444" type="curve" smooth="yes"/>
      <point x="1022" y="164"/>
      <point x="1143" y="-16"/>
      <point x="1343" y="-16" type="curve" smooth="yes"/>
      <point x="1550" y="-16"/>
      <point x="1669" y="152"/>
      <point x="1669" y="444" type="curve" smooth="yes"/>
      <point x="1669" y="723"/>
      <point x="1542" y="901"/>
    </contour>
    <contour>
      <point x="1346" y="672" type="curve" smooth="yes"/>
      <point x="1399" y="672"/>
      <point x="1415" y="580"/>
      <point x="1415" y="440" type="curve" smooth="yes"/>
      <point x="1415" y="301"/>
      <point x="1399" y="209"/>
      <point x="1346" y="209" type="curve" smooth="yes"/>
      <point x="1298" y="209"/>
      <point x="1276" y="281"/>
      <point x="1276" y="440" type="curve" smooth="yes"/>
      <point x="1276" y="596"/>
      <point x="1298" y="672"/>
    </contour>
  </outline>
</glyph>
<glyph name="ampersand" format="2">
  <advance width="1317"/>
  <unicode hex="0026"/>
  <outline>
    <contour>
      <point x="563" y="1481" type="curve" smooth="yes"/>
      <point x="326" y="1481"/>
      <point x="172" y="1337"/>
      <point x="172" y="1133" type="curve" smooth="yes"/>
      <point x="172" y="1001"/>
      <point x="213" y="903"/>
      <point x="293" y="807" type="curve"/>
      <point x="127" y="715"/>
      <point x="45" y="582"/>
      <point x="45" y="406" type="curve" smooth="yes"/>
      <point x="45" y="145"/>
      <point x="186" y="-20"/>
      <point x="463" y="-20" type="curve" smooth="yes"/>
      <point x="623" y="-20"/>
      <point x="735" y="16"/>
      <point x="840" y="86" type="curve"/>
      <point x="901" y="0" type="line"/>
      <point x="1327" y="0" type="line"/>
      <point x="1083" y="307" type="line"/>
      <point x="1180" y="465"/>
      <point x="1239" y="645"/>
      <point x="1268" y="821" type="curve"/>
      <point x="918" y="821" type="line"/>
      <point x="901" y="725"/>
      <point x="883" y="649"/>
      <point x="858" y="596" type="curve"/>
      <point x="721" y="768" type="line"/>
      <point x="856" y="868"/>
      <point x="942" y="985"/>
      <point x="942" y="1133" type="curve" smooth="yes"/>
      <point x="942" y="1348"/>
      <point x="809" y="1481"/>
    </contour>
    <contour>
      <point x="453" y="602" type="curve"/>
      <point x="659" y="326" type="line"/>
      <point x="616" y="293"/>
      <point x="578" y="272"/>
      <point x="518" y="272" type="curve" smooth="yes"/>
      <point x="434" y="272"/>
      <point x="387" y="350"/>
      <point x="387" y="426" type="curve" smooth="yes"/>
      <point x="387" y="504"/>
      <point x="408" y="561"/>
    </contour>
    <contour>
      <point x="561" y="1239" type="curve" smooth="yes"/>
      <point x="606" y="1239"/>
      <point x="639" y="1208"/>
      <point x="639" y="1147" type="curve" smooth="yes"/>
      <point x="639" y="1083"/>
      <point x="608" y="1014"/>
      <point x="553" y="971" type="curve"/>
      <point x="506" y="1028"/>
      <point x="483" y="1083"/>
      <point x="483" y="1135" type="curve" smooth="yes"/>
      <point x="483" y="1206"/>
      <point x="518" y="1239"/>
    </contour>
  </outline>
</glyph>
<glyph name="parenleft" format="2">
  <advance width="668"/>
  <unicode hex="0028"/>
  <outline>
    <contour>
      <point x="88" y="582" type="curve" smooth="yes"/>
      <point x="88" y="199"/>
      <point x="199" y="-88"/>
      <point x="360" y="-324" type="curve"/>
      <point x="664" y="-324" type="line"/>
      <point x="498" y="-35"/>
      <point x="403" y="240"/>
      <point x="403" y="584" type="curve" smooth="yes"/>
      <point x="403" y="940"/>
      <point x="487" y="1237"/>
      <point x="664" y="1503" type="curve"/>
      <point x="360" y="1503" type="line"/>
      <point x="207" y="1276"/>
      <point x="88" y="969"/>
    </contour>
  </outline>
</glyph>
<glyph name="comma" format="2">
  <advance width="559"/>
  <unicode hex="002C"/>
  <outline>
    <contour>
      <point x="461" y="299" type="line"/>
      <point x="137" y="299" type="line"/>
      <point x="129" y="145"/>
      <point x="92" y="-127"/>
      <point x="63" y="-285" type="curve"/>
      <point x="338" y="-285" type="line"/>
      <point x="397" y="-135"/>
      <point x="440" y="51"/>
      <point x="471" y="276" type="curve"/>
    </contour>
  </outline>
</glyph>
<glyph name="three" format="2">
  <advance width="1014"/>
  <unicode hex="0033"/>
  <outline>
    <contour>
      <point x="895" y="1102" type="curve" smooth="yes"/>
      <point x="895" y="1358"/>
      <point x="739" y="1483"/>
      <point x="489" y="1483" type="curve" smooth="yes"/>
      <point x="315" y="1483"/>
      <point x="193" y="1446"/>
      <point x="63" y="1346" type="curve"/>
      <point x="188" y="1096" type="line"/>
      <point x="270" y="1157"/>
      <point x="346" y="1188"/>
      <point x="416" y="1188" type="curve" smooth="yes"/>
      <point x="512" y="1188"/>
      <point x="559" y="1149"/>
      <point x="559" y="1065" type="curve" smooth="yes"/>
      <point x="559" y="948"/>
      <point x="477" y="891"/>
      <point x="311" y="891" type="curve" smooth="yes"/>
      <point x="236" y="891" type="line"/>
      <point x="236" y="606" type="line"/>
      <point x="309" y="606" type="line" smooth="yes"/>
      <point x="494" y="606"/>
      <point x="565" y="559"/>
      <point x="565" y="432" type="curve" smooth="yes"/>
      <point x="565" y="324"/>
      <point x="504" y="274"/>
      <point x="367" y="274" type="curve" smooth="yes"/>
      <point x="276" y="274"/>
      <point x="166" y="305"/>
      <point x="61" y="371" type="curve"/>
      <point x="61" y="55" type="line"/>
      <point x="195" y="-4"/>
      <point x="289" y="-20"/>
      <point x="422" y="-20" type="curve" smooth="yes"/>
      <point x="735" y="-20"/>
      <point x="928" y="145"/>
      <point x="928" y="418" type="curve" smooth="yes"/>
      <point x="928" y="608"/>
      <point x="834" y="723"/>
      <point x="643" y="764" type="curve"/>
      <point x="643" y="770" type="line"/>
      <point x="805" y="829"/>
      <point x="895" y="954"/>
    </contour>
  </outline>
</glyph>
<glyph name="four" format="2">
  <advance width="1014"/>
  <unicode hex="0034"/>
  <outline>
    <contour>
      <point x="987" y="283" type="line"/>
      <point x="987" y="563" type="line"/>
      <point x="844" y="563" type="line"/>
      <point x="844" y="1462" type="line"/>
      <point x="516" y="1462" type="line"/>
      <point x="33" y="557" type="line"/>
      <point x="33" y="283" type="line"/>
      <point x="508" y="283" type="line"/>
      <point x="508" y="0" type="line"/>
      <point x="844" y="0" type="line"/>
      <point x="844" y="283" type="line"/>
    </contour>
    <contour>
      <point x="508" y="563" type="line"/>
      <point x="305" y="563" type="line"/>
      <point x="446" y="831" type="line" smooth="yes"/>
      <point x="469" y="872"/>
      <point x="489" y="920"/>
      <point x="506" y="977" type="curve"/>
      <point x="514" y="977" type="line"/>
      <point x="512" y="971"/>
      <point x="508" y="786"/>
      <point x="508" y="762" type="curve" smooth="yes"/>
    </contour>
  </outline>
</glyph>
<glyph name="eight" format="2">
  <advance width="1014"/>
  <unicode hex="0038"/>
  <outline>
    <contour>
      <point x="508" y="1483" type="curve" smooth="yes"/>
      <point x="254" y="1483"/>
      <point x="98" y="1354"/>
      <point x="98" y="1128" type="curve" smooth="yes"/>
      <point x="98" y="985"/>
      <point x="154" y="868"/>
      <point x="283" y="764" type="curve"/>
      <point x="125" y="666"/>
      <point x="61" y="541"/>
      <point x="61" y="385" type="curve" smooth="yes"/>
      <point x="61" y="125"/>
      <point x="219" y="-20"/>
      <point x="504" y="-20" type="curve" smooth="yes"/>
      <point x="784" y="-20"/>
      <point x="950" y="129"/>
      <point x="950" y="389" type="curve" smooth="yes"/>
      <point x="950" y="530"/>
      <point x="889" y="647"/>
      <point x="715" y="770" type="curve"/>
      <point x="854" y="856"/>
      <point x="913" y="971"/>
      <point x="913" y="1126" type="curve" smooth="yes"/>
      <point x="913" y="1354"/>
      <point x="768" y="1483"/>
    </contour>
    <contour>
      <point x="385" y="391" type="curve" smooth="yes"/>
      <point x="385" y="467"/>
      <point x="416" y="530"/>
      <point x="502" y="596" type="curve"/>
      <point x="522" y="580" type="line" smooth="yes"/>
      <point x="610" y="504"/>
      <point x="627" y="446"/>
      <point x="627" y="383" type="curve" smooth="yes"/>
      <point x="627" y="295"/>
      <point x="586" y="250"/>
      <point x="502" y="250" type="curve" smooth="yes"/>
      <point x="424" y="250"/>
      <point x="385" y="303"/>
    </contour>
    <contour>
      <point x="508" y="1212" type="curve" smooth="yes"/>
      <point x="555" y="1212"/>
      <point x="594" y="1169"/>
      <point x="594" y="1102" type="curve" smooth="yes"/>
      <point x="594" y="1040"/>
      <point x="575" y="999"/>
      <point x="504" y="940" type="curve"/>
      <point x="446" y="987"/>
      <point x="420" y="1040"/>
      <point x="420" y="1102" type="curve" smooth="yes"/>
      <point x="420" y="1167"/>
      <point x="455" y="1212"/>
    </contour>
  </outline>
</glyph>
<glyph name="colon" format="2">
  <advance width="573"/>
  <unicode hex="003A"/>
  <outline>
    <contour>
      <point x="100" y="166" type="curve" smooth="yes"/>
      <point x="100" y="45"/>
      <point x="172" y="-25"/>
      <point x="291" y="-25" type="curve" smooth="yes"/>
      <point x="406" y="-25"/>
      <point x="473" y="45"/>
      <point x="473" y="166" type="curve" smooth="yes"/>
      <point x="473" y="289"/>
      <point x="410" y="358"/>
      <point x="291" y="358" type="curve" smooth="yes"/>
      <point x="166" y="358"/>
      <point x="100" y="289"/>
    </contour>
    <contour>
      <point x="100" y="956" type="curve" smooth="yes"/>
      <point x="100" y="836"/>
      <point x="172" y="766"/>
      <point x="291" y="766" type="curve" smooth="yes"/>
      <point x="406" y="766"/>
      <point x="473" y="836"/>
      <point x="473" y="956" type="curve" smooth="yes"/>
      <point x="473" y="1079"/>
      <point x="410" y="1149"/>
      <point x="291" y="1149" type="curve" smooth="yes"/>
      <point x="166" y="1149"/>
      <point x="100" y="1079"/>
    </contour>
  </outline>
</glyph>
<glyph name="semicolon" format="2">
  <advance width="573"/>
  <unicode hex="003B"/>
  <outline>
    <contour>
      <point x="461" y="299" type="line"/>
      <point x="137" y="299" type="line"/>
      <point x="125" y="141"/>
      <point x="94" y="-123"/>
      <point x="61" y="-285" type="curve"/>
      <point x="338" y="-285" type="line"/>
      <point x="395" y="-135"/>
      <point x="440" y="51"/>
      <point x="471" y="276" type="curve"/>
    </contour>
    <contour>
      <point x="100" y="956" type="curve" smooth="yes"/>
      <point x="100" y="836"/>
      <point x="172" y="766"/>
      <point x="291" y="766" type="curve" smooth="yes"/>
      <point x="406" y="766"/>
      <point x="473" y="836"/>
      <point x="473" y="956" type="curve" smooth="yes"/>
      <point x="473" y="1079"/>
      <point x="410" y="1149"/>
      <point x="291" y="1149" type="curve" smooth="yes"/>
      <point x="166" y="1149"/>
      <point x="100" y="1079"/>
    </contour>
  </outline>
</glyph>
<glyph name="question" format="2">
  <advance width="823"/>
  <unicode hex="003F"/>
  <outline>
    <contour>
      <point x="219" y="516" type="line"/>
      <point x="498" y="516" type="line"/>
      <point x="498" y="567" type="line" smooth="yes"/>
      <point x="498" y="627"/>
      <point x="502" y="649"/>
      <point x="604" y="741" type="curve" smooth="yes"/>
      <point x="725" y="848"/>
      <point x="795" y="942"/>
      <point x="795" y="1118" type="curve" smooth="yes"/>
      <point x="795" y="1341"/>
      <point x="653" y="1483"/>
      <point x="387" y="1483" type="curve" smooth="yes"/>
      <point x="258" y="1483"/>
      <point x="129" y="1436"/>
      <point x="0" y="1341" type="curve"/>
      <point x="106" y="1081" type="line"/>
      <point x="201" y="1151"/>
      <point x="283" y="1188"/>
      <point x="354" y="1188" type="curve" smooth="yes"/>
      <point x="434" y="1188"/>
      <point x="471" y="1153"/>
      <point x="471" y="1090" type="curve" smooth="yes"/>
      <point x="471" y="1012"/>
      <point x="440" y="975"/>
      <point x="358" y="901" type="curve" smooth="yes"/>
      <point x="258" y="811"/>
      <point x="219" y="735"/>
      <point x="219" y="602" type="curve" smooth="yes"/>
    </contour>
    <contour>
      <point x="170" y="166" type="curve" smooth="yes"/>
      <point x="170" y="45"/>
      <point x="244" y="-25"/>
      <point x="360" y="-25" type="curve" smooth="yes"/>
      <point x="477" y="-25"/>
      <point x="545" y="45"/>
      <point x="545" y="166" type="curve" smooth="yes"/>
      <point x="545" y="289"/>
      <point x="479" y="358"/>
      <point x="360" y="358" type="curve" smooth="yes"/>
      <point x="238" y="358"/>
      <point x="170" y="289"/>
    </contour>
  </outline>
</glyph>
<glyph name="at" format="2">
  <advance width="1571"/>
  <unicode hex="0040"/>
  <outline>
    <contour>
      <point x="1501" y="756" type="curve" smooth="yes"/>
      <point x="1501" y="1194"/>
      <point x="1223" y="1481"/>
      <point x="811" y="1481" type="curve" smooth="yes"/>
      <point x="373" y="1481"/>
      <point x="70" y="1143"/>
      <point x="70" y="610" type="curve" smooth="yes"/>
      <point x="70" y="133"/>
      <point x="338" y="-154"/>
      <point x="811" y="-154" type="curve" smooth="yes"/>
      <point x="967" y="-154"/>
      <point x="1106" y="-127"/>
      <point x="1231" y="-70" type="curve"/>
      <point x="1231" y="139" type="line"/>
      <point x="1092" y="80"/>
      <point x="936" y="43"/>
      <point x="807" y="43" type="curve" smooth="yes"/>
      <point x="475" y="43"/>
      <point x="305" y="256"/>
      <point x="305" y="618" type="curve" smooth="yes"/>
      <point x="305" y="1022"/>
      <point x="487" y="1286"/>
      <point x="811" y="1286" type="curve" smooth="yes"/>
      <point x="1116" y="1286"/>
      <point x="1270" y="1067"/>
      <point x="1270" y="758" type="curve" smooth="yes"/>
      <point x="1270" y="510"/>
      <point x="1223" y="426"/>
      <point x="1159" y="426" type="curve" smooth="yes"/>
      <point x="1124" y="426"/>
      <point x="1104" y="457"/>
      <point x="1104" y="512" type="curve" smooth="yes"/>
      <point x="1104" y="551"/>
      <point x="1106" y="592"/>
      <point x="1108" y="631" type="curve" smooth="yes"/>
      <point x="1124" y="1053" type="line"/>
      <point x="1036" y="1092"/>
      <point x="926" y="1114"/>
      <point x="836" y="1114" type="curve" smooth="yes"/>
      <point x="590" y="1114"/>
      <point x="434" y="918"/>
      <point x="434" y="639" type="curve" smooth="yes"/>
      <point x="434" y="383"/>
      <point x="543" y="233"/>
      <point x="737" y="233" type="curve" smooth="yes"/>
      <point x="819" y="233"/>
      <point x="889" y="279"/>
      <point x="944" y="373" type="curve"/>
      <point x="958" y="373" type="line"/>
      <point x="991" y="283"/>
      <point x="1067" y="233"/>
      <point x="1174" y="233" type="curve" smooth="yes"/>
      <point x="1360" y="233"/>
      <point x="1501" y="453"/>
    </contour>
    <contour>
      <point x="680" y="637" type="curve" smooth="yes"/>
      <point x="680" y="813"/>
      <point x="741" y="920"/>
      <point x="834" y="920" type="curve" smooth="yes"/>
      <point x="848" y="920"/>
      <point x="862" y="918"/>
      <point x="881" y="911" type="curve"/>
      <point x="872" y="739" type="line" smooth="yes"/>
      <point x="860" y="502"/>
      <point x="834" y="426"/>
      <point x="768" y="426" type="curve" smooth="yes"/>
      <point x="715" y="426"/>
      <point x="680" y="489"/>
    </contour>
  </outline>
</glyph>
<glyph name="G" format="2">
  <advance width="1214"/>
  <unicode hex="0047"/>
  <anchor x="668" y="0" name="bottom"/>
  <anchor x="674" y="1462" name="top"/>
  <anchor x="1174" y="1462" name="topright"/>
  <outline>
    <contour>
      <point x="604" y="856" type="line"/>
      <point x="604" y="565" type="line"/>
      <point x="772" y="565" type="line"/>
      <point x="772" y="297" type="line"/>
      <point x="737" y="287"/>
      <point x="700" y="281"/>
      <point x="664" y="281" type="curve" smooth="yes"/>
      <point x="518" y="281"/>
      <point x="442" y="436"/>
      <point x="442" y="725" type="curve" smooth="yes"/>
      <point x="442" y="1020"/>
      <point x="537" y="1184"/>
      <point x="723" y="1184" type="curve" smooth="yes"/>
      <point x="823" y="1184"/>
      <point x="915" y="1157"/>
      <point x="995" y="1106" type="curve"/>
      <point x="1092" y="1391" type="line"/>
      <point x="995" y="1444"/>
      <point x="862" y="1483"/>
      <point x="711" y="1483" type="curve" smooth="yes"/>
      <point x="313" y="1483"/>
      <point x="80" y="1204"/>
      <point x="80" y="735" type="curve" smooth="yes"/>
      <point x="80" y="252"/>
      <point x="283" y="-20"/>
      <point x="643" y="-20" type="curve" smooth="yes"/>
      <point x="807" y="-20"/>
      <point x="963" y="8"/>
      <point x="1114" y="68" type="curve"/>
      <point x="1114" y="856" type="line"/>
    </contour>
  </outline>
</glyph>
<glyph name="O" format="2">
  <advance width="1272"/>
  <unicode hex="004F"/>
  <anchor x="637" y="0" name="bottom"/>
  <anchor x="637" y="731" name="center"/>
  <anchor x="637" y="1462" name="top"/>
  <anchor x="1231" y="1462" name="topright"/>
  <outline>
    <contour>
      <point x="1192" y="733" type="curve" smooth="yes"/>
      <point x="1192" y="1227"/>
      <point x="1001" y="1485"/>
      <point x="637" y="1485" type="curve" smooth="yes"/>
      <point x="274" y="1485"/>
      <point x="80" y="1223"/>
      <point x="80" y="735" type="curve" smooth="yes"/>
      <point x="80" y="244"/>
      <point x="276" y="-20"/>
      <point x="637" y="-20" type="curve" smooth="yes"/>
      <point x="999" y="-20"/>
      <point x="1192" y="242"/>
    </contour>
    <contour>
      <point x="442" y="733" type="curve" smooth="yes"/>
      <point x="442" y="1034"/>
      <point x="508" y="1186"/>
      <point x="637" y="1186" type="curve" smooth="yes"/>
      <point x="766" y="1186"/>
      <point x="829" y="1042"/>
      <point x="829" y="733" type="curve" smooth="yes"/>
      <point x="829" y="426"/>
      <point x="768" y="285"/>
      <point x="637" y="285" type="curve" smooth="yes"/>
      <point x="508" y="285"/>
      <point x="442" y="434"/>
    </contour>
  </outline>
</glyph>
<glyph name="Q" format="2">
  <advance width="1272"/>
  <unicode hex="0051"/>
  <anchor x="637" y="-348" name="bottom"/>
  <anchor x="637" y="1462" name="top"/>
  <anchor x="1231" y="1462" name="topright"/>
  <outline>
    <contour>
      <point x="1192" y="733" type="curve" smooth="yes"/>
      <point x="1192" y="1227"/>
      <point x="1001" y="1485"/>
      <point x="637" y="1485" type="curve" smooth="yes"/>
      <point x="274" y="1485"/>
      <point x="80" y="1223"/>
      <point x="80" y="735" type="curve" smooth="yes"/>
      <point x="80" y="279"/>
      <point x="264" y="-18"/>
      <point x="604" y="-18" type="curve" smooth="yes"/>
      <point x="608" y="-18"/>
      <point x="614" y="-18"/>
      <point x="618" y="-18" type="curve"/>
      <point x="795" y="-348" type="line"/>
      <point x="1186" y="-348" type="line"/>
      <point x="936" y="61" type="line"/>
      <point x="1104" y="174"/>
      <point x="1192" y="401"/>
    </contour>
    <contour>
      <point x="442" y="733" type="curve" smooth="yes"/>
      <point x="442" y="1034"/>
      <point x="508" y="1186"/>
      <point x="637" y="1186" type="curve" smooth="yes"/>
      <point x="766" y="1186"/>
      <point x="829" y="1042"/>
      <point x="829" y="733" type="curve" smooth="yes"/>
      <point x="829" y="426"/>
      <point x="768" y="285"/>
      <point x="637" y="285" type="curve" smooth="yes"/>
      <point x="508" y="285"/>
      <point x="442" y="434"/>
    </contour>
  </outline>
</glyph>
<glyph name="R" format="2">
  <advance width="1116"/>
  <unicode hex="0052"/>
  <anchor x="580" y="0" name="bottom"/>
  <anchor x="573" y="1462" name="top"/>
  <anchor x="1075" y="1462" name="topright"/>
  <outline>
    <contour>
      <point x="512" y="1462" type="curve" smooth="yes"/>
      <point x="121" y="1462" type="line"/>
      <point x="121" y="0" type="line"/>
      <point x="469" y="0" type="line"/>
      <point x="469" y="549" type="line"/>
      <point x="514" y="549" type="line"/>
      <point x="743" y="0" type="line"/>
      <point x="1126" y="0" type="line"/>
      <point x="821" y="637" type="line"/>
      <point x="954" y="729"/>
      <point x="1020" y="860"/>
      <point x="1020" y="1030" type="curve" smooth="yes"/>
      <point x="1020" y="1319"/>
      <point x="852" y="1462"/>
    </contour>
    <contour>
      <point x="508" y="1171" type="line" smooth="yes"/>
      <point x="610" y="1171"/>
      <point x="662" y="1118"/>
      <point x="662" y="1012" type="curve" smooth="yes"/>
      <point x="662" y="883"/>
      <point x="610" y="819"/>
      <point x="506" y="819" type="curve" smooth="yes"/>
      <point x="469" y="819" type="line"/>
      <point x="469" y="1171" type="line"/>
    </contour>
  </outline>
</glyph>
<glyph name="S" format="2">
  <advance width="930"/>
  <unicode hex="0053"/>
  <anchor x="436" y="0" name="bottom"/>
  <anchor x="496" y="1462" name="top"/>
  <anchor x="889" y="1462" name="topright"/>
  <outline>
    <contour>
      <point x="879" y="444" type="curve" smooth="yes"/>
      <point x="879" y="639"/>
      <point x="784" y="756"/>
      <point x="608" y="864" type="curve" smooth="yes"/>
      <point x="442" y="965"/>
      <point x="418" y="995"/>
      <point x="418" y="1073" type="curve" smooth="yes"/>
      <point x="418" y="1126"/>
      <point x="449" y="1167"/>
      <point x="524" y="1167" type="curve" smooth="yes"/>
      <point x="598" y="1167"/>
      <point x="684" y="1137"/>
      <point x="786" y="1073" type="curve"/>
      <point x="879" y="1378" type="line"/>
      <point x="754" y="1448"/>
      <point x="631" y="1483"/>
      <point x="510" y="1483" type="curve" smooth="yes"/>
      <point x="221" y="1483"/>
      <point x="66" y="1315"/>
      <point x="66" y="1055" type="curve" smooth="yes"/>
      <point x="66" y="821"/>
      <point x="174" y="723"/>
      <point x="346" y="614" type="curve" smooth="yes"/>
      <point x="506" y="514"/>
      <point x="524" y="473"/>
      <point x="524" y="410" type="curve" smooth="yes"/>
      <point x="524" y="346"/>
      <point x="485" y="301"/>
      <point x="399" y="301" type="curve" smooth="yes"/>
      <point x="299" y="301"/>
      <point x="172" y="346"/>
      <point x="57" y="424" type="curve"/>
      <point x="57" y="72" type="line"/>
      <point x="182" y="2"/>
      <point x="293" y="-20"/>
      <point x="420" y="-20" type="curve" smooth="yes"/>
      <point x="700" y="-20"/>
      <point x="879" y="172"/>
    </contour>
  </outline>
</glyph>
<glyph name="T" format="2">
  <advance width="942"/>
  <unicode hex="0054"/>
  <anchor x="471" y="0" name="bottom"/>
  <anchor x="471" y="731" name="center"/>
  <anchor x="471" y="1462" name="top"/>
  <anchor x="901" y="1462" name="topright"/>
  <outline>
    <contour>
      <point x="645" y="0" type="line"/>
      <point x="645" y="1161" type="line"/>
      <point x="907" y="1161" type="line"/>
      <point x="907" y="1462" type="line"/>
      <point x="35" y="1462" type="line"/>
      <point x="35" y="1161" type="line"/>
      <point x="299" y="1161" type="line"/>
      <point x="299" y="0" type="line"/>
    </contour>
  </outline>
</glyph>
<glyph name="W" format="2">
  <advance width="1659"/>
  <unicode hex="0057"/>
  <anchor x="827" y="0" name="bottom"/>
  <anchor x="829" y="1462" name="top"/>
  <anchor x="1618" y="1462" name="topright"/>
  <outline>
    <contour>
      <point x="1659" y="1462" type="line"/>
      <point x="1311" y="1462" type="line"/>
      <point x="1204" y="823" type="line" smooth="yes"/>
      <point x="1180" y="684"/>
      <point x="1157" y="520"/>
      <point x="1149" y="408" type="curve"/>
      <point x="1135" y="539"/>
      <point x="1110" y="715"/>
      <point x="1087" y="821" type="curve" smooth="yes"/>
      <point x="971" y="1462" type="line"/>
      <point x="690" y="1462" type="line"/>
      <point x="561" y="821" type="line" smooth="yes"/>
      <point x="543" y="729"/>
      <point x="514" y="555"/>
      <point x="498" y="408" type="curve"/>
      <point x="483" y="547"/>
      <point x="461" y="725"/>
      <point x="444" y="825" type="curve" smooth="yes"/>
      <point x="340" y="1462" type="line"/>
      <point x="0" y="1462" type="line"/>
      <point x="281" y="0" type="line"/>
      <point x="676" y="0" type="line"/>
      <point x="778" y="549" type="line" smooth="yes"/>
      <point x="801" y="670"/>
      <point x="821" y="836"/>
      <point x="829" y="946" type="curve"/>
      <point x="840" y="811"/>
      <point x="860" y="672"/>
      <point x="883" y="547" type="curve" smooth="yes"/>
      <point x="983" y="0" type="line"/>
      <point x="1382" y="0" type="line"/>
    </contour>
  </outline>
</glyph>
<glyph name="Y" format="2">
  <advance width="1077"/>
  <unicode hex="0059"/>
  <anchor x="539" y="0" name="bottom"/>
  <anchor x="539" y="1462" name="top"/>
  <anchor x="1036" y="1462" name="topright"/>
  <outline>
    <contour>
      <point x="541" y="930" type="line"/>
      <point x="362" y="1462" type="line"/>
      <point x="0" y="1462" type="line"/>
      <point x="365" y="549" type="line"/>
      <point x="365" y="0" type="line"/>
      <point x="713" y="0" type="line"/>
      <point x="713" y="561" type="line"/>
      <point x="1077" y="1462" type="line"/>
      <point x="719" y="1462" type="line"/>
    </contour>
  </outline>
</glyph>
<glyph name="Z" format="2">
  <advance width="965"/>
  <unicode hex="005A"/>
  <anchor x="500" y="0" name="bottom"/>
  <anchor x="483" y="1462" name="top"/>
  <anchor x="924" y="1462" name="topright"/>
  <outline>
    <contour>
      <point x="922" y="0" type="line"/>
      <point x="922" y="299" type="line"/>
      <point x="422" y="299" type="line"/>
      <point x="909" y="1219" type="line"/>
      <point x="909" y="1462" type="line"/>
      <point x="53" y="1462" type="line"/>
      <point x="53" y="1167" type="line"/>
      <point x="532" y="1167" type="line"/>
      <point x="43" y="244" type="line"/>
      <point x="43" y="0" type="line"/>
    </contour>
  </outline>
</glyph>
<glyph name="b" format="2">
  <advance width="1073"/>
  <unicode hex="0062"/>
  <anchor x="573" y="0" name="bottom"/>
  <anchor x="543" y="1556" name="top"/>
  <anchor x="991" y="1556" name="topright"/>
  <outline>
    <contour>
      <point x="434" y="1556" type="line"/>
      <point x="102" y="1556" type="line"/>
      <point x="102" y="0" type="line"/>
      <point x="369" y="0" type="line"/>
      <point x="418" y="111" type="line"/>
      <point x="434" y="111" type="line"/>
      <point x="514" y="6"/>
      <point x="571" y="-20"/>
      <point x="672" y="-20" type="curve" smooth="yes"/>
      <point x="885" y="-20"/>
      <point x="1008" y="207"/>
      <point x="1008" y="569" type="curve" smooth="yes"/>
      <point x="1008" y="932"/>
      <point x="881" y="1153"/>
      <point x="680" y="1153" type="curve" smooth="yes"/>
      <point x="578" y="1153"/>
      <point x="496" y="1104"/>
      <point x="434" y="987" type="curve"/>
      <point x="424" y="987" type="line"/>
      <point x="430" y="1090"/>
      <point x="434" y="1161"/>
      <point x="434" y="1204" type="curve" smooth="yes"/>
    </contour>
    <contour>
      <point x="559" y="868" type="curve" smooth="yes"/>
      <point x="635" y="868"/>
      <point x="672" y="770"/>
      <point x="672" y="573" type="curve" smooth="yes"/>
      <point x="672" y="358"/>
      <point x="633" y="256"/>
      <point x="561" y="256" type="curve" smooth="yes"/>
      <point x="471" y="256"/>
      <point x="434" y="340"/>
      <point x="434" y="543" type="curve" smooth="yes"/>
      <point x="434" y="608" type="line" smooth="yes"/>
      <point x="434" y="788"/>
      <point x="471" y="868"/>
    </contour>
  </outline>
</glyph>
<glyph name="i" format="2">
  <advance width="543"/>
  <unicode hex="0069"/>
  <anchor x="276" y="0" name="bottom"/>
  <anchor x="272" y="1589" name="top"/>
  <anchor x="502" y="1589" name="topright"/>
  <outline>
    <contour>
      <point x="436" y="1133" type="line"/>
      <point x="104" y="1133" type="line"/>
      <point x="104" y="0" type="line"/>
      <point x="436" y="0" type="line"/>
    </contour>
    <contour>
      <point x="270" y="1589" type="curve" smooth="yes"/>
      <point x="147" y="1589"/>
      <point x="94" y="1532"/>
      <point x="94" y="1415" type="curve" smooth="yes"/>
      <point x="94" y="1300"/>
      <point x="154" y="1243"/>
      <point x="270" y="1243" type="curve" smooth="yes"/>
      <point x="387" y="1243"/>
      <point x="446" y="1300"/>
      <point x="446" y="1415" type="curve" smooth="yes"/>
      <point x="446" y="1530"/>
      <point x="393" y="1589"/>
    </contour>
  </outline>
</glyph>
<glyph name="k" format="2">
  <advance width="1067"/>
  <unicode hex="006B"/>
  <anchor x="561" y="0" name="bottom"/>
  <anchor x="268" y="1556" name="top"/>
  <anchor x="1077" y="1556" name="topright"/>
  <outline>
    <contour>
      <point x="434" y="1556" type="line"/>
      <point x="102" y="1556" type="line"/>
      <point x="102" y="0" type="line"/>
      <point x="434" y="0" type="line"/>
      <point x="434" y="330" type="line"/>
      <point x="530" y="412" type="line"/>
      <point x="713" y="0" type="line"/>
      <point x="1077" y="0" type="line"/>
      <point x="760" y="651" type="line"/>
      <point x="1065" y="1133" type="line"/>
      <point x="709" y="1133" type="line"/>
      <point x="512" y="799" type="line" smooth="yes"/>
      <point x="487" y="756"/>
      <point x="455" y="696"/>
      <point x="426" y="633" type="curve"/>
      <point x="420" y="633" type="line"/>
      <point x="430" y="731"/>
      <point x="434" y="834"/>
      <point x="434" y="938" type="curve" smooth="yes"/>
    </contour>
  </outline>
</glyph>
<glyph name="l" format="2">
  <advance width="539"/>
  <unicode hex="006C"/>
  <anchor x="270" y="0" name="bottom"/>
  <anchor x="270" y="567" name="center"/>
  <anchor x="270" y="1556" name="top"/>
  <anchor x="475" y="1556" name="topright"/>
  <outline>
    <contour>
      <point x="434" y="0" type="line"/>
      <point x="434" y="1556" type="line"/>
      <point x="102" y="1556" type="line"/>
      <point x="102" y="0" type="line"/>
    </contour>
  </outline>
</glyph>
<glyph name="m" format="2">
  <advance width="1616"/>
  <unicode hex="006D"/>
  <anchor x="811" y="0" name="bottom"/>
  <anchor x="844" y="1133" name="top"/>
  <anchor x="1556" y="1133" name="topright"/>
  <outline>
    <contour>
      <point x="1212" y="1153" type="curve" smooth="yes"/>
      <point x="1092" y="1153"/>
      <point x="1010" y="1098"/>
      <point x="958" y="1004" type="curve"/>
      <point x="936" y="1004" type="line"/>
      <point x="901" y="1090"/>
      <point x="825" y="1153"/>
      <point x="692" y="1153" type="curve" smooth="yes"/>
      <point x="561" y="1153"/>
      <point x="461" y="1098"/>
      <point x="418" y="993" type="curve"/>
      <point x="399" y="993" type="line"/>
      <point x="362" y="1133" type="line"/>
      <point x="102" y="1133" type="line"/>
      <point x="102" y="0" type="line"/>
      <point x="434" y="0" type="line"/>
      <point x="434" y="508" type="line" smooth="yes"/>
      <point x="434" y="756"/>
      <point x="463" y="858"/>
      <point x="555" y="858" type="curve" smooth="yes"/>
      <point x="616" y="858"/>
      <point x="643" y="780"/>
      <point x="643" y="629" type="curve" smooth="yes"/>
      <point x="643" y="0" type="line"/>
      <point x="975" y="0" type="line"/>
      <point x="975" y="541" type="line" smooth="yes"/>
      <point x="975" y="760"/>
      <point x="1001" y="858"/>
      <point x="1094" y="858" type="curve" smooth="yes"/>
      <point x="1155" y="858"/>
      <point x="1184" y="780"/>
      <point x="1184" y="629" type="curve" smooth="yes"/>
      <point x="1184" y="0" type="line"/>
      <point x="1516" y="0" type="line"/>
      <point x="1516" y="737" type="line" smooth="yes"/>
      <point x="1516" y="1018"/>
      <point x="1415" y="1153"/>
    </contour>
  </outline>
</glyph>
<glyph name="q" format="2">
  <advance width="1073"/>
  <unicode hex="0071"/>
  <anchor x="805" y="-492" name="bottom"/>
  <anchor x="537" y="1133" name="top"/>
  <anchor x="1012" y="1133" name="topright"/>
  <outline>
    <contour>
      <point x="639" y="-492" type="line"/>
      <point x="971" y="-492" type="line"/>
      <point x="971" y="1133" type="line"/>
      <point x="684" y="1133" type="line"/>
      <point x="657" y="991" type="line"/>
      <point x="639" y="991" type="line"/>
      <point x="575" y="1114"/>
      <point x="510" y="1153"/>
      <point x="403" y="1153" type="curve" smooth="yes"/>
      <point x="190" y="1153"/>
      <point x="66" y="928"/>
      <point x="66" y="557" type="curve" smooth="yes"/>
      <point x="66" y="203"/>
      <point x="190" y="-20"/>
      <point x="393" y="-20" type="curve" smooth="yes"/>
      <point x="498" y="-20"/>
      <point x="578" y="29"/>
      <point x="639" y="145" type="curve"/>
      <point x="649" y="145" type="line"/>
      <point x="643" y="43"/>
      <point x="639" y="-29"/>
      <point x="639" y="-72" type="curve" smooth="yes"/>
    </contour>
    <contour>
      <point x="514" y="264" type="curve" smooth="yes"/>
      <point x="440" y="264"/>
      <point x="401" y="360"/>
      <point x="401" y="553" type="curve" smooth="yes"/>
      <point x="401" y="768"/>
      <point x="442" y="868"/>
      <point x="512" y="868" type="curve" smooth="yes"/>
      <point x="602" y="868"/>
      <point x="639" y="786"/>
      <point x="639" y="584" type="curve" smooth="yes"/>
      <point x="639" y="524" type="line" smooth="yes"/>
      <point x="639" y="344"/>
      <point x="602" y="264"/>
    </contour>
  </outline>
</glyph>
<glyph name="t" format="2">
  <advance width="725"/>
  <unicode hex="0074"/>
  <anchor x="426" y="0" name="bottom"/>
  <anchor x="362" y="567" name="center"/>
  <anchor x="334" y="1360" name="top"/>
  <anchor x="674" y="1360" name="topright"/>
  <outline>
    <contour>
      <point x="543" y="266" type="curve" smooth="yes"/>
      <point x="487" y="266"/>
      <point x="461" y="303"/>
      <point x="461" y="377" type="curve" smooth="yes"/>
      <point x="461" y="860" type="line"/>
      <point x="674" y="860" type="line"/>
      <point x="674" y="1133" type="line"/>
      <point x="461" y="1133" type="line"/>
      <point x="461" y="1360" type="line"/>
      <point x="236" y="1360" type="line"/>
      <point x="158" y="1122" type="line"/>
      <point x="14" y="1036" type="line"/>
      <point x="14" y="860" type="line"/>
      <point x="129" y="860" type="line"/>
      <point x="129" y="373" type="line" smooth="yes"/>
      <point x="129" y="106"/>
      <point x="219" y="-20"/>
      <point x="442" y="-20" type="curve" smooth="yes"/>
      <point x="535" y="-20"/>
      <point x="614" y="2"/>
      <point x="688" y="43" type="curve"/>
      <point x="688" y="305" type="line"/>
      <point x="633" y="281"/>
      <point x="584" y="266"/>
    </contour>
  </outline>
</glyph>
<glyph name="y" format="2">
  <advance width="1006"/>
  <unicode hex="0079"/>
  <anchor x="268" y="-492" name="bottom"/>
  <anchor x="504" y="1133" name="top"/>
  <anchor x="965" y="1133" name="topright"/>
  <outline>
    <contour>
      <point x="4" y="1133" type="line"/>
      <point x="346" y="16" type="line"/>
      <point x="340" y="-4" type="line" smooth="yes"/>
      <point x="289" y="-170"/>
      <point x="268" y="-197"/>
      <point x="186" y="-197" type="curve" smooth="yes"/>
      <point x="160" y="-197"/>
      <point x="131" y="-193"/>
      <point x="104" y="-184" type="curve"/>
      <point x="104" y="-475" type="line"/>
      <point x="147" y="-485"/>
      <point x="195" y="-492"/>
      <point x="248" y="-492" type="curve" smooth="yes"/>
      <point x="453" y="-492"/>
      <point x="571" y="-381"/>
      <point x="659" y="-72" type="curve" smooth="yes"/>
      <point x="1001" y="1133" type="line"/>
      <point x="657" y="1133" type="line"/>
      <point x="547" y="637" type="line" smooth="yes"/>
      <point x="526" y="553"/>
      <point x="516" y="496"/>
      <point x="512" y="451" type="curve"/>
      <point x="504" y="451" type="line"/>
      <point x="502" y="498"/>
      <point x="487" y="571"/>
      <point x="471" y="641" type="curve" smooth="yes"/>
      <point x="352" y="1133" type="line"/>
    </contour>
  </outline>
</glyph>
<glyph name="z" format="2">
  <advance width="813"/>
  <unicode hex="007A"/>
  <anchor x="406" y="0" name="bottom"/>
  <anchor x="418" y="1133" name="top"/>
  <anchor x="764" y="1133" name="topright"/>
  <outline>
    <contour>
      <point x="778" y="0" type="line"/>
      <point x="778" y="276" type="line"/>
      <point x="420" y="276" type="line"/>
      <point x="762" y="913" type="line"/>
      <point x="762" y="1133" type="line"/>
      <point x="53" y="1133" type="line"/>
      <point x="53" y="856" type="line"/>
      <point x="391" y="856" type="line"/>
      <point x="33" y="201" type="line"/>
      <point x="33" y="0" type="line"/>
    </contour>
  </outline>
</glyph>
<glyph name="braceleft" format="2">
  <advance width="752"/>
  <unicode hex="007B"/>
  <outline>
    <contour>
      <point x="711" y="-344" type="curve"/>
      <point x="711" y="-80" type="line"/>
      <point x="582" y="-76"/>
      <point x="547" y="-49"/>
      <point x="547" y="29" type="curve" smooth="yes"/>
      <point x="547" y="317" type="line" smooth="yes"/>
      <point x="547" y="461"/>
      <point x="494" y="537"/>
      <point x="362" y="563" type="curve"/>
      <point x="362" y="575" type="line"/>
      <point x="492" y="598"/>
      <point x="547" y="676"/>
      <point x="547" y="827" type="curve" smooth="yes"/>
      <point x="547" y="1112" type="line" smooth="yes"/>
      <point x="547" y="1208"/>
      <point x="608" y="1214"/>
      <point x="711" y="1219" type="curve"/>
      <point x="711" y="1483" type="line"/>
      <point x="322" y="1483"/>
      <point x="233" y="1395"/>
      <point x="233" y="1143" type="curve" smooth="yes"/>
      <point x="233" y="870" type="line" smooth="yes"/>
      <point x="233" y="764"/>
      <point x="170" y="700"/>
      <point x="27" y="700" type="curve"/>
      <point x="27" y="436" type="line"/>
      <point x="166" y="436"/>
      <point x="233" y="373"/>
      <point x="233" y="266" type="curve" smooth="yes"/>
      <point x="233" y="0" type="line" smooth="yes"/>
      <point x="233" y="-283"/>
      <point x="354" y="-344"/>
    </contour>
  </outline>
</glyph>
<glyph name="braceright" format="2">
  <advance width="752"/>
  <unicode hex="007D"/>
  <outline>
    <contour>
      <point x="41" y="-344" type="line"/>
      <point x="430" y="-344"/>
      <point x="516" y="-256"/>
      <point x="516" y="0" type="curve" smooth="yes"/>
      <point x="516" y="266" type="line" smooth="yes"/>
      <point x="516" y="373"/>
      <point x="586" y="436"/>
      <point x="725" y="436" type="curve"/>
      <point x="725" y="700" type="line"/>
      <point x="582" y="700"/>
      <point x="516" y="764"/>
      <point x="516" y="870" type="curve" smooth="yes"/>
      <point x="516" y="1143" type="line" smooth="yes"/>
      <point x="516" y="1415"/>
      <point x="401" y="1483"/>
      <point x="41" y="1483" type="curve"/>
      <point x="41" y="1219" type="line"/>
      <point x="129" y="1214"/>
      <point x="205" y="1210"/>
      <point x="205" y="1112" type="curve" smooth="yes"/>
      <point x="205" y="827" type="line" smooth="yes"/>
      <point x="205" y="676"/>
      <point x="258" y="598"/>
      <point x="387" y="575" type="curve"/>
      <point x="387" y="563" type="line"/>
      <point x="256" y="537"/>
      <point x="205" y="461"/>
      <point x="205" y="317" type="curve" smooth="yes"/>
      <point x="205" y="29" type="line" smooth="yes"/>
      <point x="205" y="-55"/>
      <point x="166" y="-74"/>
      <point x="41" y="-80" type="curve"/>
    </contour>
  </outline>
</glyph>
<glyph name="sterling" format="2">
  <advance width="1014"/>
  <unicode hex="00A3"/>
  <outline>
    <contour>
      <point x="606" y="1483" type="curve" smooth="yes"/>
      <point x="362" y="1483"/>
      <point x="217" y="1329"/>
      <point x="217" y="1042" type="curve" smooth="yes"/>
      <point x="217" y="879" type="line"/>
      <point x="90" y="879" type="line"/>
      <point x="90" y="629" type="line"/>
      <point x="217" y="629" type="line"/>
      <point x="217" y="524" type="line" smooth="yes"/>
      <point x="217" y="393"/>
      <point x="182" y="348"/>
      <point x="90" y="287" type="curve"/>
      <point x="90" y="0" type="line"/>
      <point x="944" y="0" type="line"/>
      <point x="944" y="299" type="line"/>
      <point x="420" y="299" type="line"/>
      <point x="510" y="350"/>
      <point x="555" y="426"/>
      <point x="555" y="526" type="curve" smooth="yes"/>
      <point x="555" y="629" type="line"/>
      <point x="817" y="629" type="line"/>
      <point x="817" y="879" type="line"/>
      <point x="555" y="879" type="line"/>
      <point x="555" y="1044" type="line" smooth="yes"/>
      <point x="555" y="1139"/>
      <point x="582" y="1182"/>
      <point x="639" y="1182" type="curve" smooth="yes"/>
      <point x="692" y="1182"/>
      <point x="758" y="1163"/>
      <point x="834" y="1126" type="curve"/>
      <point x="918" y="1401" type="line"/>
      <point x="817" y="1456"/>
      <point x="715" y="1483"/>
    </contour>
  </outline>
</glyph>
<glyph name="yen" format="2">
  <advance width="1014"/>
  <unicode hex="00A5"/>
  <outline>
    <contour>
      <point x="508" y="961" type="line"/>
      <point x="358" y="1462" type="line"/>
      <point x="0" y="1462" type="line"/>
      <point x="283" y="752" type="line"/>
      <point x="86" y="752" type="line"/>
      <point x="86" y="541" type="line"/>
      <point x="340" y="541" type="line"/>
      <point x="340" y="422" type="line"/>
      <point x="86" y="422" type="line"/>
      <point x="86" y="211" type="line"/>
      <point x="340" y="211" type="line"/>
      <point x="340" y="0" type="line"/>
      <point x="676" y="0" type="line"/>
      <point x="676" y="211" type="line"/>
      <point x="928" y="211" type="line"/>
      <point x="928" y="422" type="line"/>
      <point x="676" y="422" type="line"/>
      <point x="676" y="541" type="line"/>
      <point x="928" y="541" type="line"/>
      <point x="928" y="752" type="line"/>
      <point x="727" y="752" type="line"/>
      <point x="1014" y="1462" type="line"/>
      <point x="653" y="1462" type="line"/>
    </contour>
  </outline>
</glyph>
<glyph name="dieresis" format="2">
  <advance width="942"/>
  <unicode hex="00A8"/>
  <outline>
    <contour>
      <point x="125" y="1413" type="curve" smooth="yes"/>
      <point x="125" y="1315"/>
      <point x="182" y="1257"/>
      <point x="270" y="1257" type="curve" smooth="yes"/>
      <point x="362" y="1257"/>
      <point x="420" y="1319"/>
      <point x="420" y="1413" type="curve" smooth="yes"/>
      <point x="420" y="1509"/>
      <point x="362" y="1571"/>
      <point x="270" y="1571" type="curve" smooth="yes"/>
      <point x="182" y="1571"/>
      <point x="125" y="1513"/>
    </contour>
    <contour>
      <point x="520" y="1413" type="curve" smooth="yes"/>
      <point x="520" y="1317"/>
      <point x="575" y="1257"/>
      <point x="668" y="1257" type="curve" smooth="yes"/>
      <point x="762" y="1257"/>
      <point x="817" y="1319"/>
      <point x="817" y="1413" type="curve" smooth="yes"/>
      <point x="817" y="1509"/>
      <point x="762" y="1571"/>
      <point x="668" y="1571" type="curve" smooth="yes"/>
      <point x="578" y="1571"/>
      <point x="520" y="1513"/>
    </contour>
  </outline>
</glyph>
<glyph name="ordfeminine" format="2">
  <advance width="715"/>
  <unicode hex="00AA"/>
  <anchor x="342" y="735" name="bottom"/>
  <anchor x="342" y="1485" name="top"/>
  <outline>
    <contour>
      <point x="381" y="1479" type="curve" smooth="yes"/>
      <point x="264" y="1479"/>
      <point x="172" y="1450"/>
      <point x="78" y="1399" type="curve"/>
      <point x="143" y="1233" type="line"/>
      <point x="207" y="1266"/>
      <point x="262" y="1294"/>
      <point x="330" y="1294" type="curve" smooth="yes"/>
      <point x="389" y="1294"/>
      <point x="410" y="1268"/>
      <point x="410" y="1212" type="curve" smooth="yes"/>
      <point x="410" y="1206" type="line"/>
      <point x="342" y="1202" type="line" smooth="yes"/>
      <point x="172" y="1194"/>
      <point x="41" y="1149"/>
      <point x="41" y="967" type="curve" smooth="yes"/>
      <point x="41" y="846"/>
      <point x="106" y="729"/>
      <point x="236" y="729" type="curve" smooth="yes"/>
      <point x="340" y="729"/>
      <point x="403" y="780"/>
      <point x="438" y="858" type="curve"/>
      <point x="477" y="741" type="line"/>
      <point x="639" y="741" type="line"/>
      <point x="639" y="1190" type="line" smooth="yes"/>
      <point x="639" y="1374"/>
      <point x="541" y="1479"/>
    </contour>
    <contour>
      <point x="410" y="1069" type="line"/>
      <point x="410" y="1047" type="line" smooth="yes"/>
      <point x="410" y="969"/>
      <point x="379" y="911"/>
      <point x="332" y="911" type="curve" smooth="yes"/>
      <point x="293" y="911"/>
      <point x="270" y="936"/>
      <point x="270" y="979" type="curve" smooth="yes"/>
      <point x="270" y="1030"/>
      <point x="299" y="1057"/>
      <point x="354" y="1063" type="curve" smooth="yes"/>
    </contour>
  </outline>
</glyph>
<glyph name="guillemotleft" format="2">
  <advance width="1147"/>
  <unicode hex="00AB"/>
  <outline>
    <contour>
      <point x="45" y="588" type="line"/>
      <point x="45" y="559" type="line"/>
      <point x="362" y="86" type="line"/>
      <point x="602" y="213" type="line"/>
      <point x="395" y="573" type="line"/>
      <point x="602" y="936" type="line"/>
      <point x="362" y="1063" type="line"/>
    </contour>
    <contour>
      <point x="535" y="588" type="line"/>
      <point x="535" y="559" type="line"/>
      <point x="852" y="86" type="line"/>
      <point x="1092" y="213" type="line"/>
      <point x="887" y="573" type="line"/>
      <point x="1092" y="936" type="line"/>
      <point x="852" y="1063" type="line"/>
    </contour>
  </outline>
</glyph>
<glyph name="acute" format="2">
  <advance width="696"/>
  <unicode hex="00B4"/>
  <outline>
    <contour>
      <point x="614" y="1569" type="line"/>
      <point x="242" y="1569" type="line"/>
      <point x="199" y="1479"/>
      <point x="147" y="1378"/>
      <point x="82" y="1270" type="curve"/>
      <point x="82" y="1241" type="line"/>
      <point x="326" y="1241" type="line"/>
      <point x="428" y="1337"/>
      <point x="557" y="1479"/>
      <point x="614" y="1548" type="curve"/>
    </contour>
  </outline>
</glyph>
<glyph name="micro" format="2">
  <advance width="1083"/>
  <unicode hex="00B5"/>
  <outline>
    <contour>
      <point x="981" y="1133" type="line"/>
      <point x="649" y="1133" type="line"/>
      <point x="649" y="614" type="line" smooth="yes"/>
      <point x="649" y="432"/>
      <point x="639" y="274"/>
      <point x="520" y="274" type="curve" smooth="yes"/>
      <point x="455" y="274"/>
      <point x="432" y="352"/>
      <point x="432" y="504" type="curve" smooth="yes"/>
      <point x="432" y="1133" type="line"/>
      <point x="100" y="1133" type="line"/>
      <point x="100" y="-492" type="line"/>
      <point x="432" y="-492" type="line"/>
      <point x="432" y="-172" type="line" smooth="yes"/>
      <point x="432" y="-82"/>
      <point x="428" y="4"/>
      <point x="424" y="63" type="curve"/>
      <point x="428" y="63" type="line"/>
      <point x="453" y="6"/>
      <point x="477" y="-20"/>
      <point x="528" y="-20" type="curve" smooth="yes"/>
      <point x="588" y="-20"/>
      <point x="641" y="39"/>
      <point x="672" y="141" type="curve"/>
      <point x="684" y="141" type="line"/>
      <point x="723" y="0" type="line"/>
      <point x="981" y="0" type="line"/>
    </contour>
  </outline>
</glyph>
<glyph name="cedilla" format="2">
  <advance width="293"/>
  <unicode hex="00B8"/>
  <outline>
    <contour>
      <point x="367" y="-258" type="curve" smooth="yes"/>
      <point x="367" y="-156"/>
      <point x="295" y="-86"/>
      <point x="176" y="-70" type="curve"/>
      <point x="205" y="0" type="line"/>
      <point x="49" y="0" type="line"/>
      <point x="-20" y="-170" type="line"/>
      <point x="63" y="-174"/>
      <point x="115" y="-201"/>
      <point x="115" y="-248" type="curve" smooth="yes"/>
      <point x="115" y="-287"/>
      <point x="88" y="-305"/>
      <point x="39" y="-305" type="curve" smooth="yes"/>
      <point x="8" y="-305"/>
      <point x="-29" y="-299"/>
      <point x="-74" y="-289" type="curve"/>
      <point x="-74" y="-473" type="line"/>
      <point x="-23" y="-485"/>
      <point x="37" y="-492"/>
      <point x="104" y="-492" type="curve" smooth="yes"/>
      <point x="274" y="-492"/>
      <point x="367" y="-401"/>
    </contour>
  </outline>
</glyph>
<glyph name="ordmasculine" format="2">
  <advance width="700"/>
  <unicode hex="00BA"/>
  <anchor x="336" y="737" name="bottom"/>
  <anchor x="348" y="1485" name="top"/>
  <outline>
    <contour>
      <point x="655" y="1104" type="curve" smooth="yes"/>
      <point x="655" y="1339"/>
      <point x="532" y="1479"/>
      <point x="350" y="1479" type="curve" smooth="yes"/>
      <point x="162" y="1479"/>
      <point x="43" y="1339"/>
      <point x="43" y="1104" type="curve" smooth="yes"/>
      <point x="43" y="881"/>
      <point x="160" y="729"/>
      <point x="348" y="729" type="curve" smooth="yes"/>
      <point x="541" y="729"/>
      <point x="655" y="872"/>
    </contour>
    <contour>
      <point x="274" y="1104" type="curve" smooth="yes"/>
      <point x="274" y="1227"/>
      <point x="299" y="1288"/>
      <point x="350" y="1288" type="curve" smooth="yes"/>
      <point x="401" y="1288"/>
      <point x="426" y="1227"/>
      <point x="426" y="1104" type="curve" smooth="yes"/>
      <point x="426" y="981"/>
      <point x="401" y="922"/>
      <point x="350" y="922" type="curve" smooth="yes"/>
      <point x="299" y="922"/>
      <point x="274" y="981"/>
    </contour>
  </outline>
</glyph>
<glyph name="guillemotright" format="2">
  <advance width="1147"/>
  <unicode hex="00BB"/>
  <outline>
    <contour>
      <point x="1102" y="559" type="line"/>
      <point x="1102" y="588" type="line"/>
      <point x="784" y="1063" type="line"/>
      <point x="545" y="936" type="line"/>
      <point x="752" y="573" type="line"/>
      <point x="545" y="213" type="line"/>
      <point x="784" y="86" type="line"/>
    </contour>
    <contour>
      <point x="612" y="559" type="line"/>
      <point x="612" y="588" type="line"/>
      <point x="295" y="1063" type="line"/>
      <point x="55" y="936" type="line"/>
      <point x="260" y="573" type="line"/>
      <point x="55" y="213" type="line"/>
      <point x="295" y="86" type="line"/>
    </contour>
  </outline>
</glyph>
<glyph name="onequarter" format="2">
  <advance width="1741"/>
  <unicode hex="00BC"/>
  <outline>
    <contour>
      <point x="408" y="0" type="line"/>
      <point x="668" y="0" type="line"/>
      <point x="1374" y="1462" type="line"/>
      <point x="1114" y="1462" type="line"/>
    </contour>
    <contour>
      <point x="311" y="586" type="line"/>
      <point x="553" y="586" type="line"/>
      <point x="553" y="1462" type="line"/>
      <point x="360" y="1462" type="line"/>
      <point x="66" y="1204" type="line"/>
      <point x="180" y="1049" type="line"/>
      <point x="272" y="1124" type="line" smooth="yes"/>
      <point x="285" y="1135"/>
      <point x="301" y="1149"/>
      <point x="319" y="1169" type="curve"/>
      <point x="311" y="1087"/>
      <point x="311" y="1016"/>
      <point x="311" y="942" type="curve" smooth="yes"/>
    </contour>
    <contour>
      <point x="1374" y="0" type="line"/>
      <point x="1610" y="0" type="line"/>
      <point x="1610" y="139" type="line"/>
      <point x="1718" y="139" type="line"/>
      <point x="1718" y="330" type="line"/>
      <point x="1610" y="330" type="line"/>
      <point x="1610" y="877" type="line"/>
      <point x="1346" y="877" type="line"/>
      <point x="1049" y="317" type="line"/>
      <point x="1049" y="139" type="line"/>
      <point x="1374" y="139" type="line"/>
    </contour>
    <contour>
      <point x="1237" y="330" type="line"/>
      <point x="1327" y="502" type="line" smooth="yes"/>
      <point x="1339" y="524"/>
      <point x="1358" y="567"/>
      <point x="1380" y="635" type="curve"/>
      <point x="1376" y="592"/>
      <point x="1374" y="547"/>
      <point x="1374" y="500" type="curve" smooth="yes"/>
      <point x="1374" y="330" type="line"/>
    </contour>
  </outline>
</glyph>
<glyph name="onehalf" format="2">
  <advance width="1741"/>
  <unicode hex="00BD"/>
  <outline>
    <contour>
      <point x="373" y="0" type="line"/>
      <point x="633" y="0" type="line"/>
      <point x="1339" y="1462" type="line"/>
      <point x="1079" y="1462" type="line"/>
    </contour>
    <contour>
      <point x="311" y="586" type="line"/>
      <point x="553" y="586" type="line"/>
      <point x="553" y="1462" type="line"/>
      <point x="360" y="1462" type="line"/>
      <point x="66" y="1204" type="line"/>
      <point x="180" y="1049" type="line"/>
      <point x="272" y="1124" type="line" smooth="yes"/>
      <point x="285" y="1135"/>
      <point x="301" y="1149"/>
      <point x="319" y="1169" type="curve"/>
      <point x="311" y="1087"/>
      <point x="311" y="1016"/>
      <point x="311" y="942" type="curve" smooth="yes"/>
    </contour>
    <contour>
      <point x="1092" y="0" type="line"/>
      <point x="1667" y="0" type="line"/>
      <point x="1667" y="205" type="line"/>
      <point x="1356" y="205" type="line"/>
      <point x="1497" y="352" type="line" smooth="yes"/>
      <point x="1571" y="430"/>
      <point x="1640" y="512"/>
      <point x="1640" y="662" type="curve" smooth="yes"/>
      <point x="1640" y="795"/>
      <point x="1542" y="899"/>
      <point x="1366" y="899" type="curve" smooth="yes"/>
      <point x="1239" y="899"/>
      <point x="1126" y="834"/>
      <point x="1079" y="764" type="curve"/>
      <point x="1188" y="608" type="line"/>
      <point x="1235" y="668"/>
      <point x="1280" y="696"/>
      <point x="1329" y="696" type="curve" smooth="yes"/>
      <point x="1376" y="696"/>
      <point x="1403" y="668"/>
      <point x="1403" y="625" type="curve" smooth="yes"/>
      <point x="1403" y="567"/>
      <point x="1378" y="520"/>
      <point x="1278" y="412" type="curve" smooth="yes"/>
      <point x="1092" y="207" type="line"/>
    </contour>
  </outline>
</glyph>
<glyph name="threequarters" format="2">
  <advance width="1741"/>
  <unicode hex="00BE"/>
  <outline>
    <contour>
      <point x="397" y="0" type="line"/>
      <point x="657" y="0" type="line"/>
      <point x="1364" y="1462" type="line"/>
      <point x="1104" y="1462" type="line"/>
    </contour>
    <contour>
      <point x="315" y="569" type="curve" smooth="yes"/>
      <point x="502" y="569"/>
      <point x="637" y="664"/>
      <point x="637" y="823" type="curve" smooth="yes"/>
      <point x="637" y="938"/>
      <point x="580" y="1006"/>
      <point x="481" y="1038" type="curve"/>
      <point x="481" y="1047" type="line"/>
      <point x="569" y="1090"/>
      <point x="614" y="1161"/>
      <point x="614" y="1266" type="curve" smooth="yes"/>
      <point x="614" y="1401"/>
      <point x="498" y="1481"/>
      <point x="336" y="1481" type="curve" smooth="yes"/>
      <point x="233" y="1481"/>
      <point x="139" y="1440"/>
      <point x="55" y="1360" type="curve"/>
      <point x="154" y="1206" type="line"/>
      <point x="213" y="1260"/>
      <point x="256" y="1280"/>
      <point x="313" y="1280" type="curve" smooth="yes"/>
      <point x="371" y="1280"/>
      <point x="391" y="1249"/>
      <point x="391" y="1202" type="curve" smooth="yes"/>
      <point x="391" y="1147"/>
      <point x="352" y="1118"/>
      <point x="270" y="1118" type="curve" smooth="yes"/>
      <point x="201" y="1118" type="line"/>
      <point x="201" y="936" type="line"/>
      <point x="291" y="936" type="line" smooth="yes"/>
      <point x="371" y="936"/>
      <point x="406" y="909"/>
      <point x="406" y="848" type="curve" smooth="yes"/>
      <point x="406" y="803"/>
      <point x="375" y="780"/>
      <point x="311" y="780" type="curve" smooth="yes"/>
      <point x="213" y="780"/>
      <point x="131" y="809"/>
      <point x="68" y="862" type="curve"/>
      <point x="68" y="639" type="line"/>
      <point x="133" y="592"/>
      <point x="215" y="569"/>
    </contour>
    <contour>
      <point x="1374" y="0" type="line"/>
      <point x="1610" y="0" type="line"/>
      <point x="1610" y="139" type="line"/>
      <point x="1718" y="139" type="line"/>
      <point x="1718" y="330" type="line"/>
      <point x="1610" y="330" type="line"/>
      <point x="1610" y="877" type="line"/>
      <point x="1346" y="877" type="line"/>
      <point x="1049" y="317" type="line"/>
      <point x="1049" y="139" type="line"/>
      <point x="1374" y="139" type="line"/>
    </contour>
    <contour>
      <point x="1237" y="330" type="line"/>
      <point x="1327" y="502" type="line" smooth="yes"/>
      <point x="1339" y="524"/>
      <point x="1358" y="567"/>
      <point x="1380" y="635" type="curve"/>
      <point x="1376" y="592"/>
      <point x="1374" y="547"/>
      <point x="1374" y="500" type="curve" smooth="yes"/>
      <point x="1374" y="330" type="line"/>
    </contour>
  </outline>
</glyph>
<glyph name="AE" format="2">
  <advance width="1518"/>
  <unicode hex="00C6"/>
  <anchor x="760" y="0" name="bottom"/>
  <anchor x="756" y="1462" name="top"/>
  <outline>
    <contour>
      <point x="1436" y="0" type="line"/>
      <point x="1436" y="299" type="line"/>
      <point x="1077" y="299" type="line"/>
      <point x="1077" y="608" type="line"/>
      <point x="1407" y="608" type="line"/>
      <point x="1407" y="903" type="line"/>
      <point x="1077" y="903" type="line"/>
      <point x="1077" y="1167" type="line"/>
      <point x="1436" y="1167" type="line"/>
      <point x="1436" y="1462" type="line"/>
      <point x="442" y="1462" type="line"/>
      <point x="-10" y="0" type="line"/>
      <point x="371" y="0" type="line"/>
      <point x="451" y="285" type="line"/>
      <point x="735" y="285" type="line"/>
      <point x="735" y="0" type="line"/>
    </contour>
    <contour>
      <point x="530" y="584" type="line"/>
      <point x="684" y="1167" type="line"/>
      <point x="735" y="1167" type="line"/>
      <point x="735" y="584" type="line"/>
    </contour>
  </outline>
</glyph>
<glyph name="Oslash" format="2">
  <advance width="1272"/>
  <unicode hex="00D8"/>
  <anchor x="637" y="0" name="bottom"/>
  <anchor x="639" y="1462" name="top"/>
  <outline>
    <contour>
      <point x="1192" y="733" type="curve" smooth="yes"/>
      <point x="1192" y="995"/>
      <point x="1139" y="1194"/>
      <point x="1030" y="1319" type="curve"/>
      <point x="1106" y="1473" type="line"/>
      <point x="944" y="1548" type="line"/>
      <point x="887" y="1432" type="line"/>
      <point x="815" y="1466"/>
      <point x="731" y="1485"/>
      <point x="637" y="1485" type="curve" smooth="yes"/>
      <point x="274" y="1485"/>
      <point x="80" y="1223"/>
      <point x="80" y="735" type="curve" smooth="yes"/>
      <point x="80" y="489"/>
      <point x="123" y="299"/>
      <point x="252" y="137" type="curve"/>
      <point x="168" y="-33" type="line"/>
      <point x="330" y="-109" type="line"/>
      <point x="395" y="29" type="line"/>
      <point x="465" y="-4"/>
      <point x="545" y="-20"/>
      <point x="637" y="-20" type="curve" smooth="yes"/>
      <point x="999" y="-20"/>
      <point x="1192" y="242"/>
    </contour>
    <contour>
      <point x="840" y="733" type="curve" smooth="yes"/>
      <point x="840" y="426"/>
      <point x="772" y="270"/>
      <point x="637" y="270" type="curve" smooth="yes"/>
      <point x="594" y="270"/>
      <point x="555" y="285"/>
      <point x="526" y="315" type="curve"/>
      <point x="827" y="928" type="line"/>
      <point x="836" y="870"/>
      <point x="840" y="807"/>
    </contour>
    <contour>
      <point x="432" y="733" type="curve" smooth="yes"/>
      <point x="432" y="1040"/>
      <point x="500" y="1194"/>
      <point x="637" y="1194" type="curve" smooth="yes"/>
      <point x="684" y="1194"/>
      <point x="723" y="1176"/>
      <point x="754" y="1139" type="curve"/>
      <point x="446" y="516" type="line"/>
      <point x="436" y="578"/>
      <point x="432" y="649"/>
    </contour>
  </outline>
</glyph>
<glyph name="ae" format="2">
  <advance width="1485"/>
  <unicode hex="00E6"/>
  <anchor x="743" y="0" name="bottom"/>
  <anchor x="756" y="1133" name="top"/>
  <outline>
    <contour>
      <point x="1008" y="1151" type="curve" smooth="yes"/>
      <point x="895" y="1151"/>
      <point x="815" y="1118"/>
      <point x="752" y="1055" type="curve"/>
      <point x="698" y="1120"/>
      <point x="618" y="1153"/>
      <point x="504" y="1153" type="curve" smooth="yes"/>
      <point x="379" y="1153"/>
      <point x="248" y="1118"/>
      <point x="141" y="1051" type="curve"/>
      <point x="227" y="805" type="line"/>
      <point x="328" y="862"/>
      <point x="406" y="889"/>
      <point x="471" y="889" type="curve" smooth="yes"/>
      <point x="545" y="889"/>
      <point x="580" y="842"/>
      <point x="580" y="750" type="curve" smooth="yes"/>
      <point x="580" y="721" type="line"/>
      <point x="432" y="715" type="line" smooth="yes"/>
      <point x="184" y="705"/>
      <point x="51" y="588"/>
      <point x="51" y="346" type="curve" smooth="yes"/>
      <point x="51" y="162"/>
      <point x="137" y="-20"/>
      <point x="352" y="-20" type="curve" smooth="yes"/>
      <point x="481" y="-20"/>
      <point x="586" y="39"/>
      <point x="674" y="156" type="curve"/>
      <point x="748" y="33"/>
      <point x="889" y="-20"/>
      <point x="1040" y="-20" type="curve" smooth="yes"/>
      <point x="1171" y="-20"/>
      <point x="1274" y="4"/>
      <point x="1370" y="61" type="curve"/>
      <point x="1370" y="332" type="line"/>
      <point x="1268" y="268"/>
      <point x="1186" y="244"/>
      <point x="1079" y="244" type="curve" smooth="yes"/>
      <point x="948" y="244"/>
      <point x="889" y="309"/>
      <point x="889" y="461" type="curve"/>
      <point x="1427" y="461" type="line"/>
      <point x="1427" y="635" type="line" smooth="yes"/>
      <point x="1427" y="967"/>
      <point x="1280" y="1151"/>
    </contour>
    <contour>
      <point x="580" y="506" type="line"/>
      <point x="580" y="406" type="line" smooth="yes"/>
      <point x="580" y="309"/>
      <point x="528" y="244"/>
      <point x="463" y="244" type="curve" smooth="yes"/>
      <point x="410" y="244"/>
      <point x="383" y="283"/>
      <point x="383" y="360" type="curve" smooth="yes"/>
      <point x="383" y="451"/>
      <point x="428" y="498"/>
      <point x="518" y="502" type="curve" smooth="yes"/>
    </contour>
    <contour>
      <point x="1008" y="895" type="curve" smooth="yes"/>
      <point x="1077" y="895"/>
      <point x="1122" y="838"/>
      <point x="1122" y="694" type="curve"/>
      <point x="889" y="694" type="line"/>
      <point x="889" y="842"/>
      <point x="940" y="895"/>
    </contour>
  </outline>
</glyph>
<glyph name="dcroat" format="2">
  <advance width="1073"/>
  <unicode hex="0111"/>
  <anchor x="537" y="0" name="bottom"/>
  <anchor x="537" y="1556" name="top"/>
  <outline>
    <contour>
      <point x="403" y="-20" type="curve" smooth="yes"/>
      <point x="512" y="-20"/>
      <point x="567" y="16"/>
      <point x="639" y="111" type="curve"/>
      <point x="657" y="111" type="line"/>
      <point x="705" y="0" type="line"/>
      <point x="971" y="0" type="line"/>
      <point x="971" y="1176" type="line"/>
      <point x="1094" y="1176" type="line"/>
      <point x="1094" y="1409" type="line"/>
      <point x="971" y="1409" type="line"/>
      <point x="971" y="1556" type="line"/>
      <point x="639" y="1556" type="line"/>
      <point x="639" y="1409" type="line"/>
      <point x="479" y="1409" type="line"/>
      <point x="479" y="1176" type="line"/>
      <point x="639" y="1176" type="line"/>
      <point x="639" y="1157" type="line" smooth="yes"/>
      <point x="639" y="1114"/>
      <point x="643" y="1042"/>
      <point x="649" y="940" type="curve"/>
      <point x="639" y="940" type="line"/>
      <point x="578" y="1057"/>
      <point x="498" y="1106"/>
      <point x="393" y="1106" type="curve" smooth="yes"/>
      <point x="190" y="1106"/>
      <point x="66" y="895"/>
      <point x="66" y="549" type="curve" smooth="yes"/>
      <point x="66" y="203"/>
      <point x="188" y="-20"/>
    </contour>
    <contour>
      <point x="512" y="256" type="curve" smooth="yes"/>
      <point x="442" y="256"/>
      <point x="401" y="350"/>
      <point x="401" y="549" type="curve" smooth="yes"/>
      <point x="401" y="731"/>
      <point x="440" y="821"/>
      <point x="514" y="821" type="curve" smooth="yes"/>
      <point x="602" y="821"/>
      <point x="639" y="748"/>
      <point x="639" y="582" type="curve" smooth="yes"/>
      <point x="639" y="520" type="line" smooth="yes"/>
      <point x="639" y="334"/>
      <point x="602" y="256"/>
    </contour>
  </outline>
</glyph>
<glyph name="idotless" format="2">
  <advance width="543"/>
  <unicode hex="0131"/>
  <anchor x="274" y="0" name="bottom"/>
  <anchor x="270" y="1133" name="top"/>
  <outline>
    <contour>
      <point x="436" y="0" type="line"/>
      <point x="436" y="1133" type="line"/>
      <point x="104" y="1133" type="line"/>
      <point x="104" y="0" type="line"/>
    </contour>
  </outline>
</glyph>
<glyph name="Lslash" format="2">
  <advance width="928"/>
  <unicode hex="0141"/>
  <anchor x="487" y="0" name="bottom"/>
  <anchor x="299" y="1462" name="top"/>
  <outline>
    <contour>
      <point x="170" y="0" type="line"/>
      <point x="899" y="0" type="line"/>
      <point x="899" y="299" type="line"/>
      <point x="518" y="299" type="line"/>
      <point x="518" y="748" type="line"/>
      <point x="811" y="985" type="line"/>
      <point x="649" y="1188" type="line"/>
      <point x="518" y="1081" type="line"/>
      <point x="518" y="1462" type="line"/>
      <point x="170" y="1462" type="line"/>
      <point x="170" y="821" type="line"/>
      <point x="-55" y="641" type="line"/>
      <point x="106" y="440" type="line"/>
      <point x="170" y="487" type="line"/>
    </contour>
  </outline>
</glyph>
<glyph name="lslash" format="2">
  <advance width="657"/>
  <unicode hex="0142"/>
  <anchor x="330" y="0" name="bottom"/>
  <anchor x="330" y="1556" name="top"/>
  <outline>
    <contour>
      <point x="164" y="0" type="line"/>
      <point x="496" y="0" type="line"/>
      <point x="496" y="731" type="line"/>
      <point x="717" y="911" type="line"/>
      <point x="555" y="1112" type="line"/>
      <point x="496" y="1065" type="line"/>
      <point x="496" y="1556" type="line"/>
      <point x="164" y="1556" type="line"/>
      <point x="164" y="817" type="line"/>
      <point x="-57" y="637" type="line"/>
      <point x="104" y="434" type="line"/>
      <point x="164" y="483" type="line"/>
    </contour>
  </outline>
</glyph>
<glyph name="eng" format="2">
  <advance width="1083"/>
  <unicode hex="014B"/>
  <anchor x="543" y="-492" name="bottom"/>
  <anchor x="543" y="1133" name="top"/>
  <anchor x="1024" y="1133" name="topright"/>
  <outline>
    <contour>
      <point x="641" y="-492" type="curve" smooth="yes"/>
      <point x="883" y="-492"/>
      <point x="983" y="-303"/>
      <point x="983" y="-92" type="curve" smooth="yes"/>
      <point x="983" y="737" type="line" smooth="yes"/>
      <point x="983" y="1001"/>
      <point x="868" y="1153"/>
      <point x="672" y="1153" type="curve" smooth="yes"/>
      <point x="551" y="1153"/>
      <point x="469" y="1100"/>
      <point x="418" y="993" type="curve"/>
      <point x="399" y="993" type="line"/>
      <point x="362" y="1133" type="line"/>
      <point x="102" y="1133" type="line"/>
      <point x="102" y="0" type="line"/>
      <point x="434" y="0" type="line"/>
      <point x="434" y="518" type="line" smooth="yes"/>
      <point x="434" y="807"/>
      <point x="477" y="858"/>
      <point x="563" y="858" type="curve" smooth="yes"/>
      <point x="631" y="858"/>
      <point x="651" y="780"/>
      <point x="651" y="631" type="curve" smooth="yes"/>
      <point x="651" y="-66" type="line" smooth="yes"/>
      <point x="651" y="-158"/>
      <point x="623" y="-205"/>
      <point x="561" y="-205" type="curve" smooth="yes"/>
      <point x="532" y="-205"/>
      <point x="502" y="-199"/>
      <point x="469" y="-186" type="curve"/>
      <point x="469" y="-467" type="line"/>
      <point x="524" y="-485"/>
      <point x="586" y="-492"/>
    </contour>
  </outline>
</glyph>
<glyph name="tbar" format="2">
  <advance width="725"/>
  <unicode hex="0167"/>
  <anchor x="426" y="0" name="bottom"/>
  <anchor x="334" y="1360" name="top"/>
  <outline>
    <contour>
      <point x="25" y="451" type="line"/>
      <point x="651" y="451" type="line"/>
      <point x="651" y="682" type="line"/>
      <point x="25" y="682" type="line"/>
    </contour>
    <component base="t"/>
  </outline>
</glyph>
<glyph name="Uogonek" format="2">
  <advance width="1204"/>
  <unicode hex="0172"/>
  <anchor x="596" y="-492" name="bottom"/>
  <anchor x="602" y="1462" name="top"/>
  <outline>
    <contour>
      <point x="748" y="-199" type="curve" smooth="yes"/>
      <point x="748" y="-129"/>
      <point x="801" y="-47"/>
      <point x="946" y="96" type="curve"/>
      <point x="653" y="0" type="line"/>
      <point x="539" y="-88"/>
      <point x="496" y="-168"/>
      <point x="496" y="-260" type="curve" smooth="yes"/>
      <point x="496" y="-401"/>
      <point x="569" y="-492"/>
      <point x="743" y="-492" type="curve" smooth="yes"/>
      <point x="797" y="-492"/>
      <point x="868" y="-483"/>
      <point x="918" y="-465" type="curve"/>
      <point x="918" y="-244" type="line"/>
      <point x="897" y="-256"/>
      <point x="844" y="-266"/>
      <point x="817" y="-266" type="curve" smooth="yes"/>
      <point x="778" y="-266"/>
      <point x="748" y="-244"/>
    </contour>
    <component base="U"/>
  </outline>
</glyph>
<glyph name="longs" format="2">
  <advance width="645"/>
  <unicode hex="017F"/>
  <anchor x="324" y="0" name="bottom"/>
  <anchor x="385" y="1567" name="top"/>
  <outline>
    <contour>
      <point x="532" y="1290" type="curve" smooth="yes"/>
      <point x="567" y="1290"/>
      <point x="604" y="1282"/>
      <point x="641" y="1270" type="curve"/>
      <point x="705" y="1513" type="line"/>
      <point x="606" y="1552"/>
      <point x="543" y="1567"/>
      <point x="455" y="1567" type="curve" smooth="yes"/>
      <point x="238" y="1567"/>
      <point x="135" y="1448"/>
      <point x="135" y="1147" type="curve" smooth="yes"/>
      <point x="135" y="0" type="line"/>
      <point x="469" y="0" type="line"/>
      <point x="469" y="1174" type="line"/>
      <point x="469" y="1255"/>
      <point x="487" y="1290"/>
    </contour>
  </outline>
</glyph>
<glyph name="uni0180" format="2">
  <advance width="1073"/>
  <unicode hex="0180"/>
  <anchor x="537" y="0" name="bottom"/>
  <anchor x="537" y="1556" name="top"/>
  <outline>
    <contour>
      <point x="672" y="-20" type="curve" smooth="yes"/>
      <point x="885" y="-20"/>
      <point x="1008" y="180"/>
      <point x="1008" y="543" type="curve" smooth="yes"/>
      <point x="1008" y="885"/>
      <point x="881" y="1106"/>
      <point x="680" y="1106" type="curve" smooth="yes"/>
      <point x="578" y="1106"/>
      <point x="496" y="1057"/>
      <point x="434" y="940" type="curve"/>
      <point x="424" y="940" type="line"/>
      <point x="428" y="1022"/>
      <point x="432" y="1085"/>
      <point x="434" y="1128" type="curve" smooth="yes"/>
      <point x="434" y="1176" type="line"/>
      <point x="616" y="1176" type="line"/>
      <point x="616" y="1409" type="line"/>
      <point x="434" y="1409" type="line"/>
      <point x="434" y="1556" type="line"/>
      <point x="102" y="1556" type="line"/>
      <point x="102" y="1409" type="line"/>
      <point x="-14" y="1409" type="line"/>
      <point x="-14" y="1176" type="line"/>
      <point x="102" y="1176" type="line"/>
      <point x="102" y="0" type="line"/>
      <point x="369" y="0" type="line"/>
      <point x="418" y="111" type="line"/>
      <point x="434" y="111" type="line"/>
      <point x="514" y="6"/>
      <point x="571" y="-20"/>
    </contour>
    <contour>
      <point x="561" y="256" type="curve" smooth="yes"/>
      <point x="471" y="256"/>
      <point x="434" y="313"/>
      <point x="434" y="516" type="curve" smooth="yes"/>
      <point x="434" y="561" type="line" smooth="yes"/>
      <point x="434" y="741"/>
      <point x="471" y="821"/>
      <point x="559" y="821" type="curve" smooth="yes"/>
      <point x="635" y="821"/>
      <point x="672" y="723"/>
      <point x="672" y="547" type="curve" smooth="yes"/>
      <point x="672" y="332"/>
      <point x="633" y="256"/>
    </contour>
  </outline>
</glyph>
<glyph name="uni0181" format="2">
  <advance width="1415"/>
  <unicode hex="0181"/>
  <anchor x="709" y="0" name="bottom"/>
  <anchor x="709" y="1462" name="top"/>
  <outline>
    <contour>
      <point x="393" y="0" type="line"/>
      <point x="858" y="0" type="line" smooth="yes"/>
      <point x="1149" y="0"/>
      <point x="1329" y="164"/>
      <point x="1329" y="428" type="curve" smooth="yes"/>
      <point x="1329" y="606"/>
      <point x="1266" y="719"/>
      <point x="1114" y="766" type="curve"/>
      <point x="1114" y="776" type="line"/>
      <point x="1229" y="811"/>
      <point x="1305" y="936"/>
      <point x="1305" y="1098" type="curve" smooth="yes"/>
      <point x="1305" y="1348"/>
      <point x="1147" y="1462"/>
      <point x="817" y="1462" type="curve" smooth="yes"/>
      <point x="403" y="1462" type="line" smooth="yes"/>
      <point x="94" y="1462"/>
      <point x="8" y="1303"/>
      <point x="8" y="1124" type="curve" smooth="yes"/>
      <point x="8" y="1042"/>
      <point x="18" y="983"/>
      <point x="27" y="965" type="curve"/>
      <point x="301" y="965" type="line"/>
      <point x="295" y="985"/>
      <point x="285" y="1024"/>
      <point x="285" y="1092" type="curve" smooth="yes"/>
      <point x="285" y="1122"/>
      <point x="307" y="1180"/>
      <point x="350" y="1180" type="curve" smooth="yes"/>
      <point x="393" y="1180" type="line"/>
    </contour>
    <contour>
      <point x="741" y="289" type="line"/>
      <point x="741" y="621" type="line"/>
      <point x="827" y="621" type="line" smooth="yes"/>
      <point x="922" y="621"/>
      <point x="973" y="561"/>
      <point x="973" y="457" type="curve" smooth="yes"/>
      <point x="973" y="344"/>
      <point x="926" y="289"/>
      <point x="831" y="289" type="curve" smooth="yes"/>
    </contour>
    <contour>
      <point x="741" y="893" type="line"/>
      <point x="741" y="1180" type="line"/>
      <point x="811" y="1180" type="line" smooth="yes"/>
      <point x="905" y="1180"/>
      <point x="952" y="1135"/>
      <point x="952" y="1044" type="curve" smooth="yes"/>
      <point x="952" y="944"/>
      <point x="903" y="893"/>
      <point x="817" y="893" type="curve" smooth="yes"/>
    </contour>
  </outline>
</glyph>
<glyph name="uni0186" format="2">
  <advance width="1038"/>
  <unicode hex="0186"/>
  <anchor x="520" y="0" name="bottom"/>
  <anchor x="520" y="1462" name="top"/>
  <outline>
    <contour>
      <point x="416" y="-20" type="curve" smooth="yes"/>
      <point x="764" y="-20"/>
      <point x="958" y="264"/>
      <point x="958" y="748" type="curve" smooth="yes"/>
      <point x="958" y="1214"/>
      <point x="770" y="1483"/>
      <point x="426" y="1483" type="curve" smooth="yes"/>
      <point x="297" y="1483"/>
      <point x="166" y="1450"/>
      <point x="49" y="1380" type="curve"/>
      <point x="141" y="1094" type="line"/>
      <point x="219" y="1149"/>
      <point x="295" y="1184"/>
      <point x="383" y="1184" type="curve" smooth="yes"/>
      <point x="520" y="1184"/>
      <point x="596" y="1010"/>
      <point x="596" y="725" type="curve" smooth="yes"/>
      <point x="596" y="428"/>
      <point x="520" y="281"/>
      <point x="367" y="281" type="curve" smooth="yes"/>
      <point x="272" y="281"/>
      <point x="186" y="322"/>
      <point x="98" y="373" type="curve"/>
      <point x="98" y="61" type="line"/>
      <point x="193" y="6"/>
      <point x="295" y="-20"/>
    </contour>
  </outline>
</glyph>
<glyph name="uni0188" format="2">
  <advance width="887"/>
  <unicode hex="0188"/>
  <anchor x="520" y="0" name="bottom"/>
  <anchor x="506" y="1565" name="top"/>
  <outline>
    <contour>
      <point x="520" y="-20" type="curve" smooth="yes"/>
      <point x="633" y="-20"/>
      <point x="729" y="12"/>
      <point x="811" y="80" type="curve"/>
      <point x="811" y="362" type="line"/>
      <point x="729" y="297"/>
      <point x="643" y="262"/>
      <point x="557" y="262" type="curve" smooth="yes"/>
      <point x="455" y="262"/>
      <point x="401" y="362"/>
      <point x="401" y="561" type="curve" smooth="yes"/>
      <point x="401" y="760"/>
      <point x="459" y="870"/>
      <point x="549" y="870" type="curve" smooth="yes"/>
      <point x="618" y="870"/>
      <point x="684" y="848"/>
      <point x="752" y="803" type="curve"/>
      <point x="844" y="1067" type="line"/>
      <point x="844" y="1182" type="line" smooth="yes"/>
      <point x="844" y="1257"/>
      <point x="872" y="1288"/>
      <point x="918" y="1288" type="curve" smooth="yes"/>
      <point x="956" y="1288"/>
      <point x="987" y="1276"/>
      <point x="1008" y="1268" type="curve"/>
      <point x="1008" y="1532" type="line"/>
      <point x="989" y="1544"/>
      <point x="934" y="1565"/>
      <point x="858" y="1565" type="curve" smooth="yes"/>
      <point x="696" y="1565"/>
      <point x="565" y="1458"/>
      <point x="565" y="1221" type="curve" smooth="yes"/>
      <point x="565" y="1151" type="line"/>
      <point x="557" y="1151"/>
      <point x="543" y="1153"/>
      <point x="526" y="1153" type="curve" smooth="yes"/>
      <point x="203" y="1153"/>
      <point x="66" y="891"/>
      <point x="66" y="561" type="curve" smooth="yes"/>
      <point x="66" y="160"/>
      <point x="215" y="-20"/>
    </contour>
  </outline>
</glyph>
<glyph name="uni018A" format="2">
  <advance width="1475"/>
  <unicode hex="018A"/>
  <anchor x="737" y="0" name="bottom"/>
  <anchor x="737" y="1462" name="top"/>
  <outline>
    <contour>
      <point x="393" y="0" type="line"/>
      <point x="770" y="0" type="line" smooth="yes"/>
      <point x="1167" y="0"/>
      <point x="1395" y="276"/>
      <point x="1395" y="762" type="curve" smooth="yes"/>
      <point x="1395" y="1214"/>
      <point x="1178" y="1462"/>
      <point x="795" y="1462" type="curve" smooth="yes"/>
      <point x="399" y="1462" type="line" smooth="yes"/>
      <point x="94" y="1462"/>
      <point x="8" y="1286"/>
      <point x="8" y="1083" type="curve" smooth="yes"/>
      <point x="8" y="1026"/>
      <point x="27" y="983"/>
      <point x="35" y="965" type="curve"/>
      <point x="301" y="965" type="line"/>
      <point x="295" y="985"/>
      <point x="285" y="1018"/>
      <point x="285" y="1065" type="curve" smooth="yes"/>
      <point x="285" y="1116"/>
      <point x="307" y="1161"/>
      <point x="350" y="1161" type="curve" smooth="yes"/>
      <point x="393" y="1161" type="line"/>
    </contour>
    <contour>
      <point x="741" y="303" type="line"/>
      <point x="741" y="1161" type="line"/>
      <point x="788" y="1161" type="line" smooth="yes"/>
      <point x="952" y="1161"/>
      <point x="1034" y="1044"/>
      <point x="1034" y="748" type="curve" smooth="yes"/>
      <point x="1034" y="442"/>
      <point x="952" y="303"/>
      <point x="768" y="303" type="curve" smooth="yes"/>
    </contour>
  </outline>
</glyph>
<glyph name="uni018B" format="2">
  <advance width="1059"/>
  <unicode hex="018B"/>
  <anchor x="530" y="0" name="bottom"/>
  <anchor x="530" y="1462" name="top"/>
  <outline>
    <contour>
      <point x="561" y="0" type="curve" smooth="yes"/>
      <point x="938" y="0" type="line"/>
      <point x="938" y="1462" type="line"/>
      <point x="162" y="1462" type="line"/>
      <point x="162" y="1161" type="line"/>
      <point x="590" y="1161" type="line"/>
      <point x="590" y="942" type="line"/>
      <point x="582" y="942" type="line" smooth="yes"/>
      <point x="246" y="942"/>
      <point x="57" y="786"/>
      <point x="57" y="485" type="curve" smooth="yes"/>
      <point x="57" y="172"/>
      <point x="244" y="0"/>
    </contour>
    <contour>
      <point x="582" y="295" type="line" smooth="yes"/>
      <point x="463" y="295"/>
      <point x="406" y="354"/>
      <point x="406" y="475" type="curve" smooth="yes"/>
      <point x="406" y="590"/>
      <point x="463" y="647"/>
      <point x="584" y="647" type="curve" smooth="yes"/>
      <point x="590" y="647" type="line"/>
      <point x="590" y="295" type="line"/>
    </contour>
  </outline>
</glyph>
<glyph name="uni018E" format="2">
  <advance width="907"/>
  <unicode hex="018E"/>
  <anchor x="438" y="0" name="bottom"/>
  <anchor x="430" y="1462" name="top"/>
  <anchor x="827" y="1462" name="topright"/>
  <outline>
    <contour>
      <point x="82" y="0" type="line"/>
      <point x="786" y="0" type="line"/>
      <point x="786" y="1462" type="line"/>
      <point x="82" y="1462" type="line"/>
      <point x="82" y="1167" type="line"/>
      <point x="438" y="1167" type="line"/>
      <point x="438" y="903" type="line"/>
      <point x="109" y="903" type="line"/>
      <point x="109" y="608" type="line"/>
      <point x="438" y="608" type="line"/>
      <point x="438" y="299" type="line"/>
      <point x="82" y="299" type="line"/>
    </contour>
  </outline>
</glyph>
<glyph name="uni0190" format="2">
  <advance width="1059"/>
  <unicode hex="0190"/>
  <anchor x="530" y="0" name="bottom"/>
  <anchor x="530" y="1462" name="top"/>
  <outline>
    <contour>
      <point x="582" y="1483" type="curve" smooth="yes"/>
      <point x="305" y="1483"/>
      <point x="135" y="1315"/>
      <point x="135" y="1098" type="curve" smooth="yes"/>
      <point x="135" y="905"/>
      <point x="215" y="799"/>
      <point x="391" y="760" type="curve"/>
      <point x="391" y="752" type="line"/>
      <point x="190" y="729"/>
      <point x="84" y="606"/>
      <point x="84" y="406" type="curve" smooth="yes"/>
      <point x="84" y="162"/>
      <point x="223" y="-20"/>
      <point x="608" y="-20" type="curve" smooth="yes"/>
      <point x="764" y="-20"/>
      <point x="901" y="16"/>
      <point x="1006" y="66" type="curve"/>
      <point x="1006" y="375" type="line"/>
      <point x="922" y="317"/>
      <point x="776" y="281"/>
      <point x="674" y="281" type="curve" smooth="yes"/>
      <point x="506" y="281"/>
      <point x="440" y="326"/>
      <point x="440" y="449" type="curve" smooth="yes"/>
      <point x="440" y="559"/>
      <point x="524" y="614"/>
      <point x="690" y="614" type="curve" smooth="yes"/>
      <point x="817" y="614" type="line"/>
      <point x="817" y="909" type="line"/>
      <point x="705" y="909" type="line" smooth="yes"/>
      <point x="532" y="909"/>
      <point x="485" y="954"/>
      <point x="485" y="1053" type="curve" smooth="yes"/>
      <point x="485" y="1137"/>
      <point x="539" y="1184"/>
      <point x="643" y="1184" type="curve" smooth="yes"/>
      <point x="743" y="1184"/>
      <point x="827" y="1147"/>
      <point x="897" y="1087" type="curve"/>
      <point x="1024" y="1358" type="line"/>
      <point x="907" y="1432"/>
      <point x="786" y="1483"/>
    </contour>
  </outline>
</glyph>
<glyph name="florin" format="2">
  <advance width="868"/>
  <unicode hex="0192"/>
  <anchor x="434" y="-492" name="bottom"/>
  <anchor x="537" y="1483" name="top"/>
  <outline>
    <contour>
      <point x="567" y="1483" type="curve" smooth="yes"/>
      <point x="350" y="1483"/>
      <point x="250" y="1364"/>
      <point x="250" y="1063" type="curve" smooth="yes"/>
      <point x="250" y="1038" type="line"/>
      <point x="125" y="946" type="line"/>
      <point x="125" y="770" type="line"/>
      <point x="250" y="770" type="line"/>
      <point x="250" y="-98" type="line"/>
      <point x="250" y="-180"/>
      <point x="236" y="-215"/>
      <point x="190" y="-215" type="curve" smooth="yes"/>
      <point x="156" y="-215"/>
      <point x="119" y="-209"/>
      <point x="82" y="-195" type="curve"/>
      <point x="82" y="-463" type="line"/>
      <point x="129" y="-477"/>
      <point x="184" y="-492"/>
      <point x="268" y="-492" type="curve" smooth="yes"/>
      <point x="487" y="-492"/>
      <point x="582" y="-371"/>
      <point x="582" y="-72" type="curve" smooth="yes"/>
      <point x="582" y="770" type="line"/>
      <point x="766" y="770" type="line"/>
      <point x="766" y="1042" type="line"/>
      <point x="582" y="1042" type="line"/>
      <point x="582" y="1090" type="line" smooth="yes"/>
      <point x="582" y="1171"/>
      <point x="600" y="1206"/>
      <point x="645" y="1206" type="curve" smooth="yes"/>
      <point x="682" y="1206"/>
      <point x="717" y="1198"/>
      <point x="754" y="1186" type="curve"/>
      <point x="817" y="1430" type="line"/>
      <point x="719" y="1468"/>
      <point x="655" y="1483"/>
    </contour>
  </outline>
</glyph>
<glyph name="uni0193" format="2">
  <advance width="1214"/>
  <unicode hex="0193"/>
  <anchor x="649" y="0" name="bottom"/>
  <anchor x="711" y="1790" name="top"/>
  <outline>
    <contour>
      <point x="1106" y="1812" type="curve" smooth="yes"/>
      <point x="971" y="1812"/>
      <point x="815" y="1720"/>
      <point x="815" y="1499" type="curve" smooth="yes"/>
      <point x="815" y="1477" type="line"/>
      <point x="782" y="1481"/>
      <point x="748" y="1483"/>
      <point x="711" y="1483" type="curve" smooth="yes"/>
      <point x="313" y="1483"/>
      <point x="80" y="1204"/>
      <point x="80" y="735" type="curve" smooth="yes"/>
      <point x="80" y="252"/>
      <point x="283" y="-20"/>
      <point x="643" y="-20" type="curve" smooth="yes"/>
      <point x="807" y="-20"/>
      <point x="963" y="8"/>
      <point x="1114" y="68" type="curve"/>
      <point x="1114" y="856" type="line"/>
      <point x="604" y="856" type="line"/>
      <point x="604" y="565" type="line"/>
      <point x="772" y="565" type="line"/>
      <point x="772" y="297" type="line"/>
      <point x="737" y="287"/>
      <point x="700" y="281"/>
      <point x="664" y="281" type="curve" smooth="yes"/>
      <point x="518" y="281"/>
      <point x="442" y="436"/>
      <point x="442" y="725" type="curve" smooth="yes"/>
      <point x="442" y="1020"/>
      <point x="537" y="1184"/>
      <point x="723" y="1184" type="curve" smooth="yes"/>
      <point x="823" y="1184"/>
      <point x="915" y="1157"/>
      <point x="995" y="1106" type="curve"/>
      <point x="1092" y="1391" type="line"/>
      <point x="1092" y="1411" type="line" smooth="yes"/>
      <point x="1092" y="1489"/>
      <point x="1120" y="1518"/>
      <point x="1165" y="1518" type="curve" smooth="yes"/>
      <point x="1204" y="1518"/>
      <point x="1237" y="1505"/>
      <point x="1257" y="1497" type="curve"/>
      <point x="1257" y="1782" type="line"/>
      <point x="1235" y="1794"/>
      <point x="1180" y="1812"/>
    </contour>
  </outline>
</glyph>
<glyph name="uni0195" format="2">
  <advance width="1632"/>
  <unicode hex="0195"/>
  <anchor x="817" y="0" name="bottom"/>
  <anchor x="817" y="1133" name="top"/>
  <outline>
    <contour>
      <point x="1094" y="-29" type="curve" smooth="yes"/>
      <point x="1403" y="-29"/>
      <point x="1532" y="143"/>
      <point x="1532" y="514" type="curve" smooth="yes"/>
      <point x="1532" y="1133" type="line"/>
      <point x="1200" y="1133" type="line"/>
      <point x="1200" y="520" type="line" smooth="yes"/>
      <point x="1200" y="319"/>
      <point x="1169" y="266"/>
      <point x="1087" y="266" type="curve" smooth="yes"/>
      <point x="1022" y="266"/>
      <point x="983" y="336"/>
      <point x="983" y="483" type="curve" smooth="yes"/>
      <point x="983" y="737" type="line" smooth="yes"/>
      <point x="983" y="1001"/>
      <point x="868" y="1153"/>
      <point x="672" y="1153" type="curve" smooth="yes"/>
      <point x="551" y="1153"/>
      <point x="471" y="1100"/>
      <point x="426" y="993" type="curve"/>
      <point x="408" y="993" type="line"/>
      <point x="426" y="1083"/>
      <point x="436" y="1178"/>
      <point x="436" y="1272" type="curve" smooth="yes"/>
      <point x="436" y="1556" type="line"/>
      <point x="102" y="1556" type="line"/>
      <point x="102" y="0" type="line"/>
      <point x="434" y="0" type="line"/>
      <point x="434" y="518" type="line" smooth="yes"/>
      <point x="434" y="752"/>
      <point x="455" y="858"/>
      <point x="563" y="858" type="curve" smooth="yes"/>
      <point x="623" y="858"/>
      <point x="651" y="782"/>
      <point x="651" y="631" type="curve" smooth="yes"/>
      <point x="651" y="428" type="line" smooth="yes"/>
      <point x="651" y="109"/>
      <point x="774" y="-29"/>
    </contour>
  </outline>
</glyph>
<glyph name="uni0196" format="2">
  <advance width="692"/>
  <unicode hex="0196"/>
  <anchor x="387" y="0" name="bottom"/>
  <anchor x="295" y="1462" name="top"/>
  <outline>
    <contour>
      <point x="430" y="-20" type="curve" smooth="yes"/>
      <point x="520" y="-20"/>
      <point x="610" y="0"/>
      <point x="676" y="43" type="curve"/>
      <point x="676" y="322" type="line"/>
      <point x="625" y="293"/>
      <point x="588" y="279"/>
      <point x="539" y="279" type="curve" smooth="yes"/>
      <point x="487" y="279"/>
      <point x="461" y="311"/>
      <point x="461" y="377" type="curve" smooth="yes"/>
      <point x="461" y="1462" type="line"/>
      <point x="113" y="1462" type="line"/>
      <point x="113" y="360" type="line" smooth="yes"/>
      <point x="113" y="86"/>
      <point x="217" y="-20"/>
    </contour>
  </outline>
</glyph>
<glyph name="uni0198" format="2">
  <advance width="1192"/>
  <unicode hex="0198"/>
  <anchor x="586" y="0" name="bottom"/>
  <anchor x="586" y="1462" name="top"/>
  <outline>
    <contour>
      <point x="999" y="1487" type="curve" smooth="yes"/>
      <point x="825" y="1487"/>
      <point x="750" y="1403"/>
      <point x="653" y="1221" type="curve" smooth="yes"/>
      <point x="545" y="1014" type="line" smooth="yes"/>
      <point x="510" y="946"/>
      <point x="481" y="885"/>
      <point x="469" y="827" type="curve"/>
      <point x="469" y="1462" type="line"/>
      <point x="121" y="1462" type="line"/>
      <point x="121" y="0" type="line"/>
      <point x="469" y="0" type="line"/>
      <point x="469" y="489" type="line"/>
      <point x="551" y="545" type="line"/>
      <point x="764" y="0" type="line"/>
      <point x="1149" y="0" type="line"/>
      <point x="803" y="807" type="line"/>
      <point x="961" y="1098" type="line" smooth="yes"/>
      <point x="991" y="1159"/>
      <point x="1022" y="1188"/>
      <point x="1071" y="1188" type="curve" smooth="yes"/>
      <point x="1108" y="1188"/>
      <point x="1141" y="1176"/>
      <point x="1161" y="1165" type="curve"/>
      <point x="1161" y="1452" type="line"/>
      <point x="1128" y="1468"/>
      <point x="1065" y="1487"/>
    </contour>
  </outline>
</glyph>
<glyph name="uni0199" format="2">
  <advance width="1067"/>
  <unicode hex="0199"/>
  <anchor x="535" y="0" name="bottom"/>
  <anchor x="535" y="1567" name="top"/>
  <outline>
    <contour>
      <point x="444" y="1567" type="curve" smooth="yes"/>
      <point x="225" y="1567"/>
      <point x="102" y="1415"/>
      <point x="102" y="1167" type="curve" smooth="yes"/>
      <point x="102" y="0" type="line"/>
      <point x="434" y="0" type="line"/>
      <point x="434" y="330" type="line"/>
      <point x="530" y="412" type="line"/>
      <point x="713" y="0" type="line"/>
      <point x="1077" y="0" type="line"/>
      <point x="760" y="651" type="line"/>
      <point x="1065" y="1133" type="line"/>
      <point x="709" y="1133" type="line"/>
      <point x="512" y="799" type="line" smooth="yes"/>
      <point x="487" y="756"/>
      <point x="455" y="696"/>
      <point x="426" y="633" type="curve"/>
      <point x="420" y="633" type="line"/>
      <point x="430" y="731"/>
      <point x="434" y="834"/>
      <point x="434" y="938" type="curve" smooth="yes"/>
      <point x="434" y="1151" type="line" smooth="yes"/>
      <point x="434" y="1237"/>
      <point x="463" y="1280"/>
      <point x="524" y="1280" type="curve" smooth="yes"/>
      <point x="553" y="1280"/>
      <point x="584" y="1274"/>
      <point x="616" y="1262" type="curve"/>
      <point x="616" y="1542" type="line"/>
      <point x="580" y="1554"/>
      <point x="494" y="1567"/>
    </contour>
  </outline>
</glyph>
<glyph name="uni019A" format="2">
  <advance width="580"/>
  <unicode hex="019A"/>
  <anchor x="291" y="0" name="bottom"/>
  <anchor x="291" y="1556" name="top"/>
  <outline>
    <contour>
      <point x="123" y="0" type="line"/>
      <point x="455" y="0" type="line"/>
      <point x="455" y="633" type="line"/>
      <point x="580" y="633" type="line"/>
      <point x="580" y="868" type="line"/>
      <point x="455" y="868" type="line"/>
      <point x="455" y="1556" type="line"/>
      <point x="123" y="1556" type="line"/>
      <point x="123" y="868" type="line"/>
      <point x="0" y="868" type="line"/>
      <point x="0" y="633" type="line"/>
      <point x="123" y="633" type="line"/>
    </contour>
  </outline>
</glyph>
<glyph name="uni019B" format="2">
  <advance width="1085"/>
  <unicode hex="019B"/>
  <anchor x="543" y="0" name="bottom"/>
  <anchor x="543" y="1573" name="top"/>
  <outline>
    <contour>
      <point x="4" y="0" type="line"/>
      <point x="352" y="0" type="line"/>
      <point x="494" y="473" type="line" smooth="yes"/>
      <point x="504" y="506"/>
      <point x="510" y="547"/>
      <point x="512" y="596" type="curve"/>
      <point x="518" y="596" type="line"/>
      <point x="522" y="549"/>
      <point x="526" y="510"/>
      <point x="537" y="475" type="curve" smooth="yes"/>
      <point x="575" y="336" type="line" smooth="yes"/>
      <point x="651" y="68"/>
      <point x="735" y="-20"/>
      <point x="930" y="-20" type="curve" smooth="yes"/>
      <point x="981" y="-20"/>
      <point x="1028" y="-14"/>
      <point x="1067" y="-2" type="curve"/>
      <point x="1067" y="287" type="line"/>
      <point x="1044" y="279"/>
      <point x="1020" y="274"/>
      <point x="993" y="274" type="curve" smooth="yes"/>
      <point x="940" y="274"/>
      <point x="907" y="295"/>
      <point x="885" y="375" type="curve" smooth="yes"/>
      <point x="657" y="1178" type="line"/>
      <point x="801" y="1241" type="line"/>
      <point x="713" y="1436" type="line"/>
      <point x="584" y="1378" type="line"/>
      <point x="512" y="1518"/>
      <point x="410" y="1573"/>
      <point x="252" y="1573" type="curve" smooth="yes"/>
      <point x="199" y="1573"/>
      <point x="152" y="1567"/>
      <point x="111" y="1556" type="curve"/>
      <point x="111" y="1284" type="line"/>
      <point x="137" y="1292"/>
      <point x="164" y="1296"/>
      <point x="193" y="1296" type="curve" smooth="yes"/>
      <point x="240" y="1296"/>
      <point x="268" y="1276"/>
      <point x="289" y="1247" type="curve"/>
      <point x="145" y="1184" type="line"/>
      <point x="233" y="987" type="line"/>
      <point x="356" y="1042" type="line"/>
      <point x="365" y="1012" type="line"/>
    </contour>
  </outline>
</glyph>
<glyph name="uni019C" format="2">
  <advance width="1858"/>
  <unicode hex="019C"/>
  <anchor x="930" y="0" name="bottom"/>
  <anchor x="930" y="1462" name="top"/>
  <outline>
    <contour>
      <point x="438" y="-23" type="curve" smooth="yes"/>
      <point x="580" y="-18"/>
      <point x="688" y="31"/>
      <point x="770" y="164" type="curve"/>
      <point x="778" y="164" type="line"/>
      <point x="823" y="35"/>
      <point x="920" y="-25"/>
      <point x="1075" y="-23" type="curve" smooth="yes"/>
      <point x="1217" y="-18"/>
      <point x="1315" y="39"/>
      <point x="1389" y="147" type="curve"/>
      <point x="1397" y="147" type="line"/>
      <point x="1438" y="0" type="line"/>
      <point x="1737" y="0" type="line"/>
      <point x="1737" y="1462" type="line"/>
      <point x="1389" y="1462" type="line"/>
      <point x="1389" y="551" type="line" smooth="yes"/>
      <point x="1389" y="373"/>
      <point x="1325" y="283"/>
      <point x="1233" y="281" type="curve" smooth="yes"/>
      <point x="1124" y="279"/>
      <point x="1100" y="352"/>
      <point x="1100" y="477" type="curve" smooth="yes"/>
      <point x="1100" y="1462" type="line"/>
      <point x="752" y="1462" type="line"/>
      <point x="752" y="551" type="line" smooth="yes"/>
      <point x="752" y="373"/>
      <point x="688" y="283"/>
      <point x="596" y="281" type="curve" smooth="yes"/>
      <point x="487" y="279"/>
      <point x="463" y="352"/>
      <point x="463" y="477" type="curve" smooth="yes"/>
      <point x="463" y="1462" type="line"/>
      <point x="115" y="1462" type="line"/>
      <point x="115" y="369" type="line" smooth="yes"/>
      <point x="115" y="94"/>
      <point x="217" y="-27"/>
    </contour>
  </outline>
</glyph>
<glyph name="uni019D" format="2">
  <advance width="1343"/>
  <unicode hex="019D"/>
  <anchor x="672" y="-459" name="bottom"/>
  <anchor x="672" y="1462" name="top"/>
  <outline>
    <contour>
      <point x="39" y="-459" type="curve" smooth="yes"/>
      <point x="311" y="-459"/>
      <point x="444" y="-330"/>
      <point x="444" y="39" type="curve" smooth="yes"/>
      <point x="444" y="539" type="line" smooth="yes"/>
      <point x="444" y="623"/>
      <point x="440" y="748"/>
      <point x="428" y="909" type="curve"/>
      <point x="436" y="909" type="line"/>
      <point x="817" y="0" type="line"/>
      <point x="1223" y="0" type="line"/>
      <point x="1223" y="1462" type="line"/>
      <point x="897" y="1462" type="line"/>
      <point x="897" y="932" type="line" smooth="yes"/>
      <point x="897" y="844"/>
      <point x="903" y="725"/>
      <point x="911" y="578" type="curve"/>
      <point x="903" y="578" type="line"/>
      <point x="524" y="1462" type="line"/>
      <point x="121" y="1462" type="line"/>
      <point x="121" y="96" type="line" smooth="yes"/>
      <point x="121" y="-104"/>
      <point x="88" y="-164"/>
      <point x="-18" y="-164" type="curve" smooth="yes"/>
      <point x="-61" y="-164"/>
      <point x="-92" y="-156"/>
      <point x="-125" y="-143" type="curve"/>
      <point x="-125" y="-438" type="line"/>
      <point x="-72" y="-453"/>
      <point x="-20" y="-459"/>
    </contour>
  </outline>
</glyph>
<glyph name="Ohorn" format="2">
  <advance width="1323"/>
  <unicode hex="01A0"/>
  <anchor x="637" y="0" name="bottom"/>
  <anchor x="639" y="1462" name="top"/>
  <outline>
    <contour>
      <point x="1192" y="733" type="curve" smooth="yes"/>
      <point x="1192" y="862"/>
      <point x="1178" y="975"/>
      <point x="1151" y="1069" type="curve"/>
      <point x="1296" y="1147"/>
      <point x="1376" y="1268"/>
      <point x="1403" y="1534" type="curve"/>
      <point x="1393" y="1556" type="line"/>
      <point x="1085" y="1556" type="line"/>
      <point x="1085" y="1464"/>
      <point x="1075" y="1397"/>
      <point x="1042" y="1305" type="curve"/>
      <point x="948" y="1425"/>
      <point x="813" y="1485"/>
      <point x="637" y="1485" type="curve" smooth="yes"/>
      <point x="274" y="1485"/>
      <point x="80" y="1223"/>
      <point x="80" y="735" type="curve" smooth="yes"/>
      <point x="80" y="244"/>
      <point x="276" y="-20"/>
      <point x="637" y="-20" type="curve" smooth="yes"/>
      <point x="999" y="-20"/>
      <point x="1192" y="242"/>
    </contour>
    <contour>
      <point x="442" y="733" type="curve" smooth="yes"/>
      <point x="442" y="1034"/>
      <point x="508" y="1186"/>
      <point x="637" y="1186" type="curve" smooth="yes"/>
      <point x="766" y="1186"/>
      <point x="829" y="1042"/>
      <point x="829" y="733" type="curve" smooth="yes"/>
      <point x="829" y="426"/>
      <point x="768" y="285"/>
      <point x="637" y="285" type="curve" smooth="yes"/>
      <point x="508" y="285"/>
      <point x="442" y="434"/>
    </contour>
  </outline>
</glyph>
<glyph name="uni01A2" format="2">
  <advance width="1894"/>
  <unicode hex="01A2"/>
  <anchor x="948" y="0" name="bottom"/>
  <anchor x="948" y="1462" name="top"/>
  <outline>
    <contour>
      <point x="1192" y="733" type="curve" smooth="yes"/>
      <point x="1192" y="877"/>
      <point x="1174" y="999"/>
      <point x="1141" y="1102" type="curve"/>
      <point x="1180" y="1155"/>
      <point x="1229" y="1180"/>
      <point x="1278" y="1182" type="curve" smooth="yes"/>
      <point x="1386" y="1186"/>
      <point x="1432" y="1110"/>
      <point x="1432" y="985" type="curve" smooth="yes"/>
      <point x="1432" y="0" type="line"/>
      <point x="1780" y="0" type="line"/>
      <point x="1780" y="1094" type="line" smooth="yes"/>
      <point x="1780" y="1368"/>
      <point x="1622" y="1485"/>
      <point x="1407" y="1483" type="curve" smooth="yes"/>
      <point x="1272" y="1481"/>
      <point x="1163" y="1427"/>
      <point x="1053" y="1282" type="curve"/>
      <point x="956" y="1415"/>
      <point x="815" y="1485"/>
      <point x="637" y="1485" type="curve" smooth="yes"/>
      <point x="274" y="1485"/>
      <point x="80" y="1223"/>
      <point x="80" y="735" type="curve" smooth="yes"/>
      <point x="80" y="244"/>
      <point x="276" y="-20"/>
      <point x="637" y="-20" type="curve" smooth="yes"/>
      <point x="999" y="-20"/>
      <point x="1192" y="242"/>
    </contour>
    <contour>
      <point x="442" y="733" type="curve" smooth="yes"/>
      <point x="442" y="1034"/>
      <point x="508" y="1186"/>
      <point x="637" y="1186" type="curve" smooth="yes"/>
      <point x="766" y="1186"/>
      <point x="829" y="1042"/>
      <point x="829" y="733" type="curve" smooth="yes"/>
      <point x="829" y="426"/>
      <point x="768" y="285"/>
      <point x="637" y="285" type="curve" smooth="yes"/>
      <point x="508" y="285"/>
      <point x="442" y="434"/>
    </contour>
  </outline>
</glyph>
<glyph name="uni01A4" format="2">
  <advance width="1337"/>
  <unicode hex="01A4"/>
  <anchor x="670" y="0" name="bottom"/>
  <anchor x="670" y="1462" name="top"/>
  <outline>
    <contour>
      <point x="393" y="0" type="line"/>
      <point x="741" y="0" type="line"/>
      <point x="741" y="485" type="line"/>
      <point x="809" y="485" type="line" smooth="yes"/>
      <point x="1133" y="485"/>
      <point x="1280" y="705"/>
      <point x="1280" y="997" type="curve" smooth="yes"/>
      <point x="1280" y="1294"/>
      <point x="1128" y="1462"/>
      <point x="827" y="1462" type="curve" smooth="yes"/>
      <point x="397" y="1462" type="line" smooth="yes"/>
      <point x="94" y="1462"/>
      <point x="8" y="1286"/>
      <point x="8" y="1083" type="curve" smooth="yes"/>
      <point x="8" y="1026"/>
      <point x="27" y="983"/>
      <point x="35" y="965" type="curve"/>
      <point x="301" y="965" type="line"/>
      <point x="295" y="985"/>
      <point x="285" y="1018"/>
      <point x="285" y="1065" type="curve" smooth="yes"/>
      <point x="285" y="1116"/>
      <point x="307" y="1161"/>
      <point x="350" y="1161" type="curve" smooth="yes"/>
      <point x="393" y="1161" type="line"/>
    </contour>
    <contour>
      <point x="741" y="780" type="line"/>
      <point x="741" y="1167" type="line"/>
      <point x="795" y="1167" type="line" smooth="yes"/>
      <point x="887" y="1167"/>
      <point x="932" y="1110"/>
      <point x="932" y="995" type="curve" smooth="yes"/>
      <point x="932" y="840"/>
      <point x="868" y="780"/>
      <point x="772" y="780" type="curve" smooth="yes"/>
    </contour>
  </outline>
</glyph>
<glyph name="uni01A6" format="2">
  <advance width="1116"/>
  <unicode hex="01A6"/>
  <anchor x="559" y="-205" name="bottom"/>
  <anchor x="559" y="1462" name="top"/>
  <outline>
    <contour>
      <point x="743" y="-205" type="line"/>
      <point x="1126" y="-205" type="line"/>
      <point x="821" y="432" type="line"/>
      <point x="954" y="524"/>
      <point x="1020" y="655"/>
      <point x="1020" y="825" type="curve" smooth="yes"/>
      <point x="1020" y="1114"/>
      <point x="852" y="1257"/>
      <point x="512" y="1257" type="curve" smooth="yes"/>
      <point x="469" y="1257" type="line"/>
      <point x="469" y="1462" type="line"/>
      <point x="121" y="1462" type="line"/>
      <point x="121" y="0" type="line"/>
      <point x="469" y="0" type="line"/>
      <point x="469" y="344" type="line"/>
      <point x="514" y="344" type="line"/>
    </contour>
    <contour>
      <point x="469" y="614" type="line"/>
      <point x="469" y="967" type="line"/>
      <point x="508" y="967" type="line" smooth="yes"/>
      <point x="610" y="967"/>
      <point x="662" y="913"/>
      <point x="662" y="807" type="curve" smooth="yes"/>
      <point x="662" y="678"/>
      <point x="610" y="614"/>
      <point x="506" y="614" type="curve" smooth="yes"/>
    </contour>
  </outline>
</glyph>
<glyph name="uni01A7" format="2">
  <advance width="930"/>
  <unicode hex="01A7"/>
  <anchor x="465" y="0" name="bottom"/>
  <anchor x="465" y="1462" name="top"/>
  <outline>
    <contour>
      <point x="440" y="1483" type="curve" smooth="yes"/>
      <point x="319" y="1483"/>
      <point x="176" y="1448"/>
      <point x="51" y="1378" type="curve"/>
      <point x="143" y="1073" type="line"/>
      <point x="246" y="1137"/>
      <point x="332" y="1167"/>
      <point x="406" y="1167" type="curve" smooth="yes"/>
      <point x="481" y="1167"/>
      <point x="512" y="1126"/>
      <point x="512" y="1073" type="curve" smooth="yes"/>
      <point x="512" y="995"/>
      <point x="487" y="965"/>
      <point x="322" y="864" type="curve" smooth="yes"/>
      <point x="145" y="756"/>
      <point x="51" y="618"/>
      <point x="51" y="424" type="curve" smooth="yes"/>
      <point x="51" y="160"/>
      <point x="209" y="-20"/>
      <point x="489" y="-20" type="curve" smooth="yes"/>
      <point x="616" y="-20"/>
      <point x="748" y="2"/>
      <point x="872" y="72" type="curve"/>
      <point x="872" y="424" type="line"/>
      <point x="758" y="346"/>
      <point x="631" y="301"/>
      <point x="530" y="301" type="curve" smooth="yes"/>
      <point x="444" y="301"/>
      <point x="406" y="346"/>
      <point x="406" y="410" type="curve" smooth="yes"/>
      <point x="406" y="473"/>
      <point x="424" y="514"/>
      <point x="584" y="614" type="curve" smooth="yes"/>
      <point x="756" y="723"/>
      <point x="864" y="842"/>
      <point x="864" y="1075" type="curve" smooth="yes"/>
      <point x="864" y="1335"/>
      <point x="715" y="1483"/>
    </contour>
  </outline>
</glyph>
<glyph name="uni01AB" format="2">
  <advance width="725"/>
  <unicode hex="01AB"/>
  <anchor x="362" y="-492" name="bottom"/>
  <anchor x="362" y="1360" name="top"/>
  <outline>
    <contour>
      <point x="346" y="-492" type="curve" smooth="yes"/>
      <point x="565" y="-492"/>
      <point x="688" y="-340"/>
      <point x="688" y="-92" type="curve" smooth="yes"/>
      <point x="688" y="305" type="line"/>
      <point x="633" y="281"/>
      <point x="584" y="266"/>
      <point x="543" y="266" type="curve" smooth="yes"/>
      <point x="487" y="266"/>
      <point x="461" y="303"/>
      <point x="461" y="377" type="curve" smooth="yes"/>
      <point x="461" y="860" type="line"/>
      <point x="674" y="860" type="line"/>
      <point x="674" y="1133" type="line"/>
      <point x="461" y="1133" type="line"/>
      <point x="461" y="1360" type="line"/>
      <point x="236" y="1360" type="line"/>
      <point x="158" y="1122" type="line"/>
      <point x="14" y="1036" type="line"/>
      <point x="14" y="860" type="line"/>
      <point x="129" y="860" type="line"/>
      <point x="129" y="352" type="line" smooth="yes"/>
      <point x="129" y="129"/>
      <point x="221" y="-12"/>
      <point x="367" y="-12" type="curve" smooth="yes"/>
      <point x="369" y="-12"/>
      <point x="371" y="-12"/>
      <point x="373" y="-12" type="curve"/>
      <point x="373" y="-76" type="line" smooth="yes"/>
      <point x="373" y="-162"/>
      <point x="328" y="-205"/>
      <point x="266" y="-205" type="curve" smooth="yes"/>
      <point x="238" y="-205"/>
      <point x="207" y="-199"/>
      <point x="174" y="-186" type="curve"/>
      <point x="174" y="-467" type="line"/>
      <point x="211" y="-479"/>
      <point x="297" y="-492"/>
    </contour>
  </outline>
</glyph>
<glyph name="uni01AC" format="2">
  <advance width="1073"/>
  <unicode hex="01AC"/>
  <anchor x="537" y="0" name="bottom"/>
  <anchor x="537" y="1462" name="top"/>
  <outline>
    <contour>
      <point x="430" y="0" type="line"/>
      <point x="776" y="0" type="line"/>
      <point x="776" y="1161" type="line"/>
      <point x="1038" y="1161" type="line"/>
      <point x="1038" y="1462" type="line"/>
      <point x="397" y="1462" type="line" smooth="yes"/>
      <point x="94" y="1462"/>
      <point x="8" y="1286"/>
      <point x="8" y="1083" type="curve" smooth="yes"/>
      <point x="8" y="1026"/>
      <point x="27" y="983"/>
      <point x="35" y="965" type="curve"/>
      <point x="301" y="965" type="line"/>
      <point x="295" y="985"/>
      <point x="285" y="1018"/>
      <point x="285" y="1065" type="curve" smooth="yes"/>
      <point x="285" y="1116"/>
      <point x="307" y="1161"/>
      <point x="350" y="1161" type="curve" smooth="yes"/>
      <point x="430" y="1161" type="line"/>
    </contour>
  </outline>
</glyph>
<glyph name="uni01AE" format="2">
  <advance width="942"/>
  <unicode hex="01AE"/>
  <anchor x="471" y="-459" name="bottom"/>
  <anchor x="471" y="1462" name="top"/>
  <outline>
    <contour>
      <point x="705" y="-459" type="curve" smooth="yes"/>
      <point x="764" y="-459"/>
      <point x="815" y="-453"/>
      <point x="868" y="-438" type="curve"/>
      <point x="868" y="-143" type="line"/>
      <point x="836" y="-156"/>
      <point x="805" y="-164"/>
      <point x="762" y="-164" type="curve" smooth="yes"/>
      <point x="655" y="-164"/>
      <point x="645" y="-104"/>
      <point x="645" y="0" type="curve" smooth="yes"/>
      <point x="645" y="1161" type="line"/>
      <point x="907" y="1161" type="line"/>
      <point x="907" y="1462" type="line"/>
      <point x="35" y="1462" type="line"/>
      <point x="35" y="1161" type="line"/>
      <point x="299" y="1161" type="line"/>
      <point x="299" y="-12" type="line" smooth="yes"/>
      <point x="299" y="-330"/>
      <point x="432" y="-459"/>
    </contour>
  </outline>
</glyph>
<glyph name="uni01B1" format="2">
  <advance width="1276"/>
  <unicode hex="01B1"/>
  <anchor x="639" y="0" name="bottom"/>
  <anchor x="639" y="1462" name="top"/>
  <outline>
    <contour>
      <point x="637" y="276" type="curve" smooth="yes"/>
      <point x="506" y="276"/>
      <point x="432" y="412"/>
      <point x="432" y="647" type="curve" smooth="yes"/>
      <point x="432" y="883"/>
      <point x="471" y="1034"/>
      <point x="578" y="1120" type="curve"/>
      <point x="578" y="1462" type="line"/>
      <point x="39" y="1462" type="line"/>
      <point x="39" y="1163" type="line"/>
      <point x="332" y="1163" type="line"/>
      <point x="170" y="1057"/>
      <point x="82" y="864"/>
      <point x="82" y="596" type="curve" smooth="yes"/>
      <point x="82" y="209"/>
      <point x="332" y="-23"/>
      <point x="637" y="-23" type="curve" smooth="yes"/>
      <point x="969" y="-23"/>
      <point x="1196" y="217"/>
      <point x="1196" y="598" type="curve" smooth="yes"/>
      <point x="1196" y="864"/>
      <point x="1104" y="1067"/>
      <point x="952" y="1163" type="curve"/>
      <point x="1237" y="1163" type="line"/>
      <point x="1237" y="1462" type="line"/>
      <point x="702" y="1462" type="line"/>
      <point x="702" y="1120" type="line"/>
      <point x="803" y="1038"/>
      <point x="844" y="889"/>
      <point x="844" y="651" type="curve" smooth="yes"/>
      <point x="844" y="416"/>
      <point x="768" y="276"/>
    </contour>
  </outline>
</glyph>
<glyph name="uni01B2" format="2">
  <advance width="1204"/>
  <unicode hex="01B2"/>
  <anchor x="598" y="0" name="bottom"/>
  <anchor x="627" y="1462" name="top"/>
  <anchor x="1163" y="1462" name="topright"/>
  <outline>
    <contour>
      <point x="598" y="-20" type="curve" smooth="yes"/>
      <point x="918" y="-20"/>
      <point x="1092" y="158"/>
      <point x="1092" y="496" type="curve" smooth="yes"/>
      <point x="1092" y="1167" type="line" smooth="yes"/>
      <point x="1092" y="1362"/>
      <point x="993" y="1483"/>
      <point x="807" y="1483" type="curve" smooth="yes"/>
      <point x="725" y="1483"/>
      <point x="621" y="1464"/>
      <point x="580" y="1440" type="curve"/>
      <point x="580" y="1151" type="line"/>
      <point x="604" y="1161"/>
      <point x="637" y="1171"/>
      <point x="674" y="1171" type="curve" smooth="yes"/>
      <point x="707" y="1171"/>
      <point x="743" y="1149"/>
      <point x="743" y="1098" type="curve" smooth="yes"/>
      <point x="743" y="506" type="line" smooth="yes"/>
      <point x="743" y="342"/>
      <point x="700" y="285"/>
      <point x="602" y="285" type="curve" smooth="yes"/>
      <point x="510" y="285"/>
      <point x="463" y="344"/>
      <point x="463" y="504" type="curve" smooth="yes"/>
      <point x="463" y="1462" type="line"/>
      <point x="115" y="1462" type="line"/>
      <point x="115" y="487" type="line" smooth="yes"/>
      <point x="115" y="147"/>
      <point x="287" y="-20"/>
    </contour>
  </outline>
</glyph>
<glyph name="uni01B4" format="2">
  <advance width="1081"/>
  <unicode hex="01B4"/>
  <anchor x="541" y="-492" name="bottom"/>
  <anchor x="541" y="1133" name="top"/>
  <outline>
    <contour>
      <point x="889" y="1151" type="curve"/>
      <point x="696" y="1151"/>
      <point x="631" y="1016"/>
      <point x="598" y="868" type="curve" smooth="yes"/>
      <point x="547" y="637" type="line" smooth="yes"/>
      <point x="528" y="555"/>
      <point x="516" y="496"/>
      <point x="512" y="451" type="curve"/>
      <point x="504" y="451" type="line"/>
      <point x="502" y="498"/>
      <point x="487" y="571"/>
      <point x="471" y="641" type="curve" smooth="yes"/>
      <point x="352" y="1133" type="line"/>
      <point x="4" y="1133" type="line"/>
      <point x="346" y="16" type="line"/>
      <point x="340" y="-4" type="line" smooth="yes"/>
      <point x="289" y="-170"/>
      <point x="268" y="-197"/>
      <point x="186" y="-197" type="curve" smooth="yes"/>
      <point x="160" y="-197"/>
      <point x="131" y="-193"/>
      <point x="104" y="-184" type="curve"/>
      <point x="104" y="-475" type="line"/>
      <point x="147" y="-485"/>
      <point x="195" y="-492"/>
      <point x="248" y="-492" type="curve" smooth="yes"/>
      <point x="453" y="-492"/>
      <point x="571" y="-383"/>
      <point x="659" y="-72" type="curve" smooth="yes"/>
      <point x="850" y="604" type="line" smooth="yes"/>
      <point x="907" y="807"/>
      <point x="952" y="840"/>
      <point x="1012" y="840" type="curve"/>
      <point x="1026" y="840"/>
      <point x="1049" y="836"/>
      <point x="1071" y="829" type="curve"/>
      <point x="1071" y="1112" type="line"/>
      <point x="1034" y="1133"/>
      <point x="950" y="1151"/>
    </contour>
  </outline>
</glyph>
<glyph name="uni01B8" format="2">
  <advance width="1059"/>
  <unicode hex="01B8"/>
  <anchor x="530" y="0" name="bottom"/>
  <anchor x="530" y="1462" name="top"/>
  <outline>
    <contour>
      <point x="616" y="-20" type="curve" smooth="yes"/>
      <point x="772" y="-20"/>
      <point x="901" y="4"/>
      <point x="1006" y="53" type="curve"/>
      <point x="1006" y="377" type="line"/>
      <point x="922" y="319"/>
      <point x="776" y="281"/>
      <point x="674" y="281" type="curve" smooth="yes"/>
      <point x="506" y="281"/>
      <point x="440" y="330"/>
      <point x="440" y="461" type="curve" smooth="yes"/>
      <point x="440" y="578"/>
      <point x="524" y="637"/>
      <point x="690" y="637" type="curve" smooth="yes"/>
      <point x="817" y="637" type="line"/>
      <point x="817" y="866" type="line"/>
      <point x="561" y="1167" type="line"/>
      <point x="963" y="1167" type="line"/>
      <point x="963" y="1462" type="line"/>
      <point x="145" y="1462" type="line"/>
      <point x="145" y="1219" type="line"/>
      <point x="446" y="881" type="line"/>
      <point x="190" y="838"/>
      <point x="84" y="659"/>
      <point x="84" y="438" type="curve" smooth="yes"/>
      <point x="84" y="160"/>
      <point x="238" y="-20"/>
    </contour>
  </outline>
</glyph>
<glyph name="uni01B9" format="2">
  <advance width="963"/>
  <unicode hex="01B9"/>
  <anchor x="481" y="-492" name="bottom"/>
  <anchor x="481" y="1133" name="top"/>
  <outline>
    <contour>
      <point x="608" y="-492" type="curve" smooth="yes"/>
      <point x="780" y="-492"/>
      <point x="889" y="-449"/>
      <point x="948" y="-420" type="curve"/>
      <point x="948" y="-119" type="line"/>
      <point x="872" y="-156"/>
      <point x="768" y="-195"/>
      <point x="645" y="-195" type="curve" smooth="yes"/>
      <point x="483" y="-195"/>
      <point x="389" y="-119"/>
      <point x="389" y="39" type="curve" smooth="yes"/>
      <point x="389" y="205"/>
      <point x="494" y="262"/>
      <point x="690" y="262" type="curve" smooth="yes"/>
      <point x="768" y="262" type="line"/>
      <point x="768" y="498" type="line"/>
      <point x="494" y="856" type="line"/>
      <point x="920" y="856" type="line"/>
      <point x="920" y="1133" type="line"/>
      <point x="102" y="1133" type="line"/>
      <point x="102" y="913" type="line"/>
      <point x="422" y="506" type="line"/>
      <point x="217" y="477"/>
      <point x="53" y="354"/>
      <point x="53" y="57" type="curve" smooth="yes"/>
      <point x="53" y="-293"/>
      <point x="270" y="-492"/>
    </contour>
  </outline>
</glyph>
<glyph name="uni01BE" format="2">
  <advance width="848"/>
  <unicode hex="01BE"/>
  <anchor x="424" y="0" name="bottom"/>
  <anchor x="424" y="1360" name="top"/>
  <outline>
    <contour>
      <point x="412" y="-20" type="curve" smooth="yes"/>
      <point x="653" y="-20"/>
      <point x="786" y="121"/>
      <point x="786" y="324" type="curve" smooth="yes"/>
      <point x="786" y="500"/>
      <point x="739" y="584"/>
      <point x="612" y="680" type="curve" smooth="yes"/>
      <point x="539" y="735"/>
      <point x="526" y="774"/>
      <point x="526" y="803" type="curve" smooth="yes"/>
      <point x="526" y="860" type="line"/>
      <point x="743" y="860" type="line"/>
      <point x="743" y="1133" type="line"/>
      <point x="526" y="1133" type="line"/>
      <point x="526" y="1360" type="line"/>
      <point x="301" y="1360" type="line"/>
      <point x="223" y="1122" type="line"/>
      <point x="59" y="1036" type="line"/>
      <point x="59" y="860" type="line"/>
      <point x="199" y="860" type="line"/>
      <point x="199" y="778" type="line" smooth="yes"/>
      <point x="199" y="664"/>
      <point x="221" y="582"/>
      <point x="328" y="510" type="curve" smooth="yes"/>
      <point x="410" y="455"/>
      <point x="451" y="416"/>
      <point x="451" y="358" type="curve" smooth="yes"/>
      <point x="451" y="305"/>
      <point x="414" y="274"/>
      <point x="334" y="274" type="curve" smooth="yes"/>
      <point x="262" y="274"/>
      <point x="164" y="291"/>
      <point x="55" y="352" type="curve"/>
      <point x="55" y="47" type="line"/>
      <point x="158" y="-2"/>
      <point x="264" y="-20"/>
    </contour>
  </outline>
</glyph>
<glyph name="uni01BF" format="2">
  <advance width="1073"/>
  <unicode hex="01BF"/>
  <anchor x="537" y="-492" name="bottom"/>
  <anchor x="537" y="1133" name="top"/>
  <outline>
    <contour>
      <point x="672" y="1153" type="curve" smooth="yes"/>
      <point x="571" y="1153"/>
      <point x="496" y="1126"/>
      <point x="434" y="987" type="curve"/>
      <point x="418" y="987" type="line"/>
      <point x="369" y="1133" type="line"/>
      <point x="102" y="1133" type="line"/>
      <point x="102" y="-492" type="line"/>
      <point x="434" y="-492" type="line"/>
      <point x="434" y="-20" type="line"/>
      <point x="668" y="0"/>
      <point x="1008" y="221"/>
      <point x="1008" y="674" type="curve" smooth="yes"/>
      <point x="1008" y="999"/>
      <point x="883" y="1153"/>
    </contour>
    <contour>
      <point x="561" y="877" type="curve" smooth="yes"/>
      <point x="633" y="877"/>
      <point x="672" y="811"/>
      <point x="672" y="659" type="curve" smooth="yes"/>
      <point x="672" y="403"/>
      <point x="539" y="281"/>
      <point x="434" y="264" type="curve"/>
      <point x="434" y="590" type="line"/>
      <point x="434" y="795"/>
      <point x="471" y="877"/>
    </contour>
  </outline>
</glyph>
<glyph name="uni01E5" format="2">
  <advance width="1073"/>
  <unicode hex="01E5"/>
  <anchor x="537" y="-492" name="bottom"/>
  <anchor x="537" y="1133" name="top"/>
  <outline>
    <contour>
      <point x="403" y="1153" type="curve" smooth="yes"/>
      <point x="190" y="1153"/>
      <point x="66" y="948"/>
      <point x="66" y="627" type="curve" smooth="yes"/>
      <point x="66" y="326"/>
      <point x="190" y="123"/>
      <point x="393" y="123" type="curve" smooth="yes"/>
      <point x="510" y="123"/>
      <point x="578" y="168"/>
      <point x="639" y="274" type="curve"/>
      <point x="649" y="274" type="line"/>
      <point x="643" y="233"/>
      <point x="639" y="164"/>
      <point x="639" y="119" type="curve" smooth="yes"/>
      <point x="639" y="35" type="line"/>
      <point x="401" y="35" type="line"/>
      <point x="401" y="-150" type="line"/>
      <point x="627" y="-150" type="line"/>
      <point x="602" y="-229"/>
      <point x="532" y="-250"/>
      <point x="438" y="-250" type="curve" smooth="yes"/>
      <point x="338" y="-250"/>
      <point x="236" y="-225"/>
      <point x="115" y="-172" type="curve"/>
      <point x="115" y="-416" type="line"/>
      <point x="211" y="-463"/>
      <point x="315" y="-492"/>
      <point x="449" y="-492" type="curve" smooth="yes"/>
      <point x="770" y="-492"/>
      <point x="930" y="-377"/>
      <point x="965" y="-150" type="curve"/>
      <point x="1067" y="-150" type="line"/>
      <point x="1067" y="35" type="line"/>
      <point x="971" y="35" type="line"/>
      <point x="971" y="1133" type="line"/>
      <point x="684" y="1133" type="line"/>
      <point x="657" y="991" type="line"/>
      <point x="639" y="991" type="line"/>
      <point x="575" y="1114"/>
      <point x="510" y="1153"/>
    </contour>
    <contour>
      <point x="512" y="868" type="curve" smooth="yes"/>
      <point x="602" y="868"/>
      <point x="639" y="801"/>
      <point x="639" y="651" type="curve" smooth="yes"/>
      <point x="639" y="600" type="line" smooth="yes"/>
      <point x="639" y="473"/>
      <point x="602" y="408"/>
      <point x="514" y="408" type="curve" smooth="yes"/>
      <point x="440" y="408"/>
      <point x="401" y="487"/>
      <point x="401" y="625" type="curve" smooth="yes"/>
      <point x="401" y="784"/>
      <point x="442" y="868"/>
    </contour>
  </outline>
</glyph>
<glyph name="uni01F7" format="2">
  <advance width="1198"/>
  <unicode hex="01F7"/>
  <anchor x="600" y="-492" name="bottom"/>
  <anchor x="600" y="1462" name="top"/>
  <outline>
    <contour>
      <point x="717" y="1481" type="curve" smooth="yes"/>
      <point x="594" y="1481"/>
      <point x="520" y="1423"/>
      <point x="469" y="1315" type="curve"/>
      <point x="461" y="1315" type="line"/>
      <point x="420" y="1462" type="line"/>
      <point x="121" y="1462" type="line"/>
      <point x="121" y="-492" type="line"/>
      <point x="469" y="-492" type="line"/>
      <point x="469" y="-4" type="line"/>
      <point x="817" y="70"/>
      <point x="1128" y="377"/>
      <point x="1128" y="883" type="curve" smooth="yes"/>
      <point x="1128" y="1274"/>
      <point x="987" y="1481"/>
    </contour>
    <contour>
      <point x="618" y="1184" type="curve" smooth="yes"/>
      <point x="733" y="1184"/>
      <point x="766" y="1077"/>
      <point x="766" y="901" type="curve" smooth="yes"/>
      <point x="766" y="492"/>
      <point x="618" y="346"/>
      <point x="469" y="299" type="curve"/>
      <point x="469" y="911" type="line" smooth="yes"/>
      <point x="469" y="1090"/>
      <point x="508" y="1180"/>
    </contour>
  </outline>
</glyph>
<glyph name="Aringacute" format="2">
  <advance width="1176"/>
  <unicode hex="01FA"/>
  <anchor x="588" y="0" name="bottom"/>
  <anchor x="588" y="1974" name="top"/>
  <outline>
    <contour>
      <point x="0" y="0" type="line"/>
      <point x="377" y="0" type="line"/>
      <point x="432" y="285" type="line"/>
      <point x="748" y="285" type="line"/>
      <point x="803" y="0" type="line"/>
      <point x="1176" y="0" type="line"/>
      <point x="823" y="1368" type="line"/>
      <point x="836" y="1399"/>
      <point x="842" y="1432"/>
      <point x="842" y="1466" type="curve" smooth="yes"/>
      <point x="842" y="1608"/>
      <point x="737" y="1718"/>
      <point x="588" y="1718" type="curve" smooth="yes"/>
      <point x="434" y="1718"/>
      <point x="334" y="1612"/>
      <point x="334" y="1464" type="curve" smooth="yes"/>
      <point x="334" y="1430"/>
      <point x="340" y="1399"/>
      <point x="350" y="1368" type="curve"/>
    </contour>
    <contour>
      <point x="483" y="584" type="line"/>
      <point x="545" y="895" type="line"/>
      <point x="561" y="997"/>
      <point x="582" y="1130"/>
      <point x="588" y="1198" type="curve"/>
      <point x="596" y="1135"/>
      <point x="616" y="987"/>
      <point x="635" y="891" type="curve" smooth="yes"/>
      <point x="694" y="584" type="line"/>
    </contour>
    <contour>
      <point x="588" y="1382" type="curve" smooth="yes"/>
      <point x="532" y="1382"/>
      <point x="504" y="1417"/>
      <point x="504" y="1466" type="curve" smooth="yes"/>
      <point x="504" y="1516"/>
      <point x="541" y="1550"/>
      <point x="588" y="1550" type="curve" smooth="yes"/>
      <point x="635" y="1550"/>
      <point x="672" y="1516"/>
      <point x="672" y="1466" type="curve" smooth="yes"/>
      <point x="672" y="1417"/>
      <point x="635" y="1382"/>
    </contour>
    <contour>
      <point x="422" y="1790" type="line"/>
      <point x="700" y="1790" type="line"/>
      <point x="748" y="1819"/>
      <point x="899" y="1919"/>
      <point x="952" y="1962" type="curve"/>
      <point x="952" y="1974" type="line"/>
      <point x="555" y="1974" type="line"/>
      <point x="532" y="1935"/>
      <point x="532" y="1935"/>
      <point x="422" y="1806" type="curve"/>
    </contour>
  </outline>
</glyph>
<glyph name="aringacute" format="2">
  <advance width="1012"/>
  <unicode hex="01FB"/>
  <anchor x="506" y="0" name="bottom"/>
  <anchor x="506" y="1974" name="top"/>
  <outline>
    <contour>
      <point x="545" y="1153" type="curve" smooth="yes"/>
      <point x="389" y="1153"/>
      <point x="252" y="1116"/>
      <point x="141" y="1051" type="curve"/>
      <point x="227" y="805" type="line"/>
      <point x="328" y="862"/>
      <point x="406" y="889"/>
      <point x="471" y="889" type="curve" smooth="yes"/>
      <point x="545" y="889"/>
      <point x="580" y="842"/>
      <point x="580" y="750" type="curve" smooth="yes"/>
      <point x="580" y="721" type="line"/>
      <point x="432" y="715" type="line" smooth="yes"/>
      <point x="184" y="705"/>
      <point x="51" y="588"/>
      <point x="51" y="346" type="curve" smooth="yes"/>
      <point x="51" y="162"/>
      <point x="125" y="-20"/>
      <point x="319" y="-20" type="curve" smooth="yes"/>
      <point x="461" y="-20"/>
      <point x="537" y="35"/>
      <point x="610" y="150" type="curve"/>
      <point x="616" y="150" type="line"/>
      <point x="672" y="0" type="line"/>
      <point x="911" y="0" type="line"/>
      <point x="911" y="743" type="line" smooth="yes"/>
      <point x="911" y="1020"/>
      <point x="770" y="1153"/>
    </contour>
    <contour>
      <point x="580" y="506" type="line"/>
      <point x="580" y="406" type="line" smooth="yes"/>
      <point x="580" y="309"/>
      <point x="528" y="244"/>
      <point x="463" y="244" type="curve" smooth="yes"/>
      <point x="410" y="244"/>
      <point x="383" y="283"/>
      <point x="383" y="360" type="curve" smooth="yes"/>
      <point x="383" y="451"/>
      <point x="428" y="498"/>
      <point x="518" y="502" type="curve" smooth="yes"/>
    </contour>
    <contour>
      <point x="514" y="1542" type="curve" smooth="yes"/>
      <point x="561" y="1542"/>
      <point x="598" y="1509"/>
      <point x="598" y="1458" type="curve" smooth="yes"/>
      <point x="598" y="1409"/>
      <point x="561" y="1374"/>
      <point x="514" y="1374" type="curve" smooth="yes"/>
      <point x="459" y="1374"/>
      <point x="430" y="1409"/>
      <point x="430" y="1458" type="curve" smooth="yes"/>
      <point x="430" y="1509"/>
      <point x="469" y="1542"/>
    </contour>
    <contour>
      <point x="514" y="1710" type="curve" smooth="yes"/>
      <point x="362" y="1710"/>
      <point x="260" y="1606"/>
      <point x="260" y="1458" type="curve" smooth="yes"/>
      <point x="260" y="1313"/>
      <point x="360" y="1206"/>
      <point x="514" y="1206" type="curve" smooth="yes"/>
      <point x="668" y="1206"/>
      <point x="776" y="1319"/>
      <point x="776" y="1460" type="curve" smooth="yes"/>
      <point x="776" y="1602"/>
      <point x="659" y="1710"/>
    </contour>
    <contour>
      <point x="895" y="1974" type="line"/>
      <point x="498" y="1974" type="line"/>
      <point x="475" y="1931"/>
      <point x="475" y="1929"/>
      <point x="362" y="1782" type="curve"/>
      <point x="362" y="1763" type="line"/>
      <point x="643" y="1763" type="line"/>
      <point x="690" y="1796"/>
      <point x="842" y="1911"/>
      <point x="895" y="1962" type="curve"/>
    </contour>
  </outline>
</glyph>
<glyph name="uni021D" format="2">
  <advance width="866"/>
  <unicode hex="021D"/>
  <anchor x="406" y="-391" name="bottom"/>
  <anchor x="387" y="1126" name="top"/>
  <outline>
    <contour>
      <point x="45" y="-492" type="line"/>
      <point x="483" y="-389"/>
      <point x="801" y="-260"/>
      <point x="801" y="137" type="curve" smooth="yes"/>
      <point x="801" y="289"/>
      <point x="745" y="389"/>
      <point x="655" y="459" type="curve"/>
      <point x="743" y="537"/>
      <point x="793" y="637"/>
      <point x="793" y="766" type="curve" smooth="yes"/>
      <point x="793" y="1012"/>
      <point x="637" y="1153"/>
      <point x="395" y="1153" type="curve" smooth="yes"/>
      <point x="244" y="1153"/>
      <point x="137" y="1116"/>
      <point x="33" y="1057" type="curve"/>
      <point x="131" y="791" type="line"/>
      <point x="190" y="825"/>
      <point x="258" y="850"/>
      <point x="342" y="850" type="curve" smooth="yes"/>
      <point x="406" y="850"/>
      <point x="465" y="819"/>
      <point x="465" y="731" type="curve" smooth="yes"/>
      <point x="465" y="621"/>
      <point x="369" y="559"/>
      <point x="182" y="512" type="curve"/>
      <point x="246" y="266" type="line"/>
      <point x="307" y="283"/>
      <point x="358" y="301"/>
      <point x="412" y="322" type="curve"/>
      <point x="446" y="274"/>
      <point x="465" y="217"/>
      <point x="465" y="143" type="curve" smooth="yes"/>
      <point x="465" y="-33"/>
      <point x="369" y="-121"/>
      <point x="45" y="-199" type="curve"/>
    </contour>
  </outline>
</glyph>
<glyph name="uni0220" format="2">
  <advance width="1219"/>
  <unicode hex="0220"/>
  <anchor x="610" y="-492" name="bottom"/>
  <anchor x="610" y="1462" name="top"/>
  <outline>
    <contour>
      <point x="754" y="1483" type="curve" smooth="yes"/>
      <point x="641" y="1481"/>
      <point x="543" y="1423"/>
      <point x="469" y="1315" type="curve"/>
      <point x="461" y="1315" type="line"/>
      <point x="420" y="1462" type="line"/>
      <point x="121" y="1462" type="line"/>
      <point x="121" y="0" type="line"/>
      <point x="469" y="0" type="line"/>
      <point x="469" y="911" type="line" smooth="yes"/>
      <point x="469" y="1090"/>
      <point x="532" y="1180"/>
      <point x="625" y="1182" type="curve" smooth="yes"/>
      <point x="733" y="1184"/>
      <point x="758" y="1110"/>
      <point x="758" y="985" type="curve" smooth="yes"/>
      <point x="758" y="-492" type="line"/>
      <point x="1106" y="-492" type="line"/>
      <point x="1106" y="1094" type="line" smooth="yes"/>
      <point x="1106" y="1368"/>
      <point x="969" y="1489"/>
    </contour>
  </outline>
</glyph>
<glyph name="uni0221" format="2">
  <advance width="1495"/>
  <unicode hex="0221"/>
  <anchor x="748" y="-217" name="bottom"/>
  <anchor x="748" y="1556" name="top"/>
  <outline>
    <contour>
      <point x="1069" y="-217" type="line"/>
      <point x="1069" y="-141"/>
      <point x="1075" y="-78"/>
      <point x="1085" y="-8" type="curve"/>
      <point x="1100" y="-10"/>
      <point x="1135" y="-12"/>
      <point x="1145" y="-12" type="curve" smooth="yes"/>
      <point x="1395" y="-12"/>
      <point x="1485" y="131"/>
      <point x="1485" y="281" type="curve" smooth="yes"/>
      <point x="1485" y="426"/>
      <point x="1386" y="537"/>
      <point x="1223" y="537" type="curve" smooth="yes"/>
      <point x="1145" y="537"/>
      <point x="1053" y="510"/>
      <point x="975" y="410" type="curve"/>
      <point x="971" y="442"/>
      <point x="971" y="473"/>
      <point x="971" y="496" type="curve"/>
      <point x="971" y="1556" type="line"/>
      <point x="639" y="1556" type="line"/>
      <point x="639" y="1204" type="line" smooth="yes"/>
      <point x="639" y="1161"/>
      <point x="643" y="1090"/>
      <point x="649" y="987" type="curve"/>
      <point x="639" y="987" type="line"/>
      <point x="578" y="1104"/>
      <point x="498" y="1153"/>
      <point x="393" y="1153" type="curve" smooth="yes"/>
      <point x="190" y="1153"/>
      <point x="66" y="932"/>
      <point x="66" y="569" type="curve" smooth="yes"/>
      <point x="66" y="207"/>
      <point x="188" y="-20"/>
      <point x="403" y="-20" type="curve" smooth="yes"/>
      <point x="549" y="-20"/>
      <point x="653" y="45"/>
      <point x="707" y="195" type="curve"/>
      <point x="719" y="195" type="line"/>
      <point x="723" y="170"/>
      <point x="788" y="84"/>
      <point x="838" y="57" type="curve"/>
      <point x="825" y="-23"/>
      <point x="815" y="-102"/>
      <point x="811" y="-207" type="curve"/>
    </contour>
    <contour>
      <point x="512" y="256" type="curve" smooth="yes"/>
      <point x="442" y="256"/>
      <point x="401" y="358"/>
      <point x="401" y="573" type="curve" smooth="yes"/>
      <point x="401" y="770"/>
      <point x="440" y="868"/>
      <point x="514" y="868" type="curve" smooth="yes"/>
      <point x="602" y="868"/>
      <point x="639" y="788"/>
      <point x="639" y="608" type="curve" smooth="yes"/>
      <point x="639" y="543" type="line" smooth="yes"/>
      <point x="639" y="340"/>
      <point x="602" y="256"/>
    </contour>
    <contour>
      <point x="1165" y="215" type="curve" smooth="yes"/>
      <point x="1153" y="215"/>
      <point x="1141" y="217"/>
      <point x="1135" y="219" type="curve"/>
      <point x="1143" y="258"/>
      <point x="1161" y="301"/>
      <point x="1198" y="301" type="curve" smooth="yes"/>
      <point x="1225" y="301"/>
      <point x="1243" y="285"/>
      <point x="1243" y="260" type="curve" smooth="yes"/>
      <point x="1243" y="238"/>
      <point x="1217" y="215"/>
    </contour>
  </outline>
</glyph>
<glyph name="uni0222" format="2">
  <advance width="1272"/>
  <unicode hex="0222"/>
  <anchor x="637" y="0" name="bottom"/>
  <anchor x="637" y="1462" name="top"/>
  <outline>
    <contour>
      <point x="637" y="-20" type="curve" smooth="yes"/>
      <point x="999" y="-20"/>
      <point x="1192" y="160"/>
      <point x="1192" y="498" type="curve" smooth="yes"/>
      <point x="1192" y="674"/>
      <point x="1124" y="801"/>
      <point x="995" y="874" type="curve"/>
      <point x="1079" y="954"/>
      <point x="1124" y="1073"/>
      <point x="1124" y="1233" type="curve" smooth="yes"/>
      <point x="1124" y="1462" type="line"/>
      <point x="776" y="1462" type="line"/>
      <point x="776" y="1214" type="line" smooth="yes"/>
      <point x="776" y="1051"/>
      <point x="733" y="993"/>
      <point x="635" y="993" type="curve" smooth="yes"/>
      <point x="543" y="993"/>
      <point x="496" y="1053"/>
      <point x="496" y="1212" type="curve" smooth="yes"/>
      <point x="496" y="1462" type="line"/>
      <point x="147" y="1462" type="line"/>
      <point x="147" y="1225" type="line" smooth="yes"/>
      <point x="147" y="1065"/>
      <point x="190" y="948"/>
      <point x="272" y="870" type="curve"/>
      <point x="145" y="797"/>
      <point x="80" y="670"/>
      <point x="80" y="500" type="curve" smooth="yes"/>
      <point x="80" y="162"/>
      <point x="276" y="-20"/>
    </contour>
    <contour>
      <point x="637" y="285" type="curve" smooth="yes"/>
      <point x="508" y="285"/>
      <point x="442" y="356"/>
      <point x="442" y="500" type="curve" smooth="yes"/>
      <point x="442" y="643"/>
      <point x="508" y="715"/>
      <point x="637" y="715" type="curve" smooth="yes"/>
      <point x="766" y="715"/>
      <point x="829" y="647"/>
      <point x="829" y="500" type="curve" smooth="yes"/>
      <point x="829" y="352"/>
      <point x="768" y="285"/>
    </contour>
  </outline>
</glyph>
<glyph name="uni0223" format="2">
  <advance width="1096"/>
  <unicode hex="0223"/>
  <anchor x="549" y="0" name="bottom"/>
  <anchor x="549" y="1567" name="top"/>
  <outline>
    <contour>
      <point x="547" y="-20" type="curve" smooth="yes"/>
      <point x="911" y="-20"/>
      <point x="1030" y="250"/>
      <point x="1030" y="524" type="curve" smooth="yes"/>
      <point x="1030" y="721"/>
      <point x="961" y="852"/>
      <point x="846" y="930" type="curve"/>
      <point x="934" y="993"/>
      <point x="979" y="1096"/>
      <point x="979" y="1243" type="curve" smooth="yes"/>
      <point x="979" y="1567" type="line"/>
      <point x="647" y="1567" type="line"/>
      <point x="647" y="1231" type="line" smooth="yes"/>
      <point x="647" y="1110"/>
      <point x="625" y="1059"/>
      <point x="549" y="1059" type="curve" smooth="yes"/>
      <point x="471" y="1059"/>
      <point x="449" y="1092"/>
      <point x="449" y="1235" type="curve" smooth="yes"/>
      <point x="449" y="1567" type="line"/>
      <point x="117" y="1567" type="line"/>
      <point x="117" y="1253" type="line" smooth="yes"/>
      <point x="117" y="1085"/>
      <point x="160" y="983"/>
      <point x="240" y="924" type="curve"/>
      <point x="123" y="840"/>
      <point x="66" y="702"/>
      <point x="66" y="524" type="curve" smooth="yes"/>
      <point x="66" y="242"/>
      <point x="211" y="-20"/>
    </contour>
    <contour>
      <point x="549" y="256" type="curve" smooth="yes"/>
      <point x="446" y="256"/>
      <point x="401" y="350"/>
      <point x="401" y="530" type="curve" smooth="yes"/>
      <point x="401" y="719"/>
      <point x="446" y="805"/>
      <point x="549" y="805" type="curve" smooth="yes"/>
      <point x="655" y="805"/>
      <point x="694" y="717"/>
      <point x="694" y="532" type="curve" smooth="yes"/>
      <point x="694" y="348"/>
      <point x="655" y="256"/>
    </contour>
  </outline>
</glyph>
<glyph name="uni0235" format="2">
  <advance width="1399"/>
  <unicode hex="0235"/>
  <anchor x="700" y="0" name="bottom"/>
  <anchor x="700" y="1133" name="top"/>
  <outline>
    <contour>
      <point x="750" y="-86" type="line"/>
      <point x="766" y="-43"/>
      <point x="782" y="-4"/>
      <point x="797" y="33" type="curve"/>
      <point x="854" y="-2"/>
      <point x="928" y="-20"/>
      <point x="1020" y="-20" type="curve" smooth="yes"/>
      <point x="1237" y="-20"/>
      <point x="1362" y="102"/>
      <point x="1362" y="276" type="curve" smooth="yes"/>
      <point x="1362" y="459"/>
      <point x="1243" y="565"/>
      <point x="1075" y="565" type="curve" smooth="yes"/>
      <point x="1042" y="565"/>
      <point x="1012" y="563"/>
      <point x="983" y="559" type="curve"/>
      <point x="983" y="737" type="line" smooth="yes"/>
      <point x="983" y="1001"/>
      <point x="868" y="1153"/>
      <point x="672" y="1153" type="curve" smooth="yes"/>
      <point x="551" y="1153"/>
      <point x="469" y="1100"/>
      <point x="418" y="993" type="curve"/>
      <point x="399" y="993" type="line"/>
      <point x="362" y="1133" type="line"/>
      <point x="102" y="1133" type="line"/>
      <point x="102" y="0" type="line"/>
      <point x="434" y="0" type="line"/>
      <point x="434" y="518" type="line" smooth="yes"/>
      <point x="434" y="774"/>
      <point x="463" y="858"/>
      <point x="563" y="858" type="curve" smooth="yes"/>
      <point x="631" y="858"/>
      <point x="651" y="780"/>
      <point x="651" y="631" type="curve" smooth="yes"/>
      <point x="651" y="391" type="line" smooth="yes"/>
      <point x="651" y="365"/>
      <point x="651" y="340"/>
      <point x="653" y="315" type="curve"/>
      <point x="606" y="238"/>
      <point x="557" y="135"/>
      <point x="506" y="2" type="curve"/>
    </contour>
    <contour>
      <point x="1049" y="205" type="curve" smooth="yes"/>
      <point x="1010" y="205"/>
      <point x="981" y="221"/>
      <point x="979" y="317" type="curve"/>
      <point x="1004" y="334"/>
      <point x="1028" y="340"/>
      <point x="1051" y="340" type="curve" smooth="yes"/>
      <point x="1081" y="340"/>
      <point x="1112" y="315"/>
      <point x="1112" y="272" type="curve" smooth="yes"/>
      <point x="1112" y="233"/>
      <point x="1090" y="205"/>
    </contour>
  </outline>
</glyph>
<glyph name="uni0236" format="2">
  <advance width="893"/>
  <unicode hex="0236"/>
  <anchor x="446" y="0" name="bottom"/>
  <anchor x="446" y="1360" name="top"/>
  <outline>
    <contour>
      <point x="244" y="-86" type="line"/>
      <point x="260" y="-43"/>
      <point x="276" y="-4"/>
      <point x="291" y="33" type="curve"/>
      <point x="348" y="-2"/>
      <point x="422" y="-20"/>
      <point x="514" y="-20" type="curve" smooth="yes"/>
      <point x="731" y="-20"/>
      <point x="856" y="102"/>
      <point x="856" y="276" type="curve" smooth="yes"/>
      <point x="856" y="459"/>
      <point x="737" y="565"/>
      <point x="569" y="565" type="curve" smooth="yes"/>
      <point x="537" y="565"/>
      <point x="506" y="563"/>
      <point x="477" y="559" type="curve"/>
      <point x="477" y="860" type="line"/>
      <point x="690" y="860" type="line"/>
      <point x="690" y="1133" type="line"/>
      <point x="477" y="1133" type="line"/>
      <point x="477" y="1360" type="line"/>
      <point x="252" y="1360" type="line"/>
      <point x="174" y="1122" type="line"/>
      <point x="31" y="1036" type="line"/>
      <point x="31" y="860" type="line"/>
      <point x="145" y="860" type="line"/>
      <point x="145" y="391" type="line" smooth="yes"/>
      <point x="145" y="365"/>
      <point x="145" y="340"/>
      <point x="147" y="315" type="curve"/>
      <point x="100" y="238"/>
      <point x="51" y="135"/>
      <point x="0" y="2" type="curve"/>
    </contour>
    <contour>
      <point x="543" y="205" type="curve" smooth="yes"/>
      <point x="504" y="205"/>
      <point x="475" y="221"/>
      <point x="473" y="317" type="curve"/>
      <point x="498" y="334"/>
      <point x="522" y="340"/>
      <point x="545" y="340" type="curve" smooth="yes"/>
      <point x="575" y="340"/>
      <point x="606" y="315"/>
      <point x="606" y="272" type="curve" smooth="yes"/>
      <point x="606" y="233"/>
      <point x="584" y="205"/>
    </contour>
  </outline>
</glyph>
<glyph name="uni0239" format="2">
  <advance width="1610"/>
  <unicode hex="0239"/>
  <anchor x="805" y="-424" name="bottom"/>
  <anchor x="805" y="1133" name="top"/>
  <outline>
    <contour>
      <point x="1081" y="1153" type="curve" smooth="yes"/>
      <point x="954" y="1153"/>
      <point x="866" y="1098"/>
      <point x="805" y="995" type="curve"/>
      <point x="743" y="1098"/>
      <point x="655" y="1153"/>
      <point x="528" y="1153" type="curve" smooth="yes"/>
      <point x="180" y="1153"/>
      <point x="66" y="854"/>
      <point x="66" y="563" type="curve" smooth="yes"/>
      <point x="66" y="201"/>
      <point x="193" y="-14"/>
      <point x="393" y="-14" type="curve" smooth="yes"/>
      <point x="496" y="-14"/>
      <point x="578" y="35"/>
      <point x="639" y="152" type="curve"/>
      <point x="649" y="152" type="line"/>
      <point x="643" y="49"/>
      <point x="639" y="-23"/>
      <point x="639" y="-66" type="curve" smooth="yes"/>
      <point x="639" y="-424" type="line"/>
      <point x="971" y="-424" type="line"/>
      <point x="971" y="-66" type="line" smooth="yes"/>
      <point x="971" y="-23"/>
      <point x="967" y="49"/>
      <point x="961" y="152" type="curve"/>
      <point x="971" y="152" type="line"/>
      <point x="1032" y="35"/>
      <point x="1112" y="-14"/>
      <point x="1217" y="-14" type="curve" smooth="yes"/>
      <point x="1419" y="-14"/>
      <point x="1544" y="201"/>
      <point x="1544" y="563" type="curve" smooth="yes"/>
      <point x="1544" y="854"/>
      <point x="1430" y="1153"/>
    </contour>
    <contour>
      <point x="512" y="877" type="curve" smooth="yes"/>
      <point x="604" y="877"/>
      <point x="639" y="788"/>
      <point x="639" y="555" type="curve" smooth="yes"/>
      <point x="639" y="350"/>
      <point x="602" y="270"/>
      <point x="514" y="270" type="curve" smooth="yes"/>
      <point x="438" y="270"/>
      <point x="401" y="369"/>
      <point x="401" y="559" type="curve" smooth="yes"/>
      <point x="401" y="774"/>
      <point x="440" y="877"/>
    </contour>
    <contour>
      <point x="1098" y="877" type="curve" smooth="yes"/>
      <point x="1167" y="877"/>
      <point x="1208" y="774"/>
      <point x="1208" y="559" type="curve" smooth="yes"/>
      <point x="1208" y="369"/>
      <point x="1169" y="270"/>
      <point x="1096" y="270" type="curve" smooth="yes"/>
      <point x="1008" y="270"/>
      <point x="971" y="350"/>
      <point x="971" y="555" type="curve" smooth="yes"/>
      <point x="971" y="780"/>
      <point x="1001" y="877"/>
    </contour>
  </outline>
</glyph>
<glyph name="uni023C" format="2">
  <advance width="887"/>
  <unicode hex="023C"/>
  <anchor x="520" y="-426" name="bottom"/>
  <anchor x="506" y="1556" name="top"/>
  <outline>
    <contour>
      <point x="776" y="1556" type="line"/>
      <point x="659" y="1556" type="line"/>
      <point x="342" y="-426" type="line"/>
      <point x="459" y="-426" type="line"/>
    </contour>
    <component base="c"/>
  </outline>
</glyph>
<glyph name="uni0241" format="2">
  <advance width="883"/>
  <unicode hex="0241"/>
  <anchor x="442" y="0" name="bottom"/>
  <anchor x="442" y="1462" name="top"/>
  <outline>
    <contour>
      <point x="387" y="1483" type="curve" smooth="yes"/>
      <point x="258" y="1483"/>
      <point x="129" y="1464"/>
      <point x="0" y="1362" type="curve"/>
      <point x="106" y="1098" type="line"/>
      <point x="195" y="1167"/>
      <point x="270" y="1184"/>
      <point x="338" y="1184" type="curve" smooth="yes"/>
      <point x="412" y="1184"/>
      <point x="467" y="1124"/>
      <point x="467" y="1024" type="curve" smooth="yes"/>
      <point x="467" y="858"/>
      <point x="399" y="748"/>
      <point x="193" y="623" type="curve"/>
      <point x="193" y="0" type="line"/>
      <point x="524" y="0" type="line"/>
      <point x="524" y="498" type="line"/>
      <point x="739" y="672"/>
      <point x="825" y="831"/>
      <point x="825" y="1053" type="curve" smooth="yes"/>
      <point x="825" y="1313"/>
      <point x="664" y="1483"/>
    </contour>
  </outline>
</glyph>
<glyph name="uni0242" format="2">
  <advance width="862"/>
  <unicode hex="0242"/>
  <anchor x="432" y="0" name="bottom"/>
  <anchor x="432" y="1133" name="top"/>
  <outline>
    <contour>
      <point x="387" y="1149" type="curve" smooth="yes"/>
      <point x="258" y="1149"/>
      <point x="129" y="1130"/>
      <point x="0" y="1028" type="curve"/>
      <point x="106" y="768" type="line"/>
      <point x="195" y="838"/>
      <point x="252" y="854"/>
      <point x="330" y="854" type="curve" smooth="yes"/>
      <point x="403" y="854"/>
      <point x="467" y="795"/>
      <point x="467" y="694" type="curve" smooth="yes"/>
      <point x="467" y="528"/>
      <point x="399" y="428"/>
      <point x="193" y="334" type="curve"/>
      <point x="193" y="0" type="line"/>
      <point x="504" y="0" type="line"/>
      <point x="504" y="209" type="line"/>
      <point x="719" y="352"/>
      <point x="805" y="498"/>
      <point x="805" y="719" type="curve" smooth="yes"/>
      <point x="805" y="979"/>
      <point x="664" y="1149"/>
    </contour>
  </outline>
</glyph>
<glyph name="uni0244" format="2">
  <advance width="1204"/>
  <unicode hex="0244"/>
  <anchor x="596" y="0" name="bottom"/>
  <anchor x="602" y="1462" name="top"/>
  <outline>
    <contour>
      <point x="0" y="659" type="line"/>
      <point x="1204" y="659" type="line"/>
      <point x="1204" y="915" type="line"/>
      <point x="0" y="915" type="line"/>
    </contour>
    <component base="U"/>
  </outline>
</glyph>
<glyph name="uni0247" format="2">
  <advance width="989"/>
  <unicode hex="0247"/>
  <anchor x="535" y="-426" name="bottom"/>
  <anchor x="504" y="1556" name="top"/>
  <outline>
    <contour>
      <point x="735" y="1556" type="line"/>
      <point x="618" y="1556" type="line"/>
      <point x="240" y="-426" type="line"/>
      <point x="356" y="-426" type="line"/>
    </contour>
    <component base="e"/>
  </outline>
</glyph>
<glyph name="uni0249" format="2">
  <advance width="543"/>
  <unicode hex="0249"/>
  <anchor x="272" y="-492" name="bottom"/>
  <anchor x="272" y="1589" name="top"/>
  <outline>
    <contour>
      <point x="94" y="-492" type="curve" smooth="yes"/>
      <point x="307" y="-487"/>
      <point x="436" y="-367"/>
      <point x="436" y="-92" type="curve" smooth="yes"/>
      <point x="436" y="465" type="line"/>
      <point x="543" y="465" type="line"/>
      <point x="543" y="702" type="line"/>
      <point x="436" y="702" type="line"/>
      <point x="436" y="1133" type="line"/>
      <point x="104" y="1133" type="line"/>
      <point x="104" y="702" type="line"/>
      <point x="0" y="702" type="line"/>
      <point x="0" y="465" type="line"/>
      <point x="104" y="465" type="line"/>
      <point x="104" y="-66" type="line" smooth="yes"/>
      <point x="104" y="-158"/>
      <point x="76" y="-205"/>
      <point x="14" y="-205" type="curve" smooth="yes"/>
      <point x="-14" y="-205"/>
      <point x="-45" y="-199"/>
      <point x="-78" y="-186" type="curve"/>
      <point x="-78" y="-467" type="line"/>
      <point x="-23" y="-485"/>
      <point x="39" y="-492"/>
    </contour>
    <contour>
      <point x="94" y="1415" type="curve" smooth="yes"/>
      <point x="94" y="1300"/>
      <point x="154" y="1243"/>
      <point x="270" y="1243" type="curve" smooth="yes"/>
      <point x="387" y="1243"/>
      <point x="446" y="1300"/>
      <point x="446" y="1415" type="curve" smooth="yes"/>
      <point x="446" y="1530"/>
      <point x="393" y="1589"/>
      <point x="270" y="1589" type="curve" smooth="yes"/>
      <point x="147" y="1589"/>
      <point x="94" y="1532"/>
    </contour>
  </outline>
</glyph>
<glyph name="uni024A" format="2">
  <advance width="1260"/>
  <unicode hex="024A"/>
  <anchor x="631" y="-492" name="bottom"/>
  <anchor x="631" y="1462" name="top"/>
  <outline>
    <contour>
      <point x="489" y="1487" type="curve"/>
      <point x="291" y="1487"/>
      <point x="80" y="1247"/>
      <point x="80" y="729" type="curve"/>
      <point x="80" y="217"/>
      <point x="285" y="-20"/>
      <point x="492" y="-20" type="curve"/>
      <point x="645" y="-20"/>
      <point x="711" y="47"/>
      <point x="784" y="176" type="curve"/>
      <point x="805" y="176" type="line"/>
      <point x="799" y="86"/>
      <point x="797" y="33"/>
      <point x="797" y="-61" type="curve"/>
      <point x="797" y="-102" type="line"/>
      <point x="797" y="-383"/>
      <point x="922" y="-492"/>
      <point x="1133" y="-492" type="curve"/>
      <point x="1196" y="-492"/>
      <point x="1268" y="-473"/>
      <point x="1296" y="-459" type="curve"/>
      <point x="1296" y="-176" type="line"/>
      <point x="1280" y="-184"/>
      <point x="1243" y="-199"/>
      <point x="1198" y="-199" type="curve"/>
      <point x="1174" y="-199"/>
      <point x="1139" y="-168"/>
      <point x="1139" y="-100" type="curve"/>
      <point x="1139" y="1462" type="line"/>
      <point x="850" y="1462" type="line"/>
      <point x="782" y="1319" type="line"/>
      <point x="764" y="1319" type="line"/>
      <point x="715" y="1419"/>
      <point x="641" y="1487"/>
    </contour>
    <contour>
      <point x="618" y="1180" type="curve"/>
      <point x="729" y="1180"/>
      <point x="797" y="1034"/>
      <point x="797" y="741" type="curve"/>
      <point x="797" y="809" type="line" smooth="yes"/>
      <point x="797" y="442"/>
      <point x="711" y="285"/>
      <point x="625" y="285" type="curve"/>
      <point x="530" y="285"/>
      <point x="442" y="408"/>
      <point x="442" y="725" type="curve"/>
      <point x="442" y="1030"/>
      <point x="526" y="1180"/>
    </contour>
  </outline>
</glyph>
<glyph name="uni024C" format="2">
  <advance width="1116"/>
  <unicode hex="024C"/>
  <anchor x="580" y="0" name="bottom"/>
  <anchor x="573" y="1462" name="top"/>
  <outline>
    <contour>
      <point x="408" y="549" type="line"/>
      <point x="408" y="819" type="line"/>
      <point x="10" y="819" type="line"/>
      <point x="10" y="549" type="line"/>
    </contour>
    <component base="R"/>
  </outline>
</glyph>
<glyph name="uni024D" format="2">
  <advance width="768"/>
  <unicode hex="024D"/>
  <anchor x="285" y="0" name="bottom"/>
  <anchor x="420" y="1133" name="top"/>
  <outline>
    <contour>
      <point x="612" y="653" type="line"/>
      <point x="10" y="653" type="line"/>
      <point x="10" y="416" type="line"/>
      <point x="612" y="416" type="line"/>
    </contour>
    <component base="r"/>
  </outline>
</glyph>
<glyph name="uni024E" format="2">
  <advance width="1077"/>
  <unicode hex="024E"/>
  <anchor x="539" y="0" name="bottom"/>
  <anchor x="539" y="1462" name="top"/>
  <outline>
    <contour>
      <point x="1067" y="1225" type="line"/>
      <point x="10" y="1225" type="line"/>
      <point x="10" y="1040" type="line"/>
      <point x="1067" y="1040" type="line"/>
    </contour>
    <component base="Y"/>
  </outline>
</glyph>
<glyph name="uni0251" format="2">
  <advance width="1094"/>
  <unicode hex="0251"/>
  <anchor x="537" y="0" name="bottom"/>
  <anchor x="537" y="1133" name="top"/>
  <outline>
    <contour>
      <point x="393" y="-20" type="curve" smooth="yes"/>
      <point x="502" y="-20"/>
      <point x="594" y="33"/>
      <point x="657" y="147" type="curve"/>
      <point x="668" y="147" type="line"/>
      <point x="719" y="29"/>
      <point x="797" y="-20"/>
      <point x="958" y="-20" type="curve" smooth="yes"/>
      <point x="989" y="-20"/>
      <point x="1077" y="-6"/>
      <point x="1092" y="6" type="curve"/>
      <point x="1092" y="276" type="line"/>
      <point x="1077" y="270"/>
      <point x="1061" y="266"/>
      <point x="1040" y="266" type="curve" smooth="yes"/>
      <point x="995" y="266"/>
      <point x="971" y="307"/>
      <point x="971" y="387" type="curve" smooth="yes"/>
      <point x="971" y="1133" type="line"/>
      <point x="684" y="1133" type="line"/>
      <point x="657" y="991" type="line"/>
      <point x="639" y="991" type="line"/>
      <point x="575" y="1114"/>
      <point x="510" y="1153"/>
      <point x="403" y="1153" type="curve" smooth="yes"/>
      <point x="190" y="1153"/>
      <point x="66" y="928"/>
      <point x="66" y="557" type="curve" smooth="yes"/>
      <point x="66" y="203"/>
      <point x="190" y="-20"/>
    </contour>
    <contour>
      <point x="514" y="264" type="curve" smooth="yes"/>
      <point x="440" y="264"/>
      <point x="401" y="360"/>
      <point x="401" y="553" type="curve" smooth="yes"/>
      <point x="401" y="768"/>
      <point x="442" y="868"/>
      <point x="512" y="868" type="curve" smooth="yes"/>
      <point x="602" y="868"/>
      <point x="639" y="786"/>
      <point x="639" y="584" type="curve" smooth="yes"/>
      <point x="639" y="524" type="line" smooth="yes"/>
      <point x="639" y="344"/>
      <point x="602" y="264"/>
    </contour>
  </outline>
</glyph>
<glyph name="uni0253" format="2">
  <advance width="1073"/>
  <unicode hex="0253"/>
  <anchor x="537" y="0" name="bottom"/>
  <anchor x="537" y="1567" name="top"/>
  <outline>
    <contour>
      <point x="444" y="1567" type="curve" smooth="yes"/>
      <point x="225" y="1567"/>
      <point x="102" y="1415"/>
      <point x="102" y="1167" type="curve" smooth="yes"/>
      <point x="102" y="0" type="line"/>
      <point x="369" y="0" type="line"/>
      <point x="418" y="111" type="line"/>
      <point x="434" y="111" type="line"/>
      <point x="514" y="6"/>
      <point x="571" y="-20"/>
      <point x="672" y="-20" type="curve" smooth="yes"/>
      <point x="885" y="-20"/>
      <point x="1008" y="207"/>
      <point x="1008" y="569" type="curve" smooth="yes"/>
      <point x="1008" y="932"/>
      <point x="881" y="1153"/>
      <point x="680" y="1153" type="curve" smooth="yes"/>
      <point x="578" y="1153"/>
      <point x="496" y="1104"/>
      <point x="434" y="987" type="curve"/>
      <point x="424" y="987" type="line"/>
      <point x="430" y="1053"/>
      <point x="434" y="1104"/>
      <point x="434" y="1147" type="curve" smooth="yes"/>
      <point x="434" y="1159" type="line" smooth="yes"/>
      <point x="434" y="1241"/>
      <point x="463" y="1280"/>
      <point x="524" y="1280" type="curve" smooth="yes"/>
      <point x="553" y="1280"/>
      <point x="584" y="1274"/>
      <point x="616" y="1262" type="curve"/>
      <point x="616" y="1542" type="line"/>
      <point x="580" y="1554"/>
      <point x="494" y="1567"/>
    </contour>
    <contour>
      <point x="559" y="868" type="curve" smooth="yes"/>
      <point x="635" y="868"/>
      <point x="672" y="770"/>
      <point x="672" y="573" type="curve" smooth="yes"/>
      <point x="672" y="358"/>
      <point x="633" y="256"/>
      <point x="561" y="256" type="curve" smooth="yes"/>
      <point x="467" y="256"/>
      <point x="434" y="342"/>
      <point x="434" y="567" type="curve" smooth="yes"/>
      <point x="434" y="788"/>
      <point x="471" y="868"/>
    </contour>
  </outline>
</glyph>
<glyph name="uni0254" format="2">
  <advance width="887"/>
  <unicode hex="0254"/>
  <anchor x="403" y="0" name="bottom"/>
  <anchor x="403" y="1133" name="top"/>
  <outline>
    <contour>
      <point x="369" y="1153" type="curve" smooth="yes"/>
      <point x="244" y="1153"/>
      <point x="137" y="1124"/>
      <point x="47" y="1067" type="curve"/>
      <point x="121" y="803" type="line"/>
      <point x="188" y="848"/>
      <point x="252" y="870"/>
      <point x="322" y="870" type="curve" smooth="yes"/>
      <point x="422" y="870"/>
      <point x="483" y="764"/>
      <point x="483" y="565" type="curve" smooth="yes"/>
      <point x="483" y="367"/>
      <point x="428" y="262"/>
      <point x="326" y="262" type="curve" smooth="yes"/>
      <point x="240" y="262"/>
      <point x="158" y="289"/>
      <point x="76" y="354" type="curve"/>
      <point x="76" y="61" type="line"/>
      <point x="150" y="14"/>
      <point x="227" y="-20"/>
      <point x="346" y="-20" type="curve" smooth="yes"/>
      <point x="651" y="-20"/>
      <point x="821" y="180"/>
      <point x="821" y="582" type="curve" smooth="yes"/>
      <point x="821" y="911"/>
      <point x="692" y="1153"/>
    </contour>
  </outline>
</glyph>
<glyph name="uni0256" format="2">
  <advance width="1073"/>
  <unicode hex="0256"/>
  <anchor x="537" y="-492" name="bottom"/>
  <anchor x="537" y="1556" name="top"/>
  <anchor x="1012" y="1556" name="topright"/>
  <outline>
    <contour>
      <point x="950" y="-492" type="curve" smooth="yes"/>
      <point x="1040" y="-492"/>
      <point x="1120" y="-471"/>
      <point x="1186" y="-428" type="curve"/>
      <point x="1186" y="-162" type="line"/>
      <point x="1135" y="-190"/>
      <point x="1098" y="-205"/>
      <point x="1049" y="-205" type="curve" smooth="yes"/>
      <point x="997" y="-205"/>
      <point x="971" y="-172"/>
      <point x="971" y="-106" type="curve" smooth="yes"/>
      <point x="971" y="1556" type="line"/>
      <point x="639" y="1556" type="line"/>
      <point x="639" y="1204" type="line" smooth="yes"/>
      <point x="639" y="1161"/>
      <point x="643" y="1090"/>
      <point x="649" y="987" type="curve"/>
      <point x="639" y="987" type="line"/>
      <point x="578" y="1104"/>
      <point x="498" y="1153"/>
      <point x="393" y="1153" type="curve" smooth="yes"/>
      <point x="190" y="1153"/>
      <point x="66" y="932"/>
      <point x="66" y="569" type="curve" smooth="yes"/>
      <point x="66" y="207"/>
      <point x="188" y="-20"/>
      <point x="403" y="-20" type="curve" smooth="yes"/>
      <point x="512" y="-20"/>
      <point x="567" y="16"/>
      <point x="639" y="111" type="curve"/>
      <point x="649" y="111" type="line"/>
      <point x="641" y="59"/>
      <point x="639" y="10"/>
      <point x="639" y="-41" type="curve" smooth="yes"/>
      <point x="639" y="-111" type="line" smooth="yes"/>
      <point x="639" y="-385"/>
      <point x="737" y="-492"/>
    </contour>
    <contour>
      <point x="512" y="256" type="curve" smooth="yes"/>
      <point x="442" y="256"/>
      <point x="401" y="358"/>
      <point x="401" y="573" type="curve" smooth="yes"/>
      <point x="401" y="770"/>
      <point x="440" y="868"/>
      <point x="514" y="868" type="curve" smooth="yes"/>
      <point x="602" y="868"/>
      <point x="639" y="788"/>
      <point x="639" y="608" type="curve" smooth="yes"/>
      <point x="639" y="543" type="line" smooth="yes"/>
      <point x="639" y="340"/>
      <point x="602" y="256"/>
    </contour>
  </outline>
</glyph>
<glyph name="uni0257" format="2">
  <advance width="1073"/>
  <unicode hex="0257"/>
  <anchor x="537" y="0" name="bottom"/>
  <anchor x="537" y="1587" name="top"/>
  <outline>
    <contour>
      <point x="403" y="-20" type="curve" smooth="yes"/>
      <point x="512" y="-20"/>
      <point x="567" y="16"/>
      <point x="639" y="111" type="curve"/>
      <point x="657" y="111" type="line"/>
      <point x="705" y="0" type="line"/>
      <point x="971" y="0" type="line"/>
      <point x="971" y="1180" type="line" smooth="yes"/>
      <point x="971" y="1262"/>
      <point x="999" y="1300"/>
      <point x="1061" y="1300" type="curve" smooth="yes"/>
      <point x="1090" y="1300"/>
      <point x="1120" y="1294"/>
      <point x="1153" y="1282" type="curve"/>
      <point x="1153" y="1563" type="line"/>
      <point x="1116" y="1575"/>
      <point x="1030" y="1587"/>
      <point x="981" y="1587" type="curve" smooth="yes"/>
      <point x="762" y="1587"/>
      <point x="639" y="1438"/>
      <point x="639" y="1190" type="curve" smooth="yes"/>
      <point x="639" y="1143" type="line" smooth="yes"/>
      <point x="639" y="1100"/>
      <point x="643" y="1038"/>
      <point x="649" y="987" type="curve"/>
      <point x="639" y="987" type="line"/>
      <point x="578" y="1104"/>
      <point x="498" y="1153"/>
      <point x="393" y="1153" type="curve" smooth="yes"/>
      <point x="190" y="1153"/>
      <point x="66" y="932"/>
      <point x="66" y="569" type="curve" smooth="yes"/>
      <point x="66" y="207"/>
      <point x="188" y="-20"/>
    </contour>
    <contour>
      <point x="512" y="256" type="curve" smooth="yes"/>
      <point x="442" y="256"/>
      <point x="401" y="358"/>
      <point x="401" y="573" type="curve" smooth="yes"/>
      <point x="401" y="770"/>
      <point x="440" y="868"/>
      <point x="514" y="868" type="curve" smooth="yes"/>
      <point x="602" y="868"/>
      <point x="639" y="788"/>
      <point x="639" y="608" type="curve" smooth="yes"/>
      <point x="639" y="543" type="line" smooth="yes"/>
      <point x="639" y="340"/>
      <point x="602" y="256"/>
    </contour>
  </outline>
</glyph>
<glyph name="schwahook" format="2">
  <advance width="1432"/>
  <unicode hex="025A"/>
  <anchor x="485" y="0" name="bottom"/>
  <anchor x="485" y="1133" name="top"/>
  <outline>
    <contour>
      <point x="483" y="-20" type="curve" smooth="yes"/>
      <point x="764" y="-20"/>
      <point x="913" y="178"/>
      <point x="922" y="537" type="curve"/>
      <point x="987" y="561" type="line"/>
      <point x="1028" y="406"/>
      <point x="1106" y="330"/>
      <point x="1227" y="330" type="curve" smooth="yes"/>
      <point x="1311" y="330"/>
      <point x="1380" y="367"/>
      <point x="1432" y="418" type="curve"/>
      <point x="1343" y="598" type="line"/>
      <point x="1317" y="573"/>
      <point x="1292" y="563"/>
      <point x="1247" y="563" type="curve" smooth="yes"/>
      <point x="1202" y="563"/>
      <point x="1182" y="602"/>
      <point x="1153" y="743" type="curve" smooth="yes"/>
      <point x="1133" y="846" type="line"/>
      <point x="905" y="766" type="line"/>
      <point x="860" y="1016"/>
      <point x="719" y="1151"/>
      <point x="453" y="1151" type="curve" smooth="yes"/>
      <point x="322" y="1151"/>
      <point x="211" y="1126"/>
      <point x="113" y="1069" type="curve"/>
      <point x="113" y="799" type="line"/>
      <point x="217" y="862"/>
      <point x="299" y="887"/>
      <point x="403" y="887" type="curve" smooth="yes"/>
      <point x="535" y="887"/>
      <point x="596" y="821"/>
      <point x="596" y="670" type="curve"/>
      <point x="55" y="479" type="line"/>
      <point x="55" y="156"/>
      <point x="213" y="-20"/>
    </contour>
    <contour>
      <point x="475" y="236" type="curve" smooth="yes"/>
      <point x="422" y="236"/>
      <point x="383" y="270"/>
      <point x="369" y="354" type="curve"/>
      <point x="596" y="436" type="line"/>
      <point x="596" y="289"/>
      <point x="545" y="236"/>
    </contour>
  </outline>
</glyph>
<glyph name="eopenreversedhook" format="2">
  <advance width="1260"/>
  <unicode hex="025D"/>
  <anchor x="444" y="0" name="bottom"/>
  <anchor x="424" y="1133" name="top"/>
  <outline>
    <contour>
      <point x="1055" y="510" type="curve" smooth="yes"/>
      <point x="1139" y="510"/>
      <point x="1208" y="547"/>
      <point x="1260" y="598" type="curve"/>
      <point x="1171" y="778" type="line"/>
      <point x="1145" y="754"/>
      <point x="1120" y="743"/>
      <point x="1075" y="743" type="curve" smooth="yes"/>
      <point x="1030" y="743"/>
      <point x="1010" y="782"/>
      <point x="981" y="924" type="curve" smooth="yes"/>
      <point x="961" y="1018" type="line"/>
      <point x="518" y="877" type="line"/>
      <point x="575" y="662" type="line"/>
      <point x="815" y="741" type="line"/>
      <point x="856" y="586"/>
      <point x="934" y="510"/>
    </contour>
    <component base="afii10073"/>
  </outline>
</glyph>
<glyph name="uni025E" format="2">
  <advance width="1122"/>
  <unicode hex="025E"/>
  <anchor x="561" y="0" name="bottom"/>
  <anchor x="561" y="1133" name="top"/>
  <outline>
    <contour>
      <point x="600" y="1153" type="curve" smooth="yes"/>
      <point x="254" y="1153"/>
      <point x="66" y="944"/>
      <point x="66" y="569" type="curve" smooth="yes"/>
      <point x="66" y="213"/>
      <point x="221" y="-20"/>
      <point x="590" y="-20" type="curve" smooth="yes"/>
      <point x="907" y="-20"/>
      <point x="1061" y="121"/>
      <point x="1061" y="332" type="curve" smooth="yes"/>
      <point x="1061" y="483"/>
      <point x="973" y="561"/>
      <point x="840" y="588" type="curve"/>
      <point x="840" y="598" type="line"/>
      <point x="948" y="631"/>
      <point x="1018" y="725"/>
      <point x="1018" y="846" type="curve" smooth="yes"/>
      <point x="1018" y="1032"/>
      <point x="885" y="1153"/>
    </contour>
    <contour>
      <point x="586" y="883" type="curve" smooth="yes"/>
      <point x="662" y="883"/>
      <point x="698" y="840"/>
      <point x="698" y="791" type="curve" smooth="yes"/>
      <point x="698" y="727"/>
      <point x="649" y="702"/>
      <point x="586" y="702" type="curve" smooth="yes"/>
      <point x="532" y="702" type="line"/>
      <point x="532" y="461" type="line"/>
      <point x="600" y="461" type="line" smooth="yes"/>
      <point x="678" y="461"/>
      <point x="725" y="430"/>
      <point x="725" y="362" type="curve" smooth="yes"/>
      <point x="725" y="299"/>
      <point x="680" y="256"/>
      <point x="596" y="256" type="curve" smooth="yes"/>
      <point x="467" y="256"/>
      <point x="401" y="362"/>
      <point x="401" y="565" type="curve" smooth="yes"/>
      <point x="401" y="778"/>
      <point x="467" y="883"/>
    </contour>
  </outline>
</glyph>
<glyph name="uni025F" format="2">
  <advance width="543"/>
  <unicode hex="025F"/>
  <anchor x="272" y="-492" name="bottom"/>
  <anchor x="272" y="1133" name="top"/>
  <anchor x="477" y="1133" name="topright"/>
  <outline>
    <contour>
      <point x="94" y="-492" type="curve" smooth="yes"/>
      <point x="307" y="-487"/>
      <point x="436" y="-367"/>
      <point x="436" y="-92" type="curve" smooth="yes"/>
      <point x="436" y="485" type="line"/>
      <point x="543" y="485" type="line"/>
      <point x="543" y="723" type="line"/>
      <point x="436" y="723" type="line"/>
      <point x="436" y="1133" type="line"/>
      <point x="104" y="1133" type="line"/>
      <point x="104" y="723" type="line"/>
      <point x="0" y="723" type="line"/>
      <point x="0" y="485" type="line"/>
      <point x="104" y="485" type="line"/>
      <point x="104" y="-66" type="line" smooth="yes"/>
      <point x="104" y="-158"/>
      <point x="76" y="-205"/>
      <point x="14" y="-205" type="curve" smooth="yes"/>
      <point x="-14" y="-205"/>
      <point x="-45" y="-199"/>
      <point x="-78" y="-186" type="curve"/>
      <point x="-78" y="-467" type="line"/>
      <point x="-23" y="-485"/>
      <point x="39" y="-492"/>
    </contour>
  </outline>
</glyph>
<glyph name="uni0260" format="2">
  <advance width="1073"/>
  <unicode hex="0260"/>
  <anchor x="537" y="-492" name="bottom"/>
  <anchor x="537" y="1587" name="top"/>
  <outline>
    <contour>
      <point x="981" y="1587" type="curve" smooth="yes"/>
      <point x="762" y="1587"/>
      <point x="639" y="1438"/>
      <point x="639" y="1190" type="curve" smooth="yes"/>
      <point x="639" y="1143" type="line" smooth="yes"/>
      <point x="639" y="1102"/>
      <point x="643" y="1042"/>
      <point x="649" y="991" type="curve"/>
      <point x="639" y="991" type="line"/>
      <point x="575" y="1114"/>
      <point x="510" y="1153"/>
      <point x="403" y="1153" type="curve" smooth="yes"/>
      <point x="190" y="1153"/>
      <point x="66" y="928"/>
      <point x="66" y="557" type="curve" smooth="yes"/>
      <point x="66" y="203"/>
      <point x="190" y="-20"/>
      <point x="393" y="-20" type="curve" smooth="yes"/>
      <point x="510" y="-20"/>
      <point x="578" y="29"/>
      <point x="639" y="145" type="curve"/>
      <point x="649" y="145" type="line"/>
      <point x="643" y="104"/>
      <point x="639" y="35"/>
      <point x="639" y="-10" type="curve" smooth="yes"/>
      <point x="639" y="-23" type="line" smooth="yes"/>
      <point x="639" y="-160"/>
      <point x="559" y="-209"/>
      <point x="438" y="-209" type="curve" smooth="yes"/>
      <point x="338" y="-209"/>
      <point x="236" y="-184"/>
      <point x="115" y="-121" type="curve"/>
      <point x="115" y="-406" type="line"/>
      <point x="211" y="-463"/>
      <point x="315" y="-492"/>
      <point x="449" y="-492" type="curve" smooth="yes"/>
      <point x="815" y="-492"/>
      <point x="971" y="-281"/>
      <point x="971" y="100" type="curve" smooth="yes"/>
      <point x="971" y="1180" type="line" smooth="yes"/>
      <point x="971" y="1262"/>
      <point x="999" y="1300"/>
      <point x="1061" y="1300" type="curve" smooth="yes"/>
      <point x="1090" y="1300"/>
      <point x="1120" y="1294"/>
      <point x="1153" y="1282" type="curve"/>
      <point x="1153" y="1563" type="line"/>
      <point x="1116" y="1575"/>
      <point x="1030" y="1587"/>
    </contour>
    <contour>
      <point x="512" y="868" type="curve" smooth="yes"/>
      <point x="602" y="868"/>
      <point x="639" y="786"/>
      <point x="639" y="584" type="curve" smooth="yes"/>
      <point x="639" y="524" type="line" smooth="yes"/>
      <point x="639" y="344"/>
      <point x="602" y="264"/>
      <point x="514" y="264" type="curve" smooth="yes"/>
      <point x="440" y="264"/>
      <point x="401" y="360"/>
      <point x="401" y="553" type="curve" smooth="yes"/>
      <point x="401" y="768"/>
      <point x="442" y="868"/>
    </contour>
  </outline>
</glyph>
<glyph name="uni0262" format="2">
  <advance width="983"/>
  <unicode hex="0262"/>
  <anchor x="492" y="0" name="bottom"/>
  <anchor x="492" y="1133" name="top"/>
  <anchor x="901" y="1133" name="topright"/>
  <outline>
    <contour>
      <point x="563" y="1153" type="curve" smooth="yes"/>
      <point x="213" y="1153"/>
      <point x="66" y="891"/>
      <point x="66" y="561" type="curve" smooth="yes"/>
      <point x="66" y="160"/>
      <point x="246" y="-20"/>
      <point x="551" y="-20" type="curve" smooth="yes"/>
      <point x="696" y="-20"/>
      <point x="827" y="25"/>
      <point x="909" y="80" type="curve"/>
      <point x="909" y="653" type="line"/>
      <point x="494" y="653" type="line"/>
      <point x="494" y="416" type="line"/>
      <point x="598" y="416" type="line"/>
      <point x="598" y="264" type="line"/>
      <point x="584" y="262"/>
      <point x="569" y="262"/>
      <point x="557" y="262" type="curve" smooth="yes"/>
      <point x="455" y="262"/>
      <point x="401" y="362"/>
      <point x="401" y="561" type="curve" smooth="yes"/>
      <point x="401" y="760"/>
      <point x="481" y="870"/>
      <point x="596" y="870" type="curve" smooth="yes"/>
      <point x="678" y="870"/>
      <point x="733" y="852"/>
      <point x="813" y="803" type="curve"/>
      <point x="901" y="1067" type="line"/>
      <point x="805" y="1124"/>
      <point x="698" y="1153"/>
    </contour>
  </outline>
</glyph>
<glyph name="uni0263" format="2">
  <advance width="1006"/>
  <unicode hex="0263"/>
  <anchor x="504" y="-492" name="bottom"/>
  <anchor x="504" y="1133" name="top"/>
  <outline>
    <contour>
      <point x="483" y="-492" type="curve"/>
      <point x="674" y="-492"/>
      <point x="780" y="-352"/>
      <point x="780" y="-180" type="curve"/>
      <point x="780" y="-80"/>
      <point x="743" y="66"/>
      <point x="668" y="219" type="curve"/>
      <point x="1006" y="1128" type="line"/>
      <point x="639" y="1128" type="line"/>
      <point x="539" y="727" type="line" smooth="yes"/>
      <point x="520" y="653"/>
      <point x="498" y="543"/>
      <point x="500" y="475" type="curve"/>
      <point x="492" y="475" type="line"/>
      <point x="492" y="541"/>
      <point x="473" y="670"/>
      <point x="461" y="725" type="curve" smooth="yes"/>
      <point x="365" y="1128" type="line"/>
      <point x="0" y="1128" type="line"/>
      <point x="305" y="252" type="line"/>
      <point x="227" y="72"/>
      <point x="190" y="-49"/>
      <point x="190" y="-176" type="curve"/>
      <point x="190" y="-362"/>
      <point x="293" y="-492"/>
    </contour>
    <contour>
      <point x="485" y="-281" type="curve"/>
      <point x="459" y="-281"/>
      <point x="449" y="-248"/>
      <point x="449" y="-176" type="curve"/>
      <point x="449" y="-137"/>
      <point x="451" y="-49"/>
      <point x="485" y="31" type="curve"/>
      <point x="520" y="-55"/>
      <point x="522" y="-139"/>
      <point x="522" y="-180" type="curve"/>
      <point x="522" y="-248"/>
      <point x="512" y="-281"/>
    </contour>
  </outline>
</glyph>
<glyph name="uni0267" format="2">
  <advance width="1083"/>
  <unicode hex="0267"/>
  <anchor x="543" y="-492" name="bottom"/>
  <anchor x="543" y="1567" name="top"/>
  <outline>
    <contour>
      <point x="444" y="1567" type="curve" smooth="yes"/>
      <point x="225" y="1567"/>
      <point x="102" y="1415"/>
      <point x="102" y="1167" type="curve" smooth="yes"/>
      <point x="102" y="0" type="line"/>
      <point x="434" y="0" type="line"/>
      <point x="434" y="518" type="line" smooth="yes"/>
      <point x="434" y="752"/>
      <point x="455" y="858"/>
      <point x="563" y="858" type="curve" smooth="yes"/>
      <point x="623" y="858"/>
      <point x="651" y="782"/>
      <point x="651" y="631" type="curve" smooth="yes"/>
      <point x="651" y="-111" type="line" smooth="yes"/>
      <point x="651" y="-176"/>
      <point x="625" y="-205"/>
      <point x="573" y="-205" type="curve" smooth="yes"/>
      <point x="524" y="-205"/>
      <point x="487" y="-190"/>
      <point x="436" y="-162" type="curve"/>
      <point x="436" y="-428" type="line"/>
      <point x="502" y="-471"/>
      <point x="582" y="-492"/>
      <point x="672" y="-492" type="curve" smooth="yes"/>
      <point x="885" y="-492"/>
      <point x="983" y="-385"/>
      <point x="983" y="-111" type="curve" smooth="yes"/>
      <point x="983" y="737" type="line" smooth="yes"/>
      <point x="983" y="1001"/>
      <point x="868" y="1153"/>
      <point x="672" y="1153" type="curve" smooth="yes"/>
      <point x="551" y="1153"/>
      <point x="471" y="1100"/>
      <point x="426" y="993" type="curve"/>
      <point x="408" y="993" type="line"/>
      <point x="424" y="1055"/>
      <point x="434" y="1112"/>
      <point x="434" y="1147" type="curve" smooth="yes"/>
      <point x="434" y="1163" type="line" smooth="yes"/>
      <point x="434" y="1243"/>
      <point x="463" y="1280"/>
      <point x="524" y="1280" type="curve" smooth="yes"/>
      <point x="553" y="1280"/>
      <point x="584" y="1274"/>
      <point x="616" y="1262" type="curve"/>
      <point x="616" y="1542" type="line"/>
      <point x="580" y="1554"/>
      <point x="494" y="1567"/>
    </contour>
  </outline>
</glyph>
<glyph name="uni0268" format="2">
  <advance width="543"/>
  <unicode hex="0268"/>
  <anchor x="276" y="0" name="bottom"/>
  <anchor x="272" y="1589" name="top"/>
  <outline>
    <contour>
      <point x="543" y="723" type="line"/>
      <point x="0" y="723" type="line"/>
      <point x="0" y="485" type="line"/>
      <point x="543" y="485" type="line"/>
    </contour>
    <component base="i"/>
  </outline>
</glyph>
<glyph name="uni026A" format="2">
  <advance width="721"/>
  <unicode hex="026A"/>
  <anchor x="360" y="0" name="bottom"/>
  <anchor x="360" y="1133" name="top"/>
  <outline>
    <contour>
      <point x="664" y="1133" type="line"/>
      <point x="57" y="1133" type="line"/>
      <point x="57" y="946" type="line"/>
      <point x="195" y="891" type="line"/>
      <point x="195" y="242" type="line"/>
      <point x="57" y="186" type="line"/>
      <point x="57" y="0" type="line"/>
      <point x="664" y="0" type="line"/>
      <point x="664" y="186" type="line"/>
      <point x="526" y="242" type="line"/>
      <point x="526" y="891" type="line"/>
      <point x="664" y="946" type="line"/>
    </contour>
  </outline>
</glyph>
<glyph name="uni026B" format="2">
  <advance width="889"/>
  <unicode hex="026B"/>
  <anchor x="444" y="0" name="bottom"/>
  <anchor x="444" y="1556" name="top"/>
  <outline>
    <contour>
      <point x="279" y="0" type="line"/>
      <point x="610" y="0" type="line"/>
      <point x="610" y="598" type="line"/>
      <point x="637" y="594"/>
      <point x="659" y="590"/>
      <point x="682" y="590" type="curve" smooth="yes"/>
      <point x="786" y="590"/>
      <point x="889" y="647"/>
      <point x="889" y="932" type="curve"/>
      <point x="696" y="932" type="line"/>
      <point x="696" y="868"/>
      <point x="682" y="823"/>
      <point x="639" y="823" type="curve" smooth="yes"/>
      <point x="629" y="823"/>
      <point x="621" y="825"/>
      <point x="610" y="827" type="curve"/>
      <point x="610" y="1556" type="line"/>
      <point x="279" y="1556" type="line"/>
      <point x="279" y="922" type="line"/>
      <point x="252" y="926"/>
      <point x="227" y="930"/>
      <point x="203" y="930" type="curve" smooth="yes"/>
      <point x="39" y="930"/>
      <point x="0" y="756"/>
      <point x="0" y="588" type="curve"/>
      <point x="193" y="588" type="line"/>
      <point x="193" y="662"/>
      <point x="215" y="696"/>
      <point x="252" y="696" type="curve"/>
      <point x="260" y="696"/>
      <point x="270" y="694"/>
      <point x="279" y="692" type="curve"/>
    </contour>
  </outline>
</glyph>
<glyph name="uni026C" format="2">
  <advance width="782"/>
  <unicode hex="026C"/>
  <anchor x="391" y="0" name="bottom"/>
  <anchor x="391" y="1556" name="top"/>
  <outline>
    <contour>
      <point x="274" y="0" type="line"/>
      <point x="606" y="0" type="line"/>
      <point x="606" y="557" type="line"/>
      <point x="772" y="557" type="line"/>
      <point x="772" y="762" type="line"/>
      <point x="606" y="762" type="line"/>
      <point x="606" y="1556" type="line"/>
      <point x="274" y="1556" type="line"/>
      <point x="274" y="1040" type="line"/>
      <point x="250" y="1055"/>
      <point x="223" y="1065"/>
      <point x="195" y="1065" type="curve" smooth="yes"/>
      <point x="61" y="1065"/>
      <point x="-20" y="971"/>
      <point x="-20" y="819" type="curve" smooth="yes"/>
      <point x="-20" y="688"/>
      <point x="43" y="557"/>
      <point x="215" y="557" type="curve" smooth="yes"/>
      <point x="274" y="557" type="line"/>
    </contour>
    <contour>
      <point x="231" y="762" type="line" smooth="yes"/>
      <point x="201" y="762"/>
      <point x="172" y="774"/>
      <point x="172" y="823" type="curve" smooth="yes"/>
      <point x="172" y="862"/>
      <point x="193" y="885"/>
      <point x="223" y="885" type="curve" smooth="yes"/>
      <point x="244" y="885"/>
      <point x="274" y="870"/>
      <point x="274" y="799" type="curve" smooth="yes"/>
      <point x="274" y="762" type="line"/>
    </contour>
  </outline>
</glyph>
<glyph name="uni026E" format="2">
  <advance width="1317"/>
  <unicode hex="026E"/>
  <anchor x="659" y="-492" name="bottom"/>
  <anchor x="659" y="1556" name="top"/>
  <outline>
    <contour>
      <point x="709" y="-492" type="curve" smooth="yes"/>
      <point x="1047" y="-492"/>
      <point x="1264" y="-293"/>
      <point x="1264" y="57" type="curve" smooth="yes"/>
      <point x="1264" y="354"/>
      <point x="1100" y="477"/>
      <point x="895" y="506" type="curve"/>
      <point x="1214" y="913" type="line"/>
      <point x="1214" y="1133" type="line"/>
      <point x="434" y="1133" type="line"/>
      <point x="434" y="1556" type="line"/>
      <point x="102" y="1556" type="line"/>
      <point x="102" y="0" type="line"/>
      <point x="434" y="0" type="line"/>
      <point x="434" y="856" type="line"/>
      <point x="823" y="856" type="line"/>
      <point x="549" y="498" type="line"/>
      <point x="549" y="262" type="line"/>
      <point x="627" y="262" type="line" smooth="yes"/>
      <point x="823" y="262"/>
      <point x="928" y="205"/>
      <point x="928" y="39" type="curve" smooth="yes"/>
      <point x="928" y="-119"/>
      <point x="834" y="-195"/>
      <point x="672" y="-195" type="curve" smooth="yes"/>
      <point x="549" y="-195"/>
      <point x="444" y="-156"/>
      <point x="369" y="-119" type="curve"/>
      <point x="369" y="-420" type="line"/>
      <point x="428" y="-449"/>
      <point x="537" y="-492"/>
    </contour>
  </outline>
</glyph>
<glyph name="uni0273" format="2">
  <advance width="1083"/>
  <unicode hex="0273"/>
  <anchor x="543" y="-492" name="bottom"/>
  <anchor x="543" y="1133" name="top"/>
  <anchor x="1024" y="1133" name="topright"/>
  <outline>
    <contour>
      <point x="983" y="-111" type="curve" smooth="yes"/>
      <point x="983" y="737" type="line" smooth="yes"/>
      <point x="983" y="1001"/>
      <point x="868" y="1153"/>
      <point x="672" y="1153" type="curve" smooth="yes"/>
      <point x="551" y="1153"/>
      <point x="469" y="1100"/>
      <point x="418" y="993" type="curve"/>
      <point x="399" y="993" type="line"/>
      <point x="362" y="1133" type="line"/>
      <point x="102" y="1133" type="line"/>
      <point x="102" y="0" type="line"/>
      <point x="434" y="0" type="line"/>
      <point x="434" y="518" type="line" smooth="yes"/>
      <point x="434" y="774"/>
      <point x="463" y="858"/>
      <point x="563" y="858" type="curve" smooth="yes"/>
      <point x="631" y="858"/>
      <point x="651" y="780"/>
      <point x="651" y="631" type="curve" smooth="yes"/>
      <point x="651" y="-111" type="line" smooth="yes"/>
      <point x="651" y="-385"/>
      <point x="750" y="-492"/>
      <point x="963" y="-492" type="curve" smooth="yes"/>
      <point x="1053" y="-492"/>
      <point x="1133" y="-471"/>
      <point x="1198" y="-428" type="curve"/>
      <point x="1198" y="-162" type="line"/>
      <point x="1147" y="-190"/>
      <point x="1110" y="-205"/>
      <point x="1061" y="-205" type="curve" smooth="yes"/>
      <point x="1010" y="-205"/>
      <point x="983" y="-176"/>
    </contour>
  </outline>
</glyph>
<glyph name="uni0274" format="2">
  <advance width="1178"/>
  <unicode hex="0274"/>
  <anchor x="590" y="0" name="bottom"/>
  <anchor x="590" y="1133" name="top"/>
  <anchor x="1114" y="1133" name="topright"/>
  <outline>
    <contour>
      <point x="104" y="0" type="line"/>
      <point x="420" y="0" type="line"/>
      <point x="420" y="356" type="line" smooth="yes"/>
      <point x="420" y="463"/>
      <point x="412" y="567"/>
      <point x="401" y="680" type="curve"/>
      <point x="723" y="0" type="line"/>
      <point x="1075" y="0" type="line"/>
      <point x="1075" y="1133" type="line"/>
      <point x="758" y="1133" type="line"/>
      <point x="758" y="799" type="line" smooth="yes"/>
      <point x="758" y="686"/>
      <point x="764" y="598"/>
      <point x="776" y="451" type="curve"/>
      <point x="455" y="1133" type="line"/>
      <point x="104" y="1133" type="line"/>
    </contour>
  </outline>
</glyph>
<glyph name="uni0276" format="2">
  <advance width="1360"/>
  <unicode hex="0276"/>
  <anchor x="680" y="0" name="bottom"/>
  <anchor x="680" y="1133" name="top"/>
  <outline>
    <contour>
      <point x="475" y="1153" type="curve" smooth="yes"/>
      <point x="199" y="1153"/>
      <point x="66" y="895"/>
      <point x="66" y="569" type="curve" smooth="yes"/>
      <point x="66" y="270"/>
      <point x="205" y="-20"/>
      <point x="481" y="-20" type="curve" smooth="yes"/>
      <point x="586" y="-20"/>
      <point x="659" y="-2"/>
      <point x="719" y="78" type="curve"/>
      <point x="719" y="0" type="line"/>
      <point x="1290" y="0" type="line"/>
      <point x="1290" y="258" type="line"/>
      <point x="965" y="258" type="line"/>
      <point x="965" y="436" type="line"/>
      <point x="1266" y="436" type="line"/>
      <point x="1266" y="694" type="line"/>
      <point x="965" y="694" type="line"/>
      <point x="965" y="874" type="line"/>
      <point x="1290" y="874" type="line"/>
      <point x="1290" y="1133" type="line"/>
      <point x="719" y="1133" type="line"/>
      <point x="719" y="1049" type="line"/>
      <point x="649" y="1135"/>
      <point x="569" y="1153"/>
    </contour>
    <contour>
      <point x="528" y="877" type="curve" smooth="yes"/>
      <point x="621" y="877"/>
      <point x="653" y="776"/>
      <point x="653" y="569" type="curve" smooth="yes"/>
      <point x="653" y="360"/>
      <point x="621" y="256"/>
      <point x="528" y="256" type="curve" smooth="yes"/>
      <point x="440" y="256"/>
      <point x="401" y="362"/>
      <point x="401" y="565" type="curve" smooth="yes"/>
      <point x="401" y="778"/>
      <point x="440" y="877"/>
    </contour>
  </outline>
</glyph>
<glyph name="uni027A" format="2">
  <advance width="768"/>
  <unicode hex="027A"/>
  <anchor x="385" y="0" name="bottom"/>
  <anchor x="385" y="1556" name="top"/>
  <outline>
    <contour>
      <point x="109" y="-20" type="curve" smooth="yes"/>
      <point x="221" y="-20"/>
      <point x="307" y="88"/>
      <point x="346" y="180" type="curve"/>
      <point x="362" y="180" type="line"/>
      <point x="410" y="0" type="line"/>
      <point x="664" y="0" type="line"/>
      <point x="664" y="1556" type="line"/>
      <point x="332" y="1556" type="line"/>
      <point x="332" y="563" type="line" smooth="yes"/>
      <point x="332" y="416"/>
      <point x="276" y="336"/>
      <point x="145" y="336" type="curve" smooth="yes"/>
      <point x="102" y="336"/>
      <point x="70" y="340"/>
      <point x="43" y="348" type="curve"/>
      <point x="16" y="-8" type="line"/>
      <point x="57" y="-18"/>
      <point x="82" y="-20"/>
    </contour>
  </outline>
</glyph>
<glyph name="uni027E" format="2">
  <advance width="727"/>
  <unicode hex="027E"/>
  <anchor x="365" y="0" name="bottom"/>
  <anchor x="365" y="1133" name="top"/>
  <outline>
    <contour>
      <point x="561" y="1153" type="curve" smooth="yes"/>
      <point x="170" y="1153"/>
      <point x="104" y="938"/>
      <point x="104" y="621" type="curve" smooth="yes"/>
      <point x="104" y="0" type="line"/>
      <point x="436" y="0" type="line"/>
      <point x="436" y="614" type="line" smooth="yes"/>
      <point x="436" y="782"/>
      <point x="471" y="842"/>
      <point x="582" y="842" type="curve" smooth="yes"/>
      <point x="625" y="842"/>
      <point x="657" y="840"/>
      <point x="684" y="831" type="curve"/>
      <point x="711" y="1141" type="line"/>
      <point x="670" y="1147"/>
      <point x="610" y="1153"/>
    </contour>
  </outline>
</glyph>
